<?xml version="1.0" encoding="UTF-8"?>
<svg id="Layer_1" xmlns="http://www.w3.org/2000/svg" version="1.1" viewBox="0 0 775 400">
  <!-- Generator: Adobe Illustrator 29.5.1, SVG Export Plug-In . SVG Version: 2.1.0 Build 141)  -->
  <defs>
    <style>
      .st0 {
        fill: none;
      }

      .st1 {
        fill: #fff;
      }
    </style>
  </defs>
  <g>
    <path class="st0" d="M533.8,204.9c-2.2,1.9-4.2,4.2-6,7.1-2.6,4.3-3.9,9.3-3.9,14.8s1,8.9,3.1,12.4c2.1,3.5,5,6.2,8.8,8.1,3.8,1.9,8.3,2.8,13.5,2.8s13.9-2,19.7-6c.2-.1.3-.2.4-.3l-29.1-31.3c-2.5-2.7-4.7-5.2-6.7-7.5Z"/>
    <path class="st1" d="M439.6,239.7c-6.6,4.8-14.8,7.2-24.5,7.2s-12.5-1.1-17.5-3.4c-5-2.2-9.3-5.4-12.7-9.5-3.4-4.1-6-8.9-7.7-14.3-1.7-5.5-2.6-11.4-2.6-17.8s.9-12.5,2.6-18c1.7-5.5,4.2-10.2,7.6-14.2,3.3-4,7.5-7.2,12.4-9.4,5-2.3,10.6-3.4,16.9-3.4s11.9,1.1,17,3.2c5,2.1,9.2,5.2,12.4,9.2,3.3,4,5.3,9,6.1,14.9h25.6c-1.1-10.2-4.2-19.1-9.4-26.7-5.2-7.6-12.2-13.5-21-17.8-8.8-4.3-19-6.4-30.8-6.4s-21,1.9-29.2,5.8c-8.2,3.9-15,9-20.3,15.4-5.3,6.4-9.2,13.5-11.7,21.3-2.6,7.8-3.8,15.8-3.8,23.8v3.9c0,7.4,1.2,14.9,3.7,22.7,2.5,7.8,6.4,15,11.6,21.7,5.3,6.7,12.1,12.1,20.4,16.2,8.4,4.1,18.5,6.1,30.3,6.1s22.9-2.3,31.8-6.9,15.9-10.8,21-18.5c5.1-7.7,8.2-16.2,9.4-25.4h-25.6c-1.4,8.7-5.5,15.4-12.1,20.2Z"/>
    <path class="st1" d="M582.9,225.5c-.3.7-.6,1.3-.8,1.9l-27.1-29c-4.6-5.1-8-9.6-10.1-13.6-2.1-4-3.2-8.1-3.2-12.5s1.3-9,4-11.8c2.7-2.8,7.7-4.2,15.2-4.2s5.1,0,8.6.3c3.5.2,7,.4,10.6.8,3.6.4,6.5.7,8.9.9v-20.6c-3.6-.6-7.7-1.1-12.4-1.4s-9.1-.5-13.2-.5c-10.4,0-18.9,1.4-25.5,4.3-6.6,2.8-11.4,6.9-14.5,12.2-3.1,5.3-4.6,11.6-4.6,19.1s.7,9.1,2,13.2c.6,1.9,1.5,3.8,2.5,5.8-6,3.5-11.1,8.1-15.1,13.7-4.8,6.7-7.2,14.3-7.2,22.8v2.5c0,7.7,2,14.7,5.9,21,3.9,6.3,9.4,11.3,16.5,14.9s15.4,5.5,24.9,5.5,16.9-1.7,24.4-5.2c3.9-1.8,7.5-4,10.9-6.6l7.6,8.2h27.9l-21.9-23.5c3.2-5.1,5.9-10.9,8-17.4,2.7-8.5,4.3-18.1,4.6-28.9h-21.7c-.3,11.3-2,20.7-5.1,28.2ZM569.1,244.1c-5.8,4-12.4,6-19.7,6s-9.7-.9-13.5-2.8c-3.8-1.9-6.7-4.6-8.8-8.1-2.1-3.5-3.1-7.6-3.1-12.4s1.3-10.5,3.9-14.8c1.7-2.9,3.7-5.2,6-7.1,2,2.4,4.2,4.9,6.7,7.5l29.1,31.3c-.2.1-.3.2-.4.3Z"/>
    <path class="st1" d="M747.4,219.5c-1.4,8.7-5.5,15.4-12.1,20.2-6.6,4.8-14.8,7.2-24.5,7.2s-12.5-1.1-17.5-3.4c-5-2.2-9.3-5.4-12.7-9.5-3.4-4.1-6-8.9-7.7-14.3-1.7-5.5-2.6-11.4-2.6-17.8s.9-12.5,2.6-18c1.7-5.5,4.2-10.2,7.6-14.2,3.3-4,7.5-7.2,12.4-9.4,5-2.3,10.6-3.4,16.9-3.4s11.9,1.1,17,3.2c5,2.1,9.2,5.2,12.4,9.2,3.3,4,5.3,9,6.1,14.9h25.6c-1.1-10.2-4.2-19.1-9.4-26.7-5.2-7.6-12.2-13.5-21-17.8-8.8-4.3-19-6.4-30.8-6.4s-21,1.9-29.2,5.8c-8.2,3.9-15,9-20.3,15.4-5.3,6.4-9.2,13.5-11.7,21.3-2.6,7.8-3.8,15.8-3.8,23.8v3.9c0,7.4,1.2,14.9,3.7,22.7,2.5,7.8,6.4,15,11.6,21.7,5.3,6.7,12.1,12.1,20.4,16.2,8.4,4.1,18.5,6.1,30.3,6.1s22.9-2.3,31.8-6.9,15.9-10.8,21-18.5c5.1-7.7,8.2-16.2,9.4-25.4h-25.6Z"/>
  </g>
  <polygon class="st1" points="166 200.5 166.3 200.2 167.4 199.1 277.6 82 243 56.8 166.3 196.2 186.4 38.3 143.6 38.3 163.5 196.2 87 56.6 52.4 81.8 161.2 197.8 17.3 129.9 4.1 170.6 160.3 200.5 4 230.1 17.2 270.8 161.2 203.2 52.1 319 86.8 344.2 163.4 204.8 143.3 362.7 186.1 362.7 166.3 204.8 242.8 344.4 277.4 319.2 167.2 201.8 166 200.5"/>
</svg>