<?xml version="1.0" encoding="UTF-8"?>
<svg id="Layer_1" xmlns="http://www.w3.org/2000/svg" version="1.1" viewBox="0 0 420.5 239.8">
  <!-- Generator: Adobe Illustrator 29.5.0, SVG Export Plug-In . SVG Version: 2.1.0 Build 137)  -->
  <path d="M115.8,149.3c-5.2,3.7-11.5,5.6-19.1,5.6s-9.7-.9-13.6-2.6c-3.9-1.8-7.2-4.2-9.9-7.4s-4.7-6.9-6-11.1c-1.3-4.2-2-8.9-2-13.8s.7-9.7,2-14c1.3-4.2,3.3-7.9,5.9-11.1,2.6-3.1,5.8-5.6,9.7-7.3,3.9-1.8,8.2-2.6,13.1-2.6s9.3.8,13.2,2.5c3.9,1.7,7.2,4.1,9.7,7.2,2.5,3.1,4.1,7,4.8,11.6h19.9c-.8-7.9-3.3-14.9-7.3-20.8-4.1-5.9-9.5-10.5-16.3-13.8-6.8-3.3-14.8-5-23.9-5s-16.3,1.5-22.8,4.5c-6.4,3-11.7,7-15.8,12-4.1,5-7.2,10.5-9.1,16.6-2,6.1-3,12.3-3,18.5v3c0,5.7,1,11.6,2.9,17.6,1.9,6,5,11.7,9.1,16.9,4.1,5.2,9.4,9.4,15.9,12.6s14.4,4.8,23.6,4.8,17.8-1.8,24.8-5.4c6.9-3.6,12.4-8.4,16.3-14.4s6.4-12.6,7.3-19.8h-19.9c-1.1,6.7-4.2,12-9.4,15.7h0Z"/>
  <path d="M244.6,137.8c2.1-6.6,3.3-14.1,3.6-22.5h-16.9c-.2,8.8-1.6,16.1-4,21.9-.2.5-.4,1-.7,1.5l-21.1-22.6c-3.6-4-6.2-7.5-7.9-10.6-1.7-3.1-2.5-6.3-2.5-9.8s1-7,3.1-9.2c2.1-2.2,6-3.2,11.8-3.2s4,0,6.7.2,5.5.4,8.2.6c2.8.3,5.1.5,6.9.7v-16c-2.8-.5-6-.8-9.6-1.1-3.6-.3-7.1-.4-10.3-.4-8.1,0-14.7,1.1-19.9,3.3s-8.9,5.4-11.3,9.5-3.6,9.1-3.6,14.9.5,7.1,1.6,10.2c.5,1.5,1.2,3,2,4.5-4.7,2.7-8.6,6.3-11.8,10.7-3.7,5.2-5.6,11.1-5.6,17.8v1.9c0,6,1.5,11.4,4.6,16.3,3,4.9,7.3,8.8,12.9,11.6,5.5,2.9,12,4.3,19.4,4.3s13.1-1.3,19-4c3-1.4,5.8-3.1,8.4-5.2l5.9,6.4h21.7l-17-18.3c2.5-4,4.6-8.5,6.2-13.5h0ZM216.5,151.7c-4.5,3.1-9.6,4.7-15.4,4.7s-7.6-.7-10.5-2.2c-3-1.5-5.2-3.6-6.8-6.3-1.6-2.7-2.4-5.9-2.4-9.6s1-8.2,3-11.6c1.3-2.2,2.9-4,4.7-5.5,1.6,1.8,3.3,3.8,5.2,5.9l22.6,24.4c-.1,0-.2.2-.4.3h0Z"/>
  <path d="M345.9,149.3c-5.2,3.7-11.5,5.6-19.1,5.6s-9.7-.9-13.6-2.6c-3.9-1.8-7.2-4.2-9.9-7.4s-4.7-6.9-6-11.1-2-8.9-2-13.8.7-9.7,2-14c1.3-4.2,3.3-7.9,5.9-11.1,2.6-3.1,5.8-5.6,9.7-7.3,3.9-1.8,8.2-2.6,13.1-2.6s9.3.8,13.2,2.5c3.9,1.7,7.2,4.1,9.7,7.2,2.5,3.1,4.1,7,4.8,11.6h19.9c-.8-7.9-3.3-14.9-7.3-20.8-4.1-5.9-9.5-10.5-16.3-13.8-6.8-3.3-14.8-5-23.9-5s-16.3,1.5-22.8,4.5-11.7,7-15.8,12c-4.1,5-7.2,10.5-9.1,16.6-2,6.1-3,12.3-3,18.5v3c0,5.7,1,11.6,2.9,17.6,1.9,6,5,11.7,9.1,16.9,4.1,5.2,9.4,9.4,15.9,12.6,6.5,3.2,14.4,4.8,23.6,4.8s17.8-1.8,24.8-5.4,12.4-8.4,16.3-14.4c4-6,6.4-12.6,7.3-19.8h-19.9c-1.1,6.7-4.2,12-9.4,15.7h0Z"/>
</svg>