<?xml version="1.0" encoding="UTF-8"?>
<svg id="Layer_1" data-name="Layer 1" xmlns="http://www.w3.org/2000/svg" viewBox="0 0 775 400">
  <defs>
    <style>
      .cls-1 {
        fill: #fff;
        stroke-width: 0px;
      }
    </style>
  </defs>
  <path class="cls-1" d="M445.46,225.16c-4.42,3.2-9.87,4.8-16.34,4.8-4.42,0-8.31-.75-11.66-2.25-3.36-1.5-6.18-3.61-8.47-6.33-2.29-2.72-4.01-5.9-5.15-9.53-1.14-3.63-1.72-7.58-1.72-11.84s.57-8.33,1.72-11.96c1.14-3.63,2.82-6.79,5.03-9.47,2.21-2.68,4.97-4.77,8.29-6.27,3.31-1.5,7.06-2.25,11.25-2.25s7.95.71,11.31,2.13c3.35,1.42,6.12,3.47,8.29,6.16,2.17,2.68,3.53,6,4.09,9.95h17.05c-.71-6.79-2.8-12.71-6.28-17.76-3.48-5.05-8.13-9-13.97-11.84-5.84-2.84-12.67-4.26-20.48-4.26s-13.99,1.28-19.48,3.85c-5.49,2.57-9.99,5.98-13.5,10.24-3.51,4.26-6.12,9-7.81,14.21-1.7,5.21-2.55,10.5-2.55,15.87v2.61c0,4.9.83,9.93,2.49,15.1,1.66,5.17,4.24,9.99,7.76,14.45,3.51,4.46,8.05,8.05,13.62,10.77,5.57,2.72,12.29,4.08,20.19,4.08s15.27-1.54,21.19-4.62c5.92-3.08,10.58-7.18,13.97-12.31,3.39-5.13,5.48-10.77,6.27-16.93h-17.05c-.95,5.76-3.63,10.24-8.05,13.44Z"/>
  <polygon class="cls-1" points="226.21 198.95 311.39 108.43 284.64 89 225.4 196.66 240.93 74.72 207.87 74.72 223.22 196.65 164.12 88.87 137.37 108.3 221.45 197.91 110.29 145.46 100.07 176.9 220.77 199.98 100 222.88 110.22 254.32 221.43 202.05 137.19 291.57 163.94 311 223.18 203.34 207.64 325.28 240.71 325.28 225.36 203.36 284.46 311.13 311.2 291.7 226.1 201 225.19 200.03 225.42 199.79 226.21 198.95"/>
  <path class="cls-1" d="M555.7,215.39c1.83-5.67,2.84-12.08,3.04-19.23h-14.45c-.21,7.51-1.34,13.76-3.39,18.76-.18.44-.37.85-.56,1.27l-18.03-19.33c-3.08-3.39-5.33-6.41-6.75-9.06-1.42-2.64-2.13-5.43-2.13-8.35,0-3.39.89-6.02,2.66-7.87,1.78-1.85,5.15-2.78,10.12-2.78,1.5,0,3.41.06,5.74.18,2.33.12,4.67.3,7.05.53,2.37.24,4.34.44,5.92.59v-13.73c-2.37-.39-5.11-.71-8.23-.95-3.12-.24-6.06-.35-8.82-.35-6.95,0-12.61.95-16.99,2.84-4.38,1.89-7.6,4.6-9.65,8.11-2.05,3.51-3.08,7.75-3.08,12.73,0,3.16.45,6.08,1.36,8.76.42,1.25.99,2.53,1.67,3.84-4.02,2.33-7.38,5.37-10.08,9.13-3.19,4.46-4.79,9.53-4.79,15.21v1.66c0,5.13,1.3,9.79,3.91,13.97,2.6,4.19,6.27,7.5,11.01,9.95,4.74,2.45,10.26,3.67,16.58,3.67,5.84,0,11.25-1.15,16.22-3.43,2.58-1.19,4.99-2.66,7.23-4.42l5.09,5.48h18.59l-14.56-15.62c2.15-3.4,3.94-7.25,5.33-11.56ZM531.67,227.29c-3.87,2.68-8.25,4.02-13.14,4.02-3.48,0-6.47-.63-9-1.89-2.53-1.26-4.48-3.06-5.86-5.39-1.38-2.33-2.07-5.07-2.07-8.23,0-3.71.87-7,2.61-9.89,1.15-1.9,2.48-3.46,3.98-4.72,1.33,1.57,2.79,3.24,4.43,5.02l19.36,20.85c-.1.07-.2.15-.3.22Z"/>
  <path class="cls-1" d="M642.36,225.16c-4.42,3.2-9.87,4.8-16.34,4.8-4.42,0-8.31-.75-11.66-2.25-3.36-1.5-6.18-3.61-8.47-6.33-2.29-2.72-4.01-5.9-5.15-9.53-1.14-3.63-1.72-7.58-1.72-11.84s.57-8.33,1.72-11.96c1.14-3.63,2.82-6.79,5.03-9.47,2.21-2.68,4.97-4.77,8.29-6.27,3.31-1.5,7.06-2.25,11.25-2.25s7.95.71,11.31,2.13c3.35,1.42,6.12,3.47,8.29,6.16,2.17,2.68,3.53,6,4.09,9.95h17.05c-.71-6.79-2.8-12.71-6.27-17.76-3.48-5.05-8.13-9-13.97-11.84-5.84-2.84-12.67-4.26-20.48-4.26s-13.99,1.28-19.48,3.85c-5.49,2.57-9.99,5.98-13.5,10.24-3.51,4.26-6.12,9-7.81,14.21-1.7,5.21-2.55,10.5-2.55,15.87v2.61c0,4.9.83,9.93,2.49,15.1,1.66,5.17,4.24,9.99,7.76,14.45,3.51,4.46,8.05,8.05,13.62,10.77,5.57,2.72,12.29,4.08,20.19,4.08s15.27-1.54,21.19-4.62c5.92-3.08,10.58-7.18,13.97-12.31,3.39-5.13,5.48-10.77,6.27-16.93h-17.05c-.95,5.76-3.63,10.24-8.05,13.44Z"/>
</svg>