<?xml version="1.0" encoding="UTF-8"?>
<svg id="Layer_1" xmlns="http://www.w3.org/2000/svg" version="1.1" viewBox="0 0 700 400">
  <!-- Generator: Adobe Illustrator 29.7.1, SVG Export Plug-In . SVG Version: 2.1.1 Build 8)  -->
  <defs>
    <style>
      .st0 {
        fill: #fff;
      }
    </style>
  </defs>
  <rect class="st0" x="107.7" y="229.9" width="7.8" height="74.6"/>
  <path class="st0" d="M199.9,241c-3.3-3.5-7.4-6.3-12.3-8.3-4.9-2-10.7-3.1-17.4-3.1h-25.2v75.3h25.2c6.7,0,12.6-1.1,17.5-3.2s9-5,12.2-8.6c3.2-3.6,5.6-7.5,7.1-11.9s2.4-8.8,2.4-13.2v-1.9c0-4.5-.8-8.9-2.4-13.3-1.6-4.4-4-8.3-7.2-11.8h0ZM199.8,278.8c-1.3,3.7-3.2,6.9-5.8,9.8-2.6,2.8-5.8,5.1-9.5,6.7-3.8,1.6-8.2,2.5-13.2,2.5h-18.3v-61h18.3c5,0,9.4.8,13.1,2.2s7,3.6,9.5,6.4c2.6,2.8,4.5,6,5.9,9.7,1.3,3.7,2,7.7,2,12s-.6,8.1-1.9,11.8h0Z"/>
  <polygon class="st0" points="240.2 270 272.2 270 272.2 263.1 240.2 263.1 240.2 236.9 274.5 236.9 274.5 229.9 240.2 229.9 238.4 229.9 232.4 229.9 232.4 304.5 238.4 304.5 240.2 304.5 275.7 304.5 275.7 297.4 240.2 297.4 240.2 270"/>
  <path class="st0" d="M319.4,229.9l-27.5,74.6h7.8l8.7-23.7h36.4l9,23.7h8l-28.4-74.6h-13.9ZM310.9,273.7l13.4-36.8h3.7l14,36.8h-31.1,0Z"/>
  <polygon class="st0" points="420.5 229.9 412.7 229.9 412.7 304.5 418.5 304.5 420.5 304.5 453.5 304.5 453.5 297.4 420.5 297.4 420.5 229.9"/>
  <path class="st0" d="M494.4,229.9l-27.5,74.6h7.8l8.7-23.7h36.4l9,23.7h8l-28.4-74.6h-13.9ZM485.9,273.7l13.4-36.8h3.7l14,36.8h-31.1,0Z"/>
  <path class="st0" d="M604.5,272.8c-2-2.7-4.7-4.7-8.2-6-.5-.2-1.1-.4-1.7-.5,2.9-1.2,5.2-3,6.9-5.4,1.9-2.7,2.9-6.2,2.9-10.5v-1.2c0-6.1-1.9-10.9-5.7-14.4-3.8-3.5-9.6-5.2-17.3-5.2h-23.6v75.2h26.6c5.2,0,9.5-.8,12.9-2.5,3.4-1.6,6-4,7.7-7,1.7-3,2.5-6.5,2.5-10.6v-1.2c0-4.4-1-8-3-10.7h0ZM582.7,236.4c4.7,0,8.2,1.3,10.4,3.8s3.4,5.8,3.4,9.8-1.1,7.1-3.4,9.7c-2.2,2.5-5.7,3.8-10.4,3.8h-17.2v-27.1h17.2ZM595.9,294.1c-2.5,2.5-5.9,3.8-10.4,3.8h-19.9v-27.9h19.9c4.5,0,8,1.3,10.4,3.8,2.5,2.6,3.7,5.9,3.7,10.1s-1.2,7.6-3.7,10.2h0Z"/>
  <path class="st0" d="M152.9,165.9c-4.4,3.2-9.9,4.8-16.3,4.8s-8.3-.8-11.7-2.2c-3.4-1.5-6.2-3.6-8.5-6.3s-4-5.9-5.1-9.5c-1.1-3.6-1.7-7.6-1.7-11.8s.6-8.3,1.7-12c1.1-3.6,2.8-6.8,5-9.5s5-4.8,8.3-6.3c3.3-1.5,7.1-2.2,11.2-2.2s8,.7,11.3,2.1c3.4,1.4,6.1,3.5,8.3,6.2,2.2,2.7,3.5,6,4.1,9.9h17c-.7-6.8-2.8-12.7-6.3-17.8s-8.1-9-14-11.8c-5.8-2.8-12.7-4.3-20.5-4.3s-14,1.3-19.5,3.8c-5.5,2.6-10,6-13.5,10.2-3.5,4.3-6.1,9-7.8,14.2-1.7,5.2-2.5,10.5-2.5,15.9v2.6c0,4.9.8,9.9,2.5,15.1s4.2,10,7.8,14.4c3.5,4.5,8,8.1,13.6,10.8s12.3,4.1,20.2,4.1,15.3-1.5,21.2-4.6,10.6-7.2,14-12.3,5.5-10.8,6.3-16.9h-17c-1,5.8-3.6,10.2-8,13.4h0Z"/>
  <path class="st0" d="M263.2,156.9c1.8-5.7,2.8-12.1,3-19.2h-14.5c-.2,7.5-1.3,13.8-3.4,18.8-.2.4-.4.9-.6,1.3l-18-19.3c-3.1-3.4-5.3-6.4-6.8-9.1-1.4-2.6-2.1-5.4-2.1-8.3s.9-6,2.7-7.9c1.8-1.8,5.2-2.8,10.1-2.8s3.4,0,5.7.2,4.7.3,7,.5c2.4.2,4.3.4,5.9.6v-13.7c-2.4-.4-5.1-.7-8.2-.9s-6.1-.3-8.8-.3c-7,0-12.6.9-17,2.8s-7.6,4.6-9.6,8.1-3.1,7.8-3.1,12.7.5,6.1,1.4,8.8c.4,1.2,1,2.5,1.7,3.8-4,2.3-7.4,5.4-10.1,9.1-3.2,4.5-4.8,9.5-4.8,15.2v1.7c0,5.1,1.3,9.8,3.9,14,2.6,4.2,6.3,7.5,11,9.9,4.7,2.4,10.3,3.7,16.6,3.7s11.2-1.1,16.2-3.4c2.6-1.2,5-2.7,7.2-4.4l5.1,5.5h18.6l-14.6-15.6c2.2-3.4,3.9-7.2,5.3-11.6h0ZM239.1,168.8c-3.9,2.7-8.2,4-13.1,4s-6.5-.6-9-1.9c-2.5-1.3-4.5-3.1-5.9-5.4-1.4-2.3-2.1-5.1-2.1-8.2s.9-7,2.6-9.9c1.1-1.9,2.5-3.5,4-4.7,1.3,1.6,2.8,3.2,4.4,5l19.4,20.9c0,0-.2.1-.3.2h0Z"/>
  <path class="st0" d="M349.8,165.9c-4.4,3.2-9.9,4.8-16.3,4.8s-8.3-.8-11.7-2.2c-3.4-1.5-6.2-3.6-8.5-6.3s-4-5.9-5.2-9.5-1.7-7.6-1.7-11.8.6-8.3,1.7-12c1.1-3.6,2.8-6.8,5-9.5s5-4.8,8.3-6.3c3.3-1.5,7.1-2.2,11.2-2.2s8,.7,11.3,2.1c3.3,1.4,6.1,3.5,8.3,6.2,2.2,2.7,3.5,6,4.1,9.9h17c-.7-6.8-2.8-12.7-6.3-17.8-3.5-5.1-8.1-9-14-11.8-5.8-2.8-12.7-4.3-20.5-4.3s-14,1.3-19.5,3.8-10,6-13.5,10.2c-3.5,4.3-6.1,9-7.8,14.2-1.7,5.2-2.5,10.5-2.5,15.9v2.6c0,4.9.8,9.9,2.5,15.1s4.2,10,7.8,14.4c3.5,4.5,8,8.1,13.6,10.8s12.3,4.1,20.2,4.1,15.3-1.5,21.2-4.6,10.6-7.2,14-12.3c3.4-5.1,5.5-10.8,6.3-16.9h-17c-1,5.8-3.6,10.2-8,13.4h0Z"/>
</svg>