<?xml version="1.0" encoding="UTF-8"?>
<svg id="Layer_1" xmlns="http://www.w3.org/2000/svg" version="1.1" viewBox="0 0 1165.7 327.9">
  <!-- Generator: Adobe Illustrator 29.5.0, SVG Export Plug-In . SVG Version: 2.1.0 Build 137)  -->
  <defs>
    <style>
      .st0 {
        fill: #262626;
      }
    </style>
  </defs>
  <g>
    <path class="st0" d="M420,206.2h-48.4l-12,33.4h-35.9l55.8-154.5h32.7l55.8,154.5h-35.9l-12-33.4ZM395.7,130.2l-16.2,49.8h32.7l-16.4-49.8Z"/>
    <path class="st0" d="M561.6,117.9c0-25.2,16.7-34.3,40.8-34.3s6.5.2,10.9.9v22.7c-3.9-.5-8.1-1.2-10.9-1.2-5.1,0-8.8,3.7-8.8,13.4v6h21.8v22.9h-21.8v91h-32v-91h-41v91h-32v-91h-13.2v-22.9h13.2v-7.6c0-25.2,16.7-34.3,40.8-34.3s6.5.2,10.9.9v22.7c-3.9-.5-8.1-1.2-10.9-1.2-5.1,0-8.8,3.7-8.8,13.4v6h41v-7.6h0ZM648.2,77.4c9,0,15.5,6.5,15.5,15.3s-6.5,15.3-15.5,15.3-15.3-6.5-15.3-15.3c0-8.8,6.5-15.3,15.3-15.3ZM664.6,239.5v-114h-31.7v114h31.7Z"/>
    <path class="st0" d="M725.8,135.8c7.6-7.4,18.1-12.3,27.6-12.3,36.6,0,59.1,25.9,59.1,59.1v57h-32v-57c0-19.2-9.7-34.3-27.1-34.3s-20.1,5.1-27.6,15.7v75.5h-31.7v-114h31.7v10.2Z"/>
    <path class="st0" d="M852.6,77.4c9,0,15.5,6.5,15.5,15.3s-6.5,15.3-15.5,15.3-15.3-6.5-15.3-15.3,6.5-15.3,15.3-15.3ZM869,239.5v-114h-31.7v114h31.7Z"/>
    <path class="st0" d="M898.9,85.5h32v40.1h21.8v22.9h-21.8v56.5c0,10,3.7,13.7,8.8,13.7s6.9-.5,10.9-1.2v22.9c-5.1.5-9.5.7-14.6.7-22,0-37.1-9.5-37.1-36.1v-56.5h-13.2v-22.9h13.2v-40.1Z"/>
    <path class="st0" d="M1020.1,195.8l27.1-70.2h34.5l-39.9,101.2-2.8,8.3c-7,19.7-24.3,50.3-56.5,49.6-2.6,0-6.5-.2-10.7-.9v-28c3.9.7,7.6.9,10,.9,11.8,0,21.1-10.4,22.7-21.1l-45.6-110h34.3l26.9,70.2Z"/>
  </g>
  <path class="st0" d="M199.2,262.5c-45,0-81.6-36.6-81.6-81.6s36.6-81.6,81.6-81.6,81.6,36.6,81.6,81.6-36.6,81.6-81.6,81.6ZM199.2,113.3c-37.3,0-67.6,30.3-67.6,67.6s30.3,67.6,67.6,67.6,67.6-30.3,67.6-67.6-30.3-67.6-67.6-67.6Z"/>
  <path class="st0" d="M126.5,202.4c-23.5,0-42.5-19.1-42.5-42.5s19.1-42.5,42.5-42.5,42.5,19.1,42.5,42.5-19.1,42.5-42.5,42.5ZM126.5,131.4c-15.7,0-28.5,12.8-28.5,28.5s12.8,28.5,28.5,28.5,28.5-12.8,28.5-28.5-12.8-28.5-28.5-28.5Z"/>
  <path class="st0" d="M247.2,265.4c-33.4,0-60.5-27.2-60.5-60.5s27.2-60.5,60.5-60.5,60.5,27.2,60.5,60.5-27.2,60.5-60.5,60.5ZM247.2,158.3c-25.7,0-46.5,20.9-46.5,46.5s20.9,46.5,46.5,46.5,46.5-20.9,46.5-46.5-20.9-46.5-46.5-46.5Z"/>
  <path class="st0" d="M275,115.3c-16.2,0-29.5-13.2-29.5-29.5s13.2-29.5,29.5-29.5,29.5,13.2,29.5,29.5-13.2,29.5-29.5,29.5ZM275,70.4c-8.5,0-15.4,6.9-15.4,15.4s6.9,15.4,15.4,15.4,15.4-6.9,15.4-15.4-6.9-15.4-15.4-15.4Z"/>
</svg>