<?xml version="1.0" encoding="UTF-8"?>
<svg id="Layer_1" xmlns="http://www.w3.org/2000/svg" version="1.1" viewBox="0 0 1000 327.9">
  <!-- Generator: Adobe Illustrator 29.7.1, SVG Export Plug-In . SVG Version: 2.1.1 Build 8)  -->
  <defs>
    <style>
      .st0 {
        fill: #262626;
      }
    </style>
  </defs>
  <path class="st0" d="M245.23,90.56h25.84c5.32-.23,10.64.49,15.71,2.14,3.27,1.27,6.08,3.5,8.05,6.41,2.05,3.15,3.5,6.66,4.27,10.34,1.17,6.14,1.66,12.39,1.46,18.64v11.68c.16,6.28-.79,12.54-2.81,18.48-1.44,3.64-3.85,6.81-6.98,9.15-3.88,2.4-8.41,3.53-12.96,3.23h-6.89v53.99h-25.68V90.4v.15ZM270.91,147.63h1.92c2.1.09,4.12-.78,5.49-2.38,1.62-3.03,2.3-6.47,1.95-9.88v-11.01c0-4.58-.73-7.53-2.2-8.88-2.01-1.6-4.57-2.36-7.14-2.1v34.13l-.03.12Z"/>
  <path class="st0" d="M371.72,169.07c0,13.51-.24,23.03-.73,28.64-.37,5.34-1.87,10.53-4.39,15.25-4.64,9.23-14.26,14.88-24.58,14.43-10.15.36-19.63-5.09-24.4-14.06-2.55-4.72-4.11-9.91-4.58-15.25-.49-5.58-.7-15.25-.7-29.01v-22.94c0-13.52.22-23.05.67-28.58.42-5.38,1.92-10.61,4.39-15.4,7.67-13.61,24.91-18.42,38.51-10.76,4.39,2.47,8.03,6.07,10.56,10.42,2.56,4.72,4.11,9.91,4.58,15.25.52,5.55.73,15.25.73,29.01v22.94l-.06.06ZM347.32,140.18c0-16.32-.43-25.35-1.34-27.09-.6-1.55-2.06-2.59-3.72-2.65-1.54.11-2.94.93-3.78,2.23-1.16,1.4-1.74,10.55-1.74,27.45v36.6c0,15.17.45,23.62,1.34,25.35.67,1.6,2.23,2.64,3.97,2.65,1.83-.04,3.42-1.28,3.9-3.05.92-2.07,1.34-10.77,1.34-25.99v-35.53l.03.03Z"/>
  <polygon class="st0" points="447.49 90.53 432.76 151.07 448.89 224.64 422.36 224.64 411.89 175.02 411.96 224.64 386.27 224.64 386.27 90.53 411.96 90.53 411.89 136.77 423.36 90.53 447.49 90.53"/>
  <polygon class="st0" points="463.32 90.53 508.65 90.46 508.74 117.4 489.03 117.4 489.03 142.81 503.13 142.9 503.13 168.31 489.03 168.31 489.03 197.83 509.1 197.71 509.1 224.55 463.32 224.64 463.32 90.53"/>
  <path class="st0" d="M537.32,90.53h25.62c6.21-.3,12.42.57,18.3,2.59,4.57,2.08,8.2,5.8,10.16,10.43,2.56,5.22,3.84,13.57,3.84,25.19,0,7.85-.92,13.3-2.75,16.35-2.54,3.63-6.35,6.18-10.68,7.14,5.18,1.18,9.61,4.51,12.2,9.15,2.44,6.15,3.48,12.77,3.05,19.37v12.44c.28,6.79-.49,13.58-2.29,20.13-1.07,3.85-3.7,7.09-7.26,8.91-3.36,1.61-10.2,2.42-20.53,2.44h-29.71V90.46l.03.06ZM563,143.32c.85-.05,1.71-.05,2.56,0,3.72,0,6.1-.79,6.65-2.47.96-4.77,1.32-9.63,1.07-14.49.27-3.04-.35-6.09-1.77-8.78-.72-1.33-1.77-2.44-3.05-3.23-1.71-.55-3.51-.8-5.31-.73v29.83l-.15-.12ZM563,201.71c2.78.11,5.52-.71,7.78-2.35,1.68-1.37,2.47-4.79,2.47-10.19v-12.51c0-5.73-.76-9.15-2.29-10.46-2.4-1.46-5.18-2.17-7.99-2.04v37.52l.03.03Z"/>
  <path class="st0" d="M679.79,90.56h18.3c12.2,0,20.31.76,24.65,2.23,4.59,1.71,8.33,5.13,10.43,9.55,2.59,4.88,4,13.18,4.06,24.86,0,9.15-.98,15.74-2.87,19.61-1.79,3.77-4.89,6.77-8.72,8.42,5.03,1.74,8.08,3.9,8.97,6.65.85,2.49,1.52,5.04,1.98,7.63.6,6.58.81,13.19.64,19.8v35.35h-22.45v-44.56c.1-4.25-.68-8.48-2.29-12.41-1.62-2.2-4.19-3.49-6.92-3.48v60.46h-25.77V90.43v.12ZM705.48,143.32c2.36.13,4.71-.41,6.77-1.56,1.62-1.1,2.44-4.64,2.44-10.52v-7.38c.39-2.99-.47-6-2.38-8.33-1.97-1.46-4.39-2.17-6.83-2.01v29.86-.06Z"/>
  <polygon class="st0" points="485.92 80 469.36 80 476.13 49.99 505.17 49.99 485.92 80"/>
  <g>
    <path class="st0" d="M741.99,264.75v-9.15c-.02-7.62-6.2-13.79-13.82-13.79h-175.05c-7.63-.02-13.83,6.16-13.85,13.79v9.15h0c0,7.65,6.2,13.85,13.85,13.85h175.11c7.63-.02,13.8-6.22,13.79-13.85h-.03ZM598.75,263.2c-.4,1.15-1.06,2.19-1.92,3.05-.73.79-1.66,1.38-2.68,1.71-1.64.42-3.34.59-5.03.52h-4.24v-19.37h-.03l.03-.09v.09h4.18c2.09-.14,4.18.22,6.1,1.04,1.32.82,2.38,2.01,3.05,3.42.88,1.71,1.32,3.6,1.28,5.52.02,1.41-.23,2.8-.73,4.12ZM606.04,268.57h-3.42v-14.4h.03s3.39,0,3.39,0v14.4ZM605.92,252.25l-1.56.67-1.56-.67-.64-1.71.64-1.62,1.56-.67h0l1.52.7.64,1.65-.61,1.65ZM616.02,265.64c.19.01.38.01.57,0,1.38.07,2.71-.54,3.54-1.65l2.74,1.95c-1.4,1.97-3.68,3.12-6.1,3.05-2.12.13-4.19-.68-5.64-2.23-1.33-1.42-2.07-3.3-2.04-5.25,0-1.34.33-2.67.98-3.84.59-1.19,1.5-2.19,2.62-2.9,1.23-.66,2.6-1,4-.98,1.27-.03,2.53.26,3.66.82,1.07.56,1.97,1.39,2.62,2.41l.06.03-2.87,1.68-1.56-1.22-1.86-.34c-2.27-.1-4.2,1.65-4.3,3.93,0,.12,0,.25,0,.37-.16,2.13,1.44,3.99,3.58,4.15ZM640.33,262.37v.06h-11.01c.12.94.57,1.81,1.28,2.44.73.61,1.67.93,2.62.88,1.25,0,2.44-.52,3.29-1.43l2.9,1.43c-.65.99-1.53,1.8-2.56,2.38-1.13.52-2.36.77-3.6.73-1.96.08-3.86-.68-5.22-2.1-1.37-1.44-2.12-3.38-2.07-5.37-.06-2.02.66-3.99,2.01-5.49,1.31-1.4,3.15-2.18,5.06-2.14,1.98-.08,3.91.7,5.28,2.14,1.39,1.59,2.11,3.66,2.01,5.76v.7ZM657.68,268.51l-1.22-1.34c-1.6,1.1-3.49,1.72-5.43,1.8-1.27.05-2.51-.42-3.42-1.31-.88-.89-1.36-2.1-1.31-3.36-.03-1.07.24-2.12.76-3.05.65-1.1,1.51-2.07,2.53-2.84-1.04-1.27-1.66-2.82-1.8-4.45.05-1.06.47-2.06,1.19-2.84.83-.95,2.06-1.47,3.32-1.4,1.26-.09,2.49.42,3.32,1.37.71.75,1.12,1.74,1.16,2.78l-.52,2.14c-.7,1.11-1.53,2.14-2.47,3.05,1.52,1.83,2.47,3.05,3.05,3.45.28-.2.89-.75,1.83-1.58l-.03-.04.24-.15c-.08.07-.14.12-.21.19l2.07,2.46-.95.88-.92.92,3.05,3.32h-4.27ZM683.52,268.6l-1.98-12.29-3.87,12.29h-3.08l-3.9-12.29-2.07,12.29h-3.39l3.17-19.49h3.42l4.3,13.57,4.33-13.57h3.39l3.11,19.49h-3.42ZM692.91,268.57h-3.42v-14.4h3.42v14.4ZM692.76,252.25l-1.52.67-1.56-.67-.64-1.71.64-1.62,1.52-.67h0l1.56.7.67,1.65-.67,1.65ZM705.2,268.6l-3.23-4.76-3.23,4.76h-3.9l5.19-7.6-4.7-6.83h3.97l2.71,3.9,2.68-3.9h3.9l-4.61,6.77,5.22,7.66h-4Z"/>
    <path class="st0" d="M633.25,256.85c-.91,0-1.79.29-2.5.85-.57.52-1,1.17-1.28,1.89h7.44l-1.34-1.98c-.67-.51-1.48-.77-2.32-.76Z"/>
    <path class="st0" d="M651.58,261.12c-.98.67-1.65,1.7-1.86,2.87l.52,1.04,1.28.46c1.01-.09,1.98-.45,2.81-1.04h0c-.97-1.06-1.89-2.17-2.75-3.32Z"/>
    <path class="st0" d="M589.54,252.61h-1.25l.06.06v12.2h1.62c1.19.07,2.38-.13,3.48-.58.78-.46,1.4-1.14,1.8-1.95.49-1.06.73-2.22.7-3.39.12-1.76-.48-3.5-1.65-4.82-1.31-1.13-3.03-1.69-4.76-1.53Z"/>
    <path class="st0" d="M652.25,256.4c.75-.51,1.26-1.3,1.4-2.2l-.31-.82-1.01-.12-.82.37-.34.85.91,2.14.15-.21Z"/>
  </g>
  <path class="st0" d="M706.12,52.7h-9.61v-3.45h23.36v3.45h-9.58v28.21h-4.12v-28.06l-.06-.15Z"/>
  <path class="st0" d="M749.95,66.92c-.21-4.42-.52-9.7-.46-13.6h0c-1.1,3.66-2.41,7.63-4,11.96l-5.55,15.25h-3.05l-5.25-14.85c-1.49-4.45-2.78-8.51-3.66-12.2h0c0,3.9-.31,9.15-.61,13.91l-.95,13.54h-3.93l2.2-31.54h5.19l5.4,15.25c1.31,3.87,2.38,7.35,3.05,10.61h.15c.79-3.05,1.92-6.65,3.32-10.61l5.61-15.25h5.19l2.17,31.54h-3.97l-.85-14Z"/>
  <path class="st0" d="M652.86,90.62h-31.02l-16.38,133.84,25.35.18,1.53-24.1h11.53l1.28,24.1h25.29l-17.57-134.03ZM638.92,175.32l.22,9.37h-1.31l.19-9.3-10.1,1.37,1.37-2.62c.14-.21.09-.49-.12-.64-.02-.01-.04-.03-.06-.04l-8.88-6.74,2.81-.82c.32-.09.51-.43.42-.75-.01-.05-.03-.09-.05-.13l-1.56-4.54,4.76,1.65c.2.08.43-.03.51-.23.03-.08.03-.17,0-.26l-.15-3.63,6.1,6.5c.37,0,.24-.24.24-.24l-2.32-12.6,4.27,2.07c.3.15.67.03.82-.27.04-.09.07-.18.07-.28l1.86-6.56,2.04,6.62c.24.91.79.55.79.55l4.3-2.17-2.35,12.66c0,.43.34,0,.34,0l5.95-6.53v3.81c0,.67.64.34.64.34l4.54-1.62-1.56,4.91c-.11.21-.04.47.17.58.02.01.05.02.07.03l3.05.85-8.94,6.95c-.11.14-.11.34,0,.49l1.4,2.53-9.55-1.32Z"/>
</svg>