<?xml version="1.0" encoding="UTF-8"?>
<svg id="Layer_1" xmlns="http://www.w3.org/2000/svg" version="1.1" viewBox="0 0 1000 327.9">
  <!-- Generator: Adobe Illustrator 29.7.1, SVG Export Plug-In . SVG Version: 2.1.1 Build 8)  -->
  <defs>
    <style>
      .st0 {
        fill: #262626;
      }
    </style>
  </defs>
  <path class="st0" d="M832.88,135.03c.12.8-1.11.5-1.63.46-18.12-1.43-46.47-24.28-63.25-33.34-12.37-6.68-24.72-11.1-35.27,1.48-3.51,4.19-7.13,13.03-13.6,13.16-8.7.18-9.04-14.78-10.32-20.66-.12-.54-.06-1.75-.93-1.39-2.13,2.23-4.47,4.29-6.58,6.55-3.3,3.52-11.57,14.59-15.37,16.04-5.89,2.25-6.76-7.13-10.32-6.13-1.08.3-12.29,12.32-14.4,14.23-15.45,13.98-36.82,27.79-58.64,24.12l18.3-8.18c27.87-11.65,44.24-37.65,65.91-55.98,10.31-8.72,18.73-9.94,31.65-6.34,4.9,1.37,13.76,6.2,17.72,6.71,1.69.22,7.01-1.9,10.21-1.82,19.56.49,46.8,26.83,62.66,38.16,7.35,5.25,14.93,10.76,23.87,12.94Z"/>
  <polygon class="st0" points="550.04 180.48 550.04 209.06 578.19 209.06 578.19 181.18 578.89 180.48 593.2 180.48 593.2 249.82 578.19 249.82 578.19 220.77 550.04 220.77 550.04 249.82 535.03 249.82 535.03 181.18 535.74 180.48 550.04 180.48"/>
  <path class="st0" d="M204.35,227.8h17.82c-9.61,30.21-55.02,29.92-66.02.59-12.32-32.83,22.48-61.43,52.27-43.77,4.84,2.87,12.55,10.82,13.57,16.46.1.57.03,1.42-.52,1.42h-16.42c-4.6-8.05-12.36-10.67-21.28-8.6-18.27,4.24-20.08,33.86-3.2,41.01,8.52,3.61,20,2.13,23.77-7.11Z"/>
  <path class="st0" d="M494.69,249.82h-10.08l-4.22-4.14c-2.57,2.19-5.77,3.33-9.06,4-12.68,2.58-30.98,1.02-31.53-15.58-.35-10.57,9.12-17.08,19-17.08h20.87c1.72-9.15-6.33-11.28-13.8-10.27-4.07.55-5.75,3.25-7.55,6.52h-15.71c3.57-17.71,22.02-22.96,37.77-17.82,6,1.96,14.29,8.3,14.29,15.24v39.12ZM479.68,227.33h-19c-2.29,0-5.1,1.48-5.4,3.97-.92,7.61,8.07,7.23,13.39,6.82,6.26-.47,12.61-3.54,11-10.8Z"/>
  <path class="st0" d="M716.56,249.82h-10.08l-4.22-4.14c-3.16,2.64-7.36,3.86-11.39,4.48-11.59,1.79-27.57-.15-28.71-14.64-1.65-21.07,25.46-18.44,39.39-18.5,2.51-12.81-17.9-13.62-21.81-3.75h-15.24c3.35-19.86,28.68-24.55,43.77-14.91,3.65,2.33,8.29,7.85,8.29,12.33v39.12ZM686.91,227.47c-4.45.41-10.94,1.39-9.08,7.38,1.6,5.15,15.47,3.36,19.34,1.46,3.44-1.68,6-5.39,3.6-8.92-4.6.04-9.28-.35-13.87.07Z"/>
  <path class="st0" d="M340.38,249.82h-9.62c-.43,0-3.13-3.78-4.25-3.77-4.15,2.19-7.52,3.53-12.23,4.18-10.26,1.41-25.99-.12-27.73-12.95-3.09-22.83,23.65-20.13,38.81-20.26.03-4.14.82-6.92-3.44-8.99-5.61-2.72-15.83-1.84-17.67,5.24h-15.95c4.29-19.28,27.2-24.48,43-15.54,3.16,1.79,9.07,7.31,9.07,11.09v41ZM325.37,227.33c-6,.23-12.35-.6-18.22.78-2.95.69-6.12,1.75-5.61,5.43.72,5.24,8.3,4.89,12.35,4.59,6.42-.46,13.07-3.17,11.48-10.8Z"/>
  <path class="st0" d="M807.55,200.62c3.16-3.05,6.28-5.5,10.76-6.35,10.51-1.99,20.75,1.92,24.97,12.12.44,1.07,1.79,4.83,1.79,5.71v37.72h-14.54v-32.09c0-.97-1.08-4.4-1.62-5.41-3.68-6.84-15.47-7.35-19.58-.77-.43.69-1.79,3.72-1.79,4.31v33.97h-15.01v-69.34h14.31l.7.7v19.44Z"/>
  <path class="st0" d="M617.12,227.33c.11,9.73,13.5,13.84,20,7.33.68-.68,1.42-2.64,1.58-2.64h16.42c-7.35,24.9-45.53,25.09-52.3-.47-5.8-21.93,8.06-40.76,31.37-37.42,10.01,1.44,22.34,11.47,22.34,22.2v10.31l-.7.7h-38.7ZM641.04,217.02c-1.58-13.76-22.21-13.89-23.92,0h23.92Z"/>
  <path class="st0" d="M253.05,193.7c36.02-.55,39.66,50.92,5.81,56.45-41.59,6.8-45.83-55.84-5.81-56.45ZM251.14,206.84c-15.51,2.27-14.85,33.08,4.52,30.75,12.82-1.54,14.98-22.08,5.42-28.73-2.86-1.99-6.53-2.51-9.93-2.02Z"/>
  <path class="st0" d="M395.25,212.34h-15.48c1.34-8.91-16.53-8.48-15.28-.91.36,2.18,2.68,3.18,4.5,3.94,8.18,3.42,22.49,2.47,25.93,12.99,8.01,24.49-38.28,31.2-44.31,8.18-.4-1.52-.25-3.07-.87-4.52h15.48c-.5,10.55,20.84,7.08,15.01-1.17-2.6-3.68-15.16-4.81-19.81-6.45-15.7-5.53-12.43-24.42,2-29.14,13.35-4.36,32.56.29,32.81,17.08Z"/>
  <path class="st0" d="M208.1,131.75c1.17-7.38,6.55-13.15,13.72-15.11,8.58-2.36,22.46-.69,27.11,7.83.49.91,1.86,3.91,1.86,4.7v31.86l-.7.7h-7.5c-.42,0-2.65-3.31-3.67-3.21-8.47,5.81-30.27,6.16-32.47-6.6-3.35-19.43,19.57-16.75,32.16-17.36,1.54-10.35-14.73-10.96-18.06-2.81h-12.43ZM237.89,143.46h-13.6c-.65,0-4.57,1.56-4.95,2.2-1.02,1.72-.57,4.7,1.3,5.66,2.43,1.25,11.19.75,13.84-.49,2.79-1.31,5.64-4.42,3.41-7.37Z"/>
  <path class="st0" d="M550.98,143.46h-31.9c.31,7.7,10.61,10.81,15.96,5.87.53-.49,1.75-2.59,2.09-2.59h12.2c1.02.53.06,2.49-.34,3.41-5.37,12.51-23.98,15.91-34.36,7.82-14.84-11.57-10-39.96,10.37-42.1,17.56-1.84,28.85,10.3,25.97,27.59ZM538.32,134.56c-1.23-10.86-17.62-10.83-19.23,0h19.23Z"/>
  <path class="st0" d="M422.46,194.53h11.49l.7.7v10.78c0,.15-.62.71-.47,1.17h-11.73v27.41c0,1.08,2.54,2.58,3.52,2.58h8.68v12.65h-12.9c-6.54,0-14.31-6.58-14.31-13.35v-29.28l-5.68-.27-.21-11.94,5.89-.44v-14.06h14.31l.7.7v13.35Z"/>
  <path class="st0" d="M772.37,180.48v14.06h12.2v11.95l-.7.7h-11.49c.7,8.2-.96,17.95.04,25.96.23,1.88,1.35,4.02,3.48,4.02h8.68v12.65h-12.9c-.52,0-4.4-1.11-5.18-1.39-7.38-2.68-8.74-9.07-9.15-16.16-.48-8.19.39-16.85.02-25.09-.39-.4-4.9.74-5.63-.7v-11.95h5.63v-14.06h15.01Z"/>
  <polygon class="st0" points="166.59 105.04 181.37 147.21 196.38 105.04 209.51 105.04 188.19 161.77 174.39 161.67 153.69 105.04 166.59 105.04"/>
  <path class="st0" d="M377.79,115.94c37.01-4.63,36.84,49.77.82,46.26-26.08-2.54-26.58-43.04-.82-46.26ZM379.18,126.7c-10.83,2.19-10.79,24.51,2.36,25.07,15.81.67,15.5-28.69-2.36-25.07Z"/>
  <path class="st0" d="M303.32,161.73h-12.2v-27.41c0-.2-.8-2.32-.99-2.76-2.67-6.05-11.77-6.77-15.63-1.66-.26.34-1.67,2.84-1.67,3.02v28.11l-.7.7h-11.96v-45.45h8.21c.41,0,2.65,3.29,3.74,3.27,9.89-6.19,24.79-5.68,29.73,6.39.27.66,1.47,4.27,1.47,4.62v31.16Z"/>
  <path class="st0" d="M422.93,116.29v26.94c0,.33,1.19,3.65,1.48,4.15,3.18,5.5,12.62,5.51,15.81,0,.29-.5,1.48-3.82,1.48-4.15v-26.94h12.2v45.45h-7.74c-1.04,0-3.04-3.24-4.21-3.27-8.64,5.48-21.4,5.75-27.84-3.13-1.29-1.78-3.36-6.76-3.36-8.82v-30.22h12.2Z"/>
  <path class="st0" d="M824.31,156.71c-1.16-.98-7.86-2.76-9.72-3.18-20.65-4.73-45.87-1.64-66.78,1.24-29.1,4.01-57.58,11.16-86.14,17.73l8.2-3.28c43.74-14.92,89.84-26.66,136.48-24.8,11.28.45,37.71.96,39.92,15.89,1.52,10.26-11.53,6.57-16.64,2.56-2.28-1.79-3.93-4.97-5.33-6.15Z"/>
  <path class="st0" d="M353.98,131.75h-13.6c-1.08-4.54-5.4-5.61-9.62-5.15-10.4,1.13-10.81,20.96-1.98,24.47,4.33,1.72,10.48.22,11.59-4.79h13.6c-4.38,20.01-34.68,21.76-42.1,2.93-4.02-10.19-1.85-23.74,7.8-29.93,12.18-7.82,31.47-2.92,34.3,12.48Z"/>
  <polygon class="st0" points="470.54 116.29 482.26 148.62 493.05 116.29 505.95 116.29 488.85 161.77 474.28 161.28 457.64 116.29 470.54 116.29"/>
  <polygon class="st0" points="521.43 249.82 506.42 249.82 506.42 180.48 520.73 180.48 521.43 181.18 521.43 249.82"/>
  <rect class="st0" x="728.28" y="180.48" width="14.54" height="69.34"/>
  <path class="st0" d="M584.28,115.82v11.95c-1.86,1.41-4.77.42-7.16.81-1.94.32-4.73,1.96-5.6,3.77-.3.62-1.31,4.71-1.31,5.25v24.13h-12.2v-45.45h8.21c.41,0,2.65,3.29,3.74,3.27,4.46-2.58,9.03-4.29,14.32-3.74Z"/>
</svg>