<?xml version="1.0" encoding="UTF-8"?>
<svg id="Layer_1" xmlns="http://www.w3.org/2000/svg" version="1.1" viewBox="0 0 1000 327.9">
  <!-- Generator: Adobe Illustrator 29.7.1, SVG Export Plug-In . SVG Version: 2.1.1 Build 8)  -->
  <defs>
    <style>
      .st0 {
        fill: #262626;
      }
    </style>
  </defs>
  <path class="st0" d="M258.61,182.37c-6.97,4.17-17.04,8.48-36.38,8.48-31.35,0-52.91-24.37-52.91-53.42s21.5-53.64,52.91-53.64c20.71,0,30.34,5.11,34.8,7.69l-5.1,12.37c-3.38-1.51-12.08-6.33-28.33-6.33-18.4,0-35.3,16.68-35.3,39.83s17.18,39.69,36.16,39.69c16.1,0,23.37-4.03,28.33-6.47l5.75,11.72.07.07Z"/>
  <path class="st0" d="M340.15,154.84c0,21.78-16.25,35.52-37.17,35.52s-36.95-13.73-36.95-35.52,16.25-35.52,36.95-35.52,37.17,13.73,37.17,35.52M283.78,154.84c0,14.02,7.62,24.59,19.2,24.59,10.71,0,19.05-10.5,19.05-24.59s-8.34-24.59-19.05-24.59c-12.51,0-19.2,10.35-19.2,24.59"/>
  <path class="st0" d="M469.34,120.83v44.93c0,6.76,2.3,11.72,10.21,11.72s13.59-4.46,16.54-6.61v-50.04h16.54v67.94h-15.82l-.43-7.12c-3.09,2.52-11.15,8.63-24.02,8.63s-19.84-8.2-19.84-20.85v-48.6h16.82Z"/>
  <path class="st0" d="M589.4,93.01h-9.92l-6.04,27.97h-12.22v9.99h12.22v40.12c0,13.01,7.62,19.34,20.27,19.34h.07c9.42,0,13.95-.72,18.26-1.51l-1.08-9.27c-1.47.18-3.34.34-5.38.34s-4.25-.16-6.41-.63c-6.61-1.22-9.13-4.31-9.13-12.37v-36.02h18.12v-9.99h-18.12l-.65-27.97Z"/>
  <polygon class="st0" points="641.81 79.64 625.06 81.79 625.06 188.85 641.81 188.85 641.81 79.64"/>
  <path class="st0" d="M677.9,190.36c-13.01,0-21.07-7.62-21.07-18.84s9.28-21.93,26.46-22.86l14.38-.65v-5.75c0-6.04-2.01-12.08-12.51-12.08-9.28,0-15.82,3.09-19.05,4.46l-3.88-8.84c4.17-2.01,13.73-6.61,27.89-6.61,15.68,0,23.94,8.2,23.94,20.13v38.75c.15,3.59,1.44,8.63,2.52,10.64h-17.33c-.93-1.87-1.51-4.46-1.36-6.04-3.6,2.59-10.21,7.55-19.99,7.55v.14ZM697.75,157.64l-9.56.79c-8.99.79-15.89,4.03-15.89,11.43,0,6.76,5.53,9.13,11.43,9.13s11-3.74,14.09-5.9v-15.46h-.07Z"/>
  <path class="st0" d="M830.68,188.85h-16.53v-44.93c0-6.76-2.59-11.86-10.07-11.86-6.04,0-11.43,4.17-14.38,6.33v50.47h-16.46v-44.93c0-6.76-2.16-11.86-9.92-11.86-5.75,0-11.43,4.31-14.38,6.47v50.33h-16.54v-67.94h15.6l.65,7.26c3.24-2.95,11-8.77,21.21-8.77,9.27,0,14.23,3.24,17.68,9.13,3.38-3.23,11.14-9.13,22.86-9.13,13.59,0,20.27,8.77,20.27,20.56v48.96-.07Z"/>
  <rect class="st0" x="532.1" y="120.83" width="16.54" height="67.94"/>
  <path class="st0" d="M540.3,106.89c5.25,0,9.42-4.17,9.42-9.42s-4.17-9.42-9.42-9.42-9.42,4.24-9.42,9.42,4.17,9.42,9.42,9.42"/>
  <path class="st0" d="M395.36,124.71c15.6,0,29.26,13.16,29.26,30.13s-15.24,30.34-29.26,30.34-28.62-13.3-28.62-30.34,13.02-30.13,28.62-30.13M388.53,197.37v17.15c4.67-2.16,10.07-2.52,13.88-2.16v-15.02c21.8-2.82,37.89-18.69,37.89-42.5,0-26.39-19.91-43-44.93-43s-44.72,16.61-44.72,43c0,23.95,16.01,39.79,37.89,42.53"/>
  <path class="st0" d="M513.12,225.01v.14c-7.77,3.95-27.18,11.94-49.54,9.42-9.85-1.15-20.56-4.96-26.02-7.62-5.46-2.59-16.03-7.41-25.95-8.56-25.59-2.95-47.02,10.35-54.5,15.74l3.38,6.98c7.83-3.95,27.17-11.94,49.61-9.42,9.85,1.15,21.14,5.9,25.67,7.98,4.53,2.09,16.46,6.97,26.32,8.12,25.59,2.95,46.95-10.35,54.43-15.82l-3.38-6.97Z"/>
</svg>