<?xml version="1.0" encoding="UTF-8"?>
<svg id="Layer_1" xmlns="http://www.w3.org/2000/svg" version="1.1" viewBox="0 0 1000 327.9">
  <!-- Generator: Adobe Illustrator 29.7.1, SVG Export Plug-In . SVG Version: 2.1.1 Build 8)  -->
  <defs>
    <style>
      .st0 {
        fill: #262626;
      }
    </style>
  </defs>
  <g>
    <path class="st0" d="M311.61,225.03h9.82v2.16h-11.98v-22.38h2.16v20.22Z"/>
    <path class="st0" d="M330.06,226.99h-2.16v-22.19h2.16v22.19Z"/>
    <path class="st0" d="M359.91,216c0,1.77-.2,3.34-.79,4.71-.59,1.37-1.37,2.75-2.36,3.73s-2.16,1.77-3.53,2.36-2.75.79-4.32.79-2.95-.2-4.32-.79c-1.37-.59-2.55-1.37-3.53-2.36s-1.77-2.36-2.36-3.73c-.59-1.37-.79-2.95-.79-4.71s.2-3.34.79-4.71c.59-1.37,1.37-2.75,2.36-3.73s2.16-1.77,3.53-2.36c1.37-.59,2.75-.79,4.32-.79s2.95.39,4.32.79c1.37.59,2.55,1.37,3.53,2.36s1.77,2.36,2.36,3.73c.59,1.37.79,2.95.79,4.71ZM357.55,216c0-1.37-.2-2.55-.59-3.73s-.98-2.16-1.77-3.14c-.79-.79-1.57-1.57-2.75-2.16-.98-.59-2.36-.79-3.73-.79s-2.55.2-3.73.79c-.98.59-1.96,1.18-2.75,2.16-.79.79-1.37,1.96-1.77,3.14s-.59,2.36-.59,3.73.2,2.55.59,3.73.98,2.16,1.77,3.14c.79.79,1.57,1.57,2.75,2.16.98.59,2.36.79,3.73.79s2.55-.2,3.73-.79c.98-.59,1.96-1.18,2.75-2.16.79-.79,1.37-1.96,1.77-3.14.39-1.37.59-2.55.59-3.73Z"/>
    <path class="st0" d="M382.49,223.65h0v-18.85h2.16v22.19h-2.75l-12.57-19.05h0v19.05h-2.16v-22.19h2.75l12.57,18.85Z"/>
    <path class="st0" d="M404.08,208.53c-.98-1.37-2.36-2.16-4.12-2.16-.59,0-1.18,0-1.57.2s-.98.39-1.37.79c-.39.39-.79.79-.98,1.18s-.39,1.18-.39,1.77c0,.98.2,1.77.79,2.36.59.59,1.18.98,1.96,1.37s1.57.59,2.55.98,1.77.59,2.55,1.18,1.37,1.18,1.96,1.96.79,1.77.79,3.14c0,.98-.2,1.96-.59,2.75-.39.79-.98,1.57-1.57,1.96-.59.59-1.37.98-2.16,1.18s-1.57.39-2.55.39c-1.37,0-2.55-.2-3.73-.79-1.18-.59-2.16-1.37-2.95-2.55l1.96-1.57c.39.79,1.18,1.37,1.96,1.96s1.77.79,2.95.79c.59,0,.98,0,1.57-.2s.98-.39,1.37-.79.79-.79.98-1.18c.2-.59.39-.98.39-1.77s-.2-1.37-.39-1.96c-.39-.59-.79-.98-1.18-1.37-.59-.39-1.18-.59-1.77-.79s-1.37-.39-1.96-.79-1.37-.59-1.96-.79-1.18-.59-1.77-1.18c-.59-.39-.98-.98-1.18-1.77s-.39-1.57-.39-2.55.2-1.96.59-2.75c.39-.79.98-1.37,1.57-1.96s1.37-.98,2.16-1.18,1.57-.39,2.55-.39c1.18,0,2.36.2,3.34.59.98.39,1.96,1.18,2.75,2.16l-2.16,1.77Z"/>
    <path class="st0" d="M441.59,208.93c-.79-.79-1.57-1.37-2.55-1.96-.98-.39-2.16-.79-3.53-.79s-2.55.2-3.73.79c-.98.59-1.96,1.18-2.75,2.16-.79.79-1.37,1.96-1.77,3.14-.39,1.18-.59,2.36-.59,3.73s.2,2.55.59,3.73c.39,1.18.98,2.16,1.77,3.14.79.79,1.57,1.57,2.75,2.16.98.59,2.36.79,3.73.79,1.18,0,2.16-.2,3.14-.39.98-.2,1.96-.59,2.75-1.18v-7.46h-5.11v-2.36h7.26v11c-1.18.79-2.55,1.37-3.93,1.77s-2.75.59-4.12.59c-1.57,0-2.95-.2-4.32-.79-1.37-.59-2.55-1.37-3.53-2.36s-1.77-2.36-2.36-3.73c-.59-1.37-.79-2.95-.79-4.71s.2-3.34.79-4.71c.59-1.37,1.37-2.75,2.36-3.73s2.16-1.77,3.53-2.36c1.37-.59,2.75-.79,4.32-.79,1.77,0,3.14.2,4.32.79s2.36,1.18,3.34,2.16l-1.57,1.37Z"/>
    <path class="st0" d="M452.58,226.99h-2.55l9.23-22.19h2.16l9.23,22.19h-2.55l-2.36-5.89h-10.8l-2.36,5.89ZM455.72,219.14h9.23l-4.52-11.78-4.71,11.78Z"/>
    <path class="st0" d="M482.43,226.99h-2.16v-20.03h-7.07v-2.16h16.3v2.16h-7.07v20.03Z"/>
    <path class="st0" d="M498.53,225.03h11.39v2.16h-13.55v-22.38h13.16v2.16h-11v7.46h10.21v2.16h-10.21v8.44Z"/>
    <path class="st0" d="M530.73,204.8h2.16v9.62h11.58v-9.62h2.16v22.19h-2.16v-10.6h-11.58v10.6h-2.16v-22.19Z"/>
    <path class="st0" d="M575.89,216c0,1.77-.2,3.34-.79,4.71-.59,1.37-1.37,2.75-2.36,3.73s-2.16,1.77-3.53,2.36c-1.37.59-2.75.79-4.32.79s-2.95-.2-4.32-.79c-1.37-.59-2.55-1.37-3.53-2.36s-1.77-2.36-2.36-3.73c-.59-1.37-.79-2.95-.79-4.71s.2-3.34.79-4.71c.59-1.37,1.37-2.75,2.36-3.73s2.16-1.77,3.53-2.36c1.37-.59,2.75-.79,4.32-.79s2.95.39,4.32.79c1.37.59,2.55,1.37,3.53,2.36s1.77,2.36,2.36,3.73c.59,1.37.79,2.95.79,4.71ZM573.53,216c0-1.37-.2-2.55-.59-3.73-.39-1.18-.98-2.16-1.77-3.14-.79-.79-1.57-1.57-2.75-2.16-.98-.59-2.36-.79-3.73-.79s-2.55.2-3.73.79c-.98.59-1.96,1.18-2.75,2.16-.79.79-1.37,1.96-1.77,3.14-.39,1.18-.59,2.36-.59,3.73s.2,2.55.59,3.73c.39,1.18.98,2.16,1.77,3.14.79.79,1.57,1.57,2.75,2.16.98.59,2.36.79,3.73.79s2.55-.2,3.73-.79c.98-.59,1.96-1.18,2.75-2.16.79-.79,1.37-1.96,1.77-3.14.39-1.37.59-2.55.59-3.73Z"/>
    <path class="st0" d="M593.76,208.53c-.98-1.37-2.36-2.16-4.12-2.16-.59,0-1.18,0-1.57.2s-.98.39-1.37.79c-.39.39-.79.79-.98,1.18s-.39,1.18-.39,1.77c0,.98.2,1.77.79,2.36.59.59,1.18.98,1.96,1.37s1.57.59,2.55.98,1.77.59,2.55,1.18,1.37,1.18,1.96,1.96.79,1.77.79,3.14c0,.98-.2,1.96-.59,2.75-.39.79-.98,1.57-1.57,1.96-.59.59-1.37.98-2.16,1.18s-1.57.39-2.55.39c-1.37,0-2.55-.2-3.73-.79-1.18-.59-2.16-1.37-2.95-2.55l1.96-1.57c.39.79,1.18,1.37,1.96,1.96s1.77.79,2.95.79c.59,0,.98,0,1.57-.2s.98-.39,1.37-.79.79-.79.98-1.18c.2-.59.39-.98.39-1.77s-.2-1.37-.39-1.96c-.39-.59-.79-.98-1.18-1.37-.59-.39-1.18-.59-1.77-.79s-1.37-.39-1.96-.79-1.37-.59-1.96-.79-1.18-.59-1.77-1.18c-.59-.39-.98-.98-1.18-1.77s-.39-1.57-.39-2.55.2-1.96.59-2.75c.39-.79.98-1.37,1.57-1.96s1.37-.98,2.16-1.18,1.57-.39,2.55-.39c1.18,0,2.36.2,3.34.59.98.39,1.96,1.18,2.75,2.16l-2.16,1.77Z"/>
    <path class="st0" d="M603.97,204.8h6.09c2.16,0,3.93.59,5.11,1.57s1.96,2.55,1.96,4.52-.59,3.53-1.96,4.52c-1.18.98-2.95,1.57-5.11,1.57h-3.93v10.41h-2.16v-22.58ZM606.13,214.62h3.53c.98,0,1.77-.2,2.36-.39.59-.2,1.18-.39,1.57-.79.39-.39.59-.79.79-1.18s.2-.98.2-1.57,0-.98-.2-1.57c-.2-.39-.39-.98-.79-1.18-.39-.39-.98-.59-1.57-.79s-1.57-.39-2.36-.39h-3.53v7.85Z"/>
    <path class="st0" d="M626.74,226.99h-2.16v-22.19h2.16v22.19Z"/>
    <path class="st0" d="M642.84,226.99h-2.16v-20.03h-7.07v-2.16h16.3v2.16h-7.07v20.03h0Z"/>
    <path class="st0" d="M654.03,226.99h-2.55l9.23-22.19h2.16l9.23,22.19h-2.55l-2.36-5.89h-10.8l-2.36,5.89ZM657.18,219.14h9.23l-4.52-11.78-4.71,11.78Z"/>
    <path class="st0" d="M680.74,225.03h9.82v2.16h-11.98v-22.38h2.16v20.22Z"/>
  </g>
  <g>
    <path class="st0" d="M308.27,243.29h25.53v7.85h-17.28v7.85h15.9v7.85h-15.9v14.92h-8.25v-38.48Z"/>
    <path class="st0" d="M340.86,262.33c0-3.14.59-5.89,1.57-8.25.98-2.55,2.55-4.52,4.32-6.28s3.93-3.14,6.48-3.93c2.55-.98,5.3-1.37,8.25-1.37s5.69.39,8.25,1.37,4.71,2.36,6.48,3.93c1.77,1.77,3.34,3.93,4.32,6.28.98,2.55,1.57,5.3,1.57,8.25,0,3.14-.59,5.89-1.57,8.25-.98,2.55-2.55,4.52-4.32,6.28-1.77,1.77-3.93,3.14-6.48,3.93-2.55.98-5.3,1.37-8.25,1.37s-5.69-.39-8.25-1.37-4.71-2.36-6.48-3.93c-1.77-1.77-3.34-3.93-4.32-6.28-1.18-2.36-1.57-5.11-1.57-8.25ZM349.5,262.33c0,1.77.2,3.53.79,4.91.59,1.57,1.37,2.75,2.36,3.93.98,1.18,2.36,1.96,3.73,2.55s3.14.98,4.91.98,3.34-.39,4.91-.98c1.37-.59,2.75-1.37,3.73-2.55s1.77-2.36,2.36-3.93.79-3.14.79-4.91-.2-3.34-.79-4.91-1.37-2.75-2.36-3.93-2.36-1.96-3.73-2.55-3.14-.98-4.91-.98-3.34.39-4.91.98-2.75,1.37-3.73,2.55c-.98,1.18-1.77,2.36-2.36,3.93-.39,1.57-.79,3.14-.79,4.91Z"/>
    <path class="st0" d="M420.19,266.65c0,2.36-.39,4.32-.98,6.28s-1.77,3.53-3.14,4.91-2.95,2.55-5.11,3.34c-1.96.79-4.32,1.18-6.87,1.18-2.75,0-4.91-.39-7.07-1.18-1.96-.79-3.73-1.96-5.11-3.34s-2.36-3.14-3.14-4.91c-.79-1.77-.98-3.93-.98-6.28v-23.37h8.44v23.17c0,1.18.2,2.36.59,3.34.39.98.98,1.96,1.57,2.55.59.79,1.57,1.37,2.36,1.77.98.39,1.96.59,3.14.59s2.16-.2,3.14-.59,1.77-.98,2.36-1.77c.59-.79,1.18-1.57,1.57-2.55.39-.98.59-2.16.59-3.34v-23.17h8.44v23.37h.2Z"/>
    <path class="st0" d="M430.59,243.29h11.39l16.3,26.51h.2v-26.51h8.44v38.09h-11l-16.69-27.1h-.2v27.1h-8.44v-38.09h0Z"/>
    <path class="st0" d="M478.5,243.29h12.57c3.14,0,5.89.39,8.64.98s5.11,1.77,7.26,3.34c1.96,1.57,3.73,3.53,4.91,5.89,1.18,2.36,1.77,5.5,1.77,8.84,0,3.14-.59,5.89-1.77,8.25-1.18,2.36-2.75,4.32-4.71,5.89-1.96,1.57-4.32,2.75-6.87,3.73-2.55.79-5.3,1.18-8.05,1.18h-13.74v-38.09ZM486.94,273.72h4.32c1.96,0,3.73-.2,5.5-.59s3.14-.98,4.32-1.96,2.16-2.16,2.95-3.53c.79-1.57.98-3.34.98-5.5,0-1.96-.39-3.53-.98-4.91-.79-1.37-1.57-2.55-2.75-3.34-1.18-.98-2.55-1.57-4.12-1.96-1.57-.39-3.34-.59-5.11-.59h-5.11v22.38Z"/>
    <path class="st0" d="M531.51,243.29h6.87l16.69,38.09h-9.42l-3.34-8.05h-14.92l-3.14,8.05h-9.23l16.49-38.09ZM534.66,254.28l-4.71,11.78h9.42l-4.71-11.78Z"/>
    <path class="st0" d="M565.09,250.75h-10.8v-7.46h30.24v7.46h-10.8v30.83h-8.44v-30.83h-.2Z"/>
    <path class="st0" d="M591.01,243.29h8.44v38.09h-8.44v-38.09Z"/>
    <path class="st0" d="M607.89,262.33c0-3.14.59-5.89,1.57-8.25.98-2.55,2.55-4.52,4.32-6.28,1.77-1.77,3.93-3.14,6.48-3.93,2.55-.98,5.3-1.37,8.25-1.37s5.69.39,8.25,1.37c2.55.98,4.71,2.36,6.48,3.93,1.77,1.77,3.34,3.93,4.32,6.28.98,2.55,1.57,5.3,1.57,8.25,0,3.14-.59,5.89-1.57,8.25-.98,2.55-2.55,4.52-4.32,6.28-1.77,1.77-3.93,3.14-6.48,3.93-2.55.98-5.3,1.37-8.25,1.37s-5.69-.39-8.25-1.37c-2.55-.98-4.71-2.36-6.48-3.93-1.77-1.77-3.34-3.93-4.32-6.28s-1.57-5.11-1.57-8.25ZM616.73,262.33c0,1.77.2,3.53.79,4.91.59,1.57,1.37,2.75,2.36,3.93s2.36,1.96,3.73,2.55,3.14.98,4.91.98,3.34-.39,4.91-.98c1.37-.59,2.75-1.37,3.73-2.55s1.77-2.36,2.36-3.93.79-3.14.79-4.91-.2-3.34-.79-4.91c-.59-1.57-1.37-2.75-2.36-3.93s-2.36-1.96-3.73-2.55c-1.37-.59-3.14-.98-4.91-.98s-3.34.39-4.91.98-2.75,1.37-3.73,2.55-1.77,2.36-2.36,3.93c-.59,1.57-.79,3.14-.79,4.91Z"/>
    <path class="st0" d="M655.41,243.29h11.39l16.3,26.51h.2v-26.51h8.44v38.09h-11l-16.69-27.1h-.2v27.1h-8.44v-38.09h0Z"/>
  </g>
  <g>
    <polygon class="st0" points="499.21 48.25 530.43 48.25 530.43 96.35 570.68 96.35 570.68 48.25 591.33 48.25 591.33 166.84 570.68 166.84 570.68 124.04 530.43 124.04 530.43 166.84 499.21 166.84 499.21 48.25"/>
    <path class="st0" d="M377.68,108.72v-.39c0-35.34,27.68-62.83,65.19-62.83,21.21,0,36.32,6.48,49.09,17.67l-19.63,23.76c-8.64-7.26-17.28-11.39-29.26-11.39-17.47,0-31.02,14.73-31.02,33.18v.39c0,19.44,13.74,33.58,32.79,33.58,8.05,0,14.33-1.77,19.44-5.11v-14.73h-23.95v-24.54h55.57v54.39c-12.76,10.6-30.43,18.65-52.42,18.65-37.7,0-65.78-25.92-65.78-62.63"/>
    <path class="st0" d="M377.68,108.72v-.39c0-35.34,27.68-62.83,65.19-62.83,21.21,0,36.32,6.48,49.09,17.67l-19.63,23.76c-8.64-7.26-17.28-11.39-29.26-11.39-17.47,0-31.02,14.73-31.02,33.18v.39c0,19.44,13.74,33.58,32.79,33.58,8.05,0,14.33-1.77,19.44-5.11v-14.73h-23.95v-24.54h55.57v54.39c-12.76,10.6-30.43,18.65-52.42,18.65-37.7,0-65.78-25.92-65.78-62.63"/>
    <g>
      <path class="st0" d="M412.63,160.73v-21.18h-23.04c5.45,9.01,13.35,16.28,23.04,21.18Z"/>
      <path class="st0" d="M381.29,139.55h-27.17V48.05h-45.75v120.95h104.26v-.25c-13.8-6.04-24.7-16.22-31.34-29.2Z"/>
    </g>
    <polygon class="st0" points="499.21 50.21 530.43 50.21 530.43 98.32 570.68 98.32 570.68 50.21 591.33 50.21 591.33 169 570.68 169 570.68 126 530.43 126 530.43 169 499.21 169 499.21 50.21"/>
    <path class="st0" d="M570.88,48.25v120.75h120.75V48.25h-120.75ZM650.99,119.91c-7.46,7.46-13.94,13.35-20.22,19.63-6.87-6.28-12.76-11.58-20.22-19.24-5.69-6.09-14.53-14.53-12.76-27.1,1.18-8.05,7.66-15.12,15.71-16.1,9.23-.98,13.74,4.12,18.26,9.62,3.73-5.3,8.64-10.8,18.06-9.62,7.85.98,14.33,8.64,14.92,16.3.98,12.57-7.27,19.83-13.74,26.51Z"/>
    <path class="st0" d="M377.68,108.72v-.39c0-35.34,27.68-62.83,65.19-62.83,21.21,0,36.32,6.48,49.09,17.67l-19.63,23.76c-8.64-7.26-17.28-11.39-29.26-11.39-17.47,0-31.02,14.73-31.02,33.18v.39c0,19.44,13.74,33.58,32.79,33.58,8.05,0,14.33-1.77,19.44-5.11v-14.73h-23.95v-24.54h55.57v54.39c-12.76,10.6-30.43,18.65-52.42,18.65-37.7,0-65.78-25.92-65.78-62.63"/>
  </g>
</svg>