<?xml version="1.0" encoding="UTF-8"?>
<svg id="Layer_1" xmlns="http://www.w3.org/2000/svg" version="1.1" viewBox="0 0 1000 327.9">
  <!-- Generator: Adobe Illustrator 29.7.1, SVG Export Plug-In . SVG Version: 2.1.1 Build 8)  -->
  <defs>
    <style>
      .st0 {
        fill: #262626;
      }
    </style>
  </defs>
  <g id="layer1">
    <g id="g19490">
      <path id="path7555" class="st0" d="M386.6,71.3h-33.12c3.56,1.78,5.7,6.06,5.7,10.69,0,4.27-1.25,10.15-3.74,16.74l-16.56,45.77-29.74-73.2h-26.71c7.48,5.7,11.04,17.28,5.52,30.1l-19.59,45.24-29.57-75.34h-31.17c4.99,3.39,8.73,11.22,13.18,22.08l30.46,76.4c4.1,10.33,8.73,15.67,18.52,20.31l31.7-71.42,21.73,51.11c4.45,10.16,8.9,15.67,18.7,20.31l44.7-118.8h0Z"/>
      <path id="path7559" class="st0" d="M457.23,168.01c-7.66,5.7-15.67,8.19-26.89,8.19-6.06,0-11.4-.53-15.32-1.43v-29.21h8.19c9.97,0,13.36.71,16.03,3.74v-17.09h-24.22v-24.04s3.74-.54,11.4-.54c8.91,0,15.14,1.43,18.7,5.35v-17.63h-58.06c4.63,2.49,5.35,6.23,5.35,21.73v49.69c0,15.49-.71,19.24-5.35,21.73h63.59l6.59-20.48h0Z"/>
      <path id="path7563" class="st0" d="M532.4,159.63c0-28.5-43.28-26.54-43.28-43.99,0-5.17,4.63-9.62,12.65-9.62,8.55,0,15.85,3.03,23.86,10.69v-20.31c-8.19-2.14-14.78-3.38-22.97-3.38-17.81,0-35.98,10.69-35.98,28.32,0,32.05,43.28,27.43,43.28,45.41,0,6.41-5.7,11.04-15.5,11.04-11.04,0-21.73-4.45-32.77-14.07l5.87,22.26c8.91,3.21,16.39,4.81,24.58,4.81,22.8,0,40.25-12.47,40.25-31.16"/>
      <path id="path7567" class="st0" d="M615.11,95.34h-76.05l-5.17,17.63c5.7-3.92,10.86-5.35,20.3-5.35h9.09v59.13c0,15.49-.71,19.24-5.52,21.73h33.31c-4.63-2.49-5.34-6.24-5.34-21.73v-59.13h8.01c8.37,0,14.07,1.25,16.92,5.35l4.45-17.63Z"/>
      <path id="path7571" class="st0" d="M658.77,188.49c-4.63-2.49-5.34-6.23-5.34-21.73v-49.69c0-15.49.71-19.24,5.34-21.73h-33.31c4.63,2.49,5.34,6.24,5.34,21.73v49.69c0,15.5-.71,19.24-5.34,21.73h33.31Z"/>
      <path id="path7575" class="st0" d="M769.35,95.34h-30.45c6.06,3.21,6.76,9.97,6.76,20.31v37.75l-39-46.31c-3.92-4.81-6.59-8.37-9.09-11.75h-26.89c5.52,3.21,8.19,9.26,8.19,21.9v50.94c0,10.33-.71,17.1-6.77,20.31h30.46c-6.06-3.21-6.77-9.97-6.77-20.31v-38.47l40.25,47.73c5.7,6.77,13,9.62,26.54,11.76v-73.56c0-10.33.89-17.1,6.77-20.31"/>
      <path id="path7579" class="st0" d="M258.7,241.29v8.21c0,2.04.32,5.35-1.99,6.21v.14h8.66v-.14c-2.31-.86-2.04-4.17-2.04-6.21v-17.14c0-2.04-.27-5.35,2.04-6.21v-.14h-8.66v.14c2.31.86,1.99,4.17,1.99,6.26v5.62h-16.37v-5.62c0-2.09-.27-5.4,1.99-6.26v-.14h-8.61v.14c2.31.86,1.99,4.17,1.99,6.21v17.14c0,2.04.27,5.35-1.99,6.21v.14h8.61v-.14c-2.27-.86-1.99-4.17-1.99-6.21v-8.21h16.37Z"/>
      <path id="path7583" class="st0" d="M294.71,228.5c7.17,0,11.38,6.39,11.38,13.01s-4.4,11.79-11.29,11.79-11.61-6.53-11.61-12.87c0-6.85,4.49-11.92,11.52-11.92M295.02,225.24c-9.52-.23-17,6.98-17,15.59,0,9.3,7.57,15.73,16.55,15.73s16.68-6.71,16.68-15.95c0-8.16-6.71-15.42-16.23-15.37"/>
      <path id="path7587" class="st0" d="M333.58,229.27h4.08c1.5,0,3.31.23,3.9,1.81h.14l1.45-5.4h-.14c-.59.28-1.32.32-2.09.32h-18.04c-.59-.09-1.18-.09-1.72-.32h-.14l-1.59,5.4h.14c1.41-1.32,3.45-1.81,5.4-1.81h3.99v20.22c0,2.04.27,5.35-1.99,6.21v.14h8.97v-.14c-2.4-1.41-2.36-3.17-2.36-5.76v-20.67h0Z"/>
      <path id="path7591" class="st0" d="M361.93,241.29h3.36c1.4,0,3.31-.05,4.04,1.27h.14v-4.8h-.14c-.55.27-1.27.27-1.99.27h-5.4v-8.44c1.45-.27,3.04-.32,4.62-.32,2.09,0,3.94.19,5.35,1.81h.14v-5.3h-.14c-.59.32-1.36.23-2.13.23h-14.51v.14c2.31.86,2.04,4.17,2.04,6.26v17.09c0,2.04.27,5.4-2.04,6.21v.14h18.9l2.04-5.94h-.14c-2.27,1.99-5.4,2.95-8.39,2.68l-5.76-.54v-10.75h0Z"/>
      <path id="path7595" class="st0" d="M395.13,252.17v-19.77c0-2.04-.32-5.39,1.99-6.26v-.14h-8.66v.14c2.31.86,2.04,4.17,2.04,6.26v17.09c0,2.04.27,5.39-2.04,6.21v.14h18.63l2.36-6.03h-.14c-2.27,1.9-4.94,2.94-8.02,2.76l-6.17-.41h0Z"/>
      <path id="path7599" class="st0" d="M439.07,226.28c-2.18-.68-4.49-.99-6.75-.99-5.53,0-11.38,2.17-11.38,7.88,0,9.61,15.6,8.34,15.6,15.42,0,3.17-3.9,4.71-6.48,4.71-3.54,0-7.26-1.45-9.93-3.76l1.31,5.67c2.59.95,5.35,1.36,8.12,1.36,7.08,0,12.15-4.53,12.15-9.38,0-8.39-15.59-8.3-15.59-14.51,0-3.13,3.26-4.13,5.85-4.13s5.35,1.04,7.12,2.85v-5.12h0Z"/>
      <path id="path7603" class="st0" d="M490.15,249.54c-1.59,2.09-3.9,3.9-6.66,3.9-3.49,0-6.35-2.22-6.35-5.94,0-2.81,1.86-5.12,4.08-6.71l8.93,8.75h0ZM481.99,235.57c-1.22-1.09-3.17-2.9-3.17-4.71s1.36-2.58,2.99-2.58,3.13,1.04,3.13,2.76c0,1.86-1.49,3.49-2.94,4.53M506.56,255.84v-.14c-8.57-3.94-15.23-10.97-21.98-17.45,2.08-1.86,3.94-3.72,3.94-6.71,0-3.76-2.9-6.26-6.53-6.26s-7.07,2.54-7.07,6.3c0,2.54,1.95,4.67,3.62,6.39-3.31,2.63-6.26,5.31-6.26,9.79,0,5.62,5.13,8.66,10.25,8.66,4.36,0,7.12-1.58,9.43-5.31,1.41,1.36,3.76,3.13,5.4,3.99,1.22.63,2.67.72,4.26.72h4.94Z"/>
      <path id="path7607" class="st0" d="M532.58,226.01v.14c2.31.86,1.99,4.17,1.99,6.26v17.09c0,2.04.32,5.4-1.99,6.22v.14h8.66v-.14c-2.31-.82-2.04-4.13-2.04-6.22v-20.31c1.05-.19,2.04-.32,3.09-.37,3.04-.14,5.85,1.77,5.85,5.04,0,4.26-4.22,5.94-7.84,6.48l4.17,6.39,5.53,6.84c1.36,1.68,2.86,2.27,5.26,2.27h4.17c-2.58-1.63-5.44-3.99-7.34-6.35l-6.53-8.21c3.72-.86,7.21-3.99,7.21-7.98s-3.31-7.3-9.38-7.3h-10.79,0Z"/>
      <path id="path7611" class="st0" d="M577.1,241.29h3.36c1.4,0,3.31-.05,4.04,1.27h.14v-4.8h-.14c-.55.27-1.27.27-1.99.27h-5.4v-8.44c1.45-.27,3.04-.32,4.62-.32,2.09,0,3.94.19,5.35,1.81h.14v-5.3h-.14c-.59.32-1.36.23-2.13.23h-14.51v.14c2.31.86,2.04,4.17,2.04,6.26v17.09c0,2.04.27,5.4-2.04,6.21v.14h18.9l2.04-5.94h-.14c-2.27,1.99-5.4,2.95-8.39,2.68l-5.76-.54v-10.75h0Z"/>
      <path id="path7615" class="st0" d="M622.01,226.28c-2.18-.68-4.49-.99-6.75-.99-5.53,0-11.38,2.17-11.38,7.88,0,9.61,15.6,8.34,15.6,15.42,0,3.17-3.9,4.71-6.49,4.71-3.53,0-7.25-1.45-9.92-3.76l1.31,5.67c2.59.95,5.35,1.36,8.12,1.36,7.08,0,12.15-4.53,12.15-9.38,0-8.39-15.59-8.3-15.59-14.51,0-3.13,3.26-4.13,5.84-4.13s5.35,1.04,7.12,2.85v-5.12h0Z"/>
      <path id="path7619" class="st0" d="M653.48,228.5c7.17,0,11.38,6.39,11.38,13.01s-4.4,11.79-11.29,11.79-11.61-6.53-11.61-12.87c0-6.85,4.49-11.92,11.52-11.92M653.8,225.24c-9.52-.23-17,6.98-17,15.59,0,9.3,7.57,15.73,16.55,15.73s16.68-6.71,16.68-15.95c0-8.16-6.71-15.42-16.23-15.37"/>
      <path id="path7623" class="st0" d="M682.56,226.01v.14c2.31.86,1.99,4.17,1.99,6.26v17.09c0,2.04.32,5.4-1.99,6.22v.14h8.66v-.14c-2.31-.82-2.04-4.13-2.04-6.22v-20.31c1.05-.19,2.04-.32,3.09-.37,3.04-.14,5.85,1.77,5.85,5.04,0,4.26-4.22,5.94-7.84,6.48l4.17,6.39,5.53,6.84c1.36,1.68,2.86,2.27,5.26,2.27h4.17c-2.58-1.63-5.44-3.99-7.34-6.35l-6.53-8.21c3.71-.86,7.21-3.99,7.21-7.98s-3.31-7.3-9.38-7.3h-10.79,0Z"/>
      <path id="path7627" class="st0" d="M729.71,229.27h4.08c1.5,0,3.31.23,3.9,1.81h.14l1.45-5.4h-.14c-.59.28-1.32.32-2.09.32h-18.04c-.59-.09-1.18-.09-1.72-.32h-.14l-1.59,5.4h.14c1.4-1.32,3.44-1.81,5.39-1.81h3.99v20.22c0,2.04.27,5.35-1.99,6.21v.14h8.98v-.14c-2.41-1.41-2.36-3.17-2.36-5.76v-20.67h0Z"/>
      <path id="path7631" class="st0" d="M767.07,226.28c-2.18-.68-4.49-.99-6.75-.99-5.53,0-11.38,2.17-11.38,7.88,0,9.61,15.59,8.34,15.59,15.42,0,3.17-3.89,4.71-6.48,4.71-3.54,0-7.26-1.45-9.93-3.76l1.31,5.67c2.59.95,5.35,1.36,8.12,1.36,7.08,0,12.15-4.53,12.15-9.38,0-8.39-15.59-8.3-15.59-14.51,0-3.13,3.26-4.13,5.85-4.13s5.35,1.04,7.12,2.85v-5.12h0Z"/>
      <path id="path7635" class="st0" d="M780.33,107.25v-3.53h2.35c1.2,0,2.48.26,2.48,1.67,0,1.75-1.31,1.85-2.77,1.85h-2.07,0ZM780.33,108.72h1.98l3,4.93h1.93l-3.24-5.01c1.67-.21,2.95-1.1,2.95-3.13,0-2.25-1.34-3.24-4.02-3.24h-4.34v11.39h1.72v-4.93ZM782.42,117.83c5.38,0,9.97-4.18,9.97-9.9s-4.59-9.85-9.97-9.85-10.03,4.18-10.03,9.85,4.6,9.9,10.03,9.9M774.37,107.93c0-4.67,3.53-8.2,8.04-8.2s7.99,3.53,7.99,8.2-3.52,8.26-7.99,8.26-8.04-3.5-8.04-8.26"/>
    </g>
  </g>
</svg>