<?xml version="1.0" encoding="UTF-8"?>
<svg id="Layer_1" xmlns="http://www.w3.org/2000/svg" version="1.1" viewBox="0 0 1000 327.9">
  <!-- Generator: Adobe Illustrator 29.7.1, SVG Export Plug-In . SVG Version: 2.1.1 Build 8)  -->
  <defs>
    <style>
      .st0 {
        fill: #262626;
      }
    </style>
  </defs>
  <path class="st0" d="M156.09,133.24c20.89-61.25,93.37-36.37,87.93,24.32-2.49,27.79-24.32,65.19-53.51,70.66-43.37,8.13-100.73-11.34-96.11-63.73,2.63-29.85,36.65-38.99,61.69-31.25ZM152.59,142.49c-36.69-9.13-63.84,33.74-32.47,60.13,19.52,16.42,67.86,22.11,86.94,3.43s38.86-64.15,14.16-85.76c-15.44-13.5-41.04-8.44-52.31,8.05-7.47,10.94.41,9.25,7.83,15.71,4.22,3.68,8.96,9.47,10,15.06,1.06,5.69-2.34,12.4,5.26,8.09,13.91-7.88-5.49-22.62,5.6-27.4,6.15-2.65,8.87,3.11,10.54,8.25,5.12,15.77-4.36,30.31-19.91,34.72-2.51.71-6.48-.03-7.85.74-.51.28-1.14,2.76-2.44,3.78-10.58,8.34-24.43,10.89-35.89,2.61-6.04-4.36-14.62-20.17-2.48-20.18,5.24,0,5.62,5.16,7.96,7.92,5.12,6.03,11.85,7.91,17.76,1.65-13.74-7.81-14.17-22.84-12.7-36.8ZM172.15,165.09c-.93-4.41-2.71-10.13-6.83-12.5.42,4.43,2.99,10.13,6.83,12.5Z"/>
  <path class="st0" d="M849.38,117.37c17.74,2.38,23.19,24.64,7.43,33.52,8.56,5.92,5.83,14.11,7.15,22.43.57,3.57,2.24,5.61,3.13,8.82h-17.72c-2.71,0-.99-16.93-3.92-21.1-3.14-4.46-13.51-2.28-18.36-2.77v23.86h-17.14v-64.77c12.3,1.19,27.5-1.6,39.43,0ZM827.1,144.64h17.72c5.01,0,5.01-13.64,0-13.64h-17.72v13.64Z"/>
  <path class="st0" d="M623.44,115.39c45.76-2.59,47.84,65.87,5.33,69.01-46.02,3.39-48.48-66.56-5.33-69.01ZM621.02,130.11c-15.67,3.58-16.78,45.34,9.81,39.28,15.91-3.63,15.87-45.14-9.81-39.28Z"/>
  <path class="st0" d="M759.46,115.39c46.7-2.65,47.49,67.47,4.23,69.07-45.12,1.67-46.88-66.65-4.23-69.07ZM757.04,130.11c-15.02,3.42-17.51,44.85,9.78,39.26,16.16-3.31,16.25-45.19-9.78-39.26Z"/>
  <path class="st0" d="M324.18,138.96h-16c-.82,0-.62-9.16-12-9.18-23.02-.03-20.13,49.45,5.99,39,6-2.4,5.43-9.37,6.01-9.37h16c-4.07,35.29-55.57,32.06-60.28-2-3.77-27.26,12.3-44.92,40.18-41.08,10.26,1.41,20.58,12.18,20.1,22.63Z"/>
  <path class="st0" d="M581.35,138.95c-4.19-.68-11.6,1.08-15.24-.17-3.17-1.09-2.75-10.04-15.04-8.96-20.52,1.8-17.78,49.36,7.89,38.58,5.83-2.45,4.57-7.96,7.13-8.82l14.14-.15c-1.17,30.35-45.63,33.21-57.01,7.24-4.65-10.62-3.82-28.89,3.29-38.49,14.32-19.35,52.17-16.36,54.86,10.78Z"/>
  <path class="st0" d="M447.05,117.37l12.02,25c2.01,1.5,10.89-25,13.13-25h18.86l-22.86,39.2v25.57h-17.14v-25.57c0-1.83-16.11-27.14-18.48-31.62-1.24-2.34-3-4.94-3.23-7.58h17.72Z"/>
  <polygon class="st0" points="423.62 117.37 423.62 131 405.33 131 405.33 182.14 388.19 182.14 388.19 131 368.76 131 368.76 117.37 423.62 117.37"/>
  <path class="st0" d="M691.08,117.37c.13.08,1.14,2.69,1.14,2.84v47.16h30.86v14.77h-48.01v-64.77h16Z"/>
  <rect class="st0" x="339.04" y="117.37" width="17.14" height="64.77"/>
  <path class="st0" d="M888.53,115.38c24.25-1.3,22.94,37.62-3.21,32.16-17.52-3.66-14.99-31.18,3.21-32.16ZM887.4,118.72c-13.73,2.38-14.63,24.13-.34,25.98,21.7,2.8,19.35-29.28.34-25.98Z"/>
  <path class="st0" d="M512.79,216.23c1.79,1.66,1.96-.56,2.55-1.46,3.05-4.69,4.37-11.97,8.85-15.58l3.4,22.18c-1.39,1.86-2.21,2.24-3.14-.27-1.29-3.5-.42-16.85-3.96-11.35-1.81,2.8-3,7-4.88,9.93-.53.82-.23,3.18-2.25,2.23-3.41-1.59-4.28-12.94-8.57-14.77-.08,2.29-.84,15.86-2.87,15.89-2.39.03-.77-3.3-.72-4.08.36-6.63,2.22-13.12,2.45-19.76,4.24,1.81,7.24,15.27,9.15,17.04Z"/>
  <path class="st0" d="M353.14,201.85c12.36-12.57,29.98,7.8,17.8,18.27-12.24,10.52-28.96-6.92-17.8-18.27ZM359.29,201.7c-10.97,2.45-7.06,20.18,4.01,18.88,12.93-1.53,11.85-22.42-4.01-18.88Z"/>
  <path class="st0" d="M804.23,217.37c3.91,3.45-19.46,12.19-22.58-3.11-3.09-15.14,15.39-21.24,21.47-12.25,3.48,5.14-4.82-.24-6.38-.49-16.06-2.56-16.87,17.51-4.2,19.05,4.06.49,10.6-4.16,11.69-3.19Z"/>
  <path class="st0" d="M293.31,217.37c1.39,1.26-1.74,3.07-2.62,3.63-11.06,7.06-24.39-3.52-19.36-15.85,3.03-7.44,16.31-9.89,20.87-3.15,3.48,5.14-4.82-.24-6.38-.49-18.31-2.91-15.39,22.27-.19,19.07,1.85-.39,6.17-4.59,7.69-3.22Z"/>
  <path class="st0" d="M584.78,199.19h13.71c1.85,1.4-.01,2.06-1.69,2.28-6.87.87-11.2-3.36-9.76,6.16l11.46,1.24c-5.07,7.59-13.98-3.69-11.45,10.79h10.86c3.14,4.41-13.14,4.18-13.14,3.4v-23.86Z"/>
  <path class="st0" d="M435.42,206.79c2.02,2.45,7.87,4.6,8.58,9.12,1.15,7.27-10.66,10-13.52,3.14-1.85-4.44,5.35,2.07,7.19,1.6,10.9-2.77-8.6-11.81-5.87-19.57,3.42-9.75,16.57,4.58,9.02,2.07-1.61-.53-2.84-3.1-5.8-1.16-1.93,1.27-.67,3.48.41,4.8Z"/>
  <path class="st0" d="M863.68,201.46c-3.36,3.3,6.21,8.28,7.5,10.14,6.96,10.05-6.88,16.76-12.07,6.32,4.35-2.19,5.35,5.33,9.79,1.81,7.05-5.6-14.73-12.7-6.31-19.93,3.8-3.26,7.36-1.09,10.21,2.22-1.91,3.1-6.91-2.73-9.11-.56Z"/>
  <path class="st0" d="M657.93,201.46h-5.14s0-2.28,0-2.28h13.13c.89,3.87-3.38,1.89-5.71,2.28v21.59h-2.29v-21.59Z"/>
  <path class="st0" d="M724.23,199.19v22.73c-2.64.14-2.04.41-2.29-1.68-.58-4.74-1.15-13.91-.02-18.29.49-1.91-1.15-3.3,2.31-2.76Z"/>
  <path class="st0" d="M172.15,165.09c-3.84-2.37-6.41-8.07-6.83-12.5,4.12,2.37,5.9,8.09,6.83,12.5Z"/>
  <path class="st0" d="M881.96,123.05c.53-.53,12.88-1.64,14.44,1.45,2.1,4.18-1.42,6.78-1.43,8.2,0,.58,3.67,6.76,1.85,8.53-.16.16-4.39.16-4.55,0-.42-.42,1.02-5.62-1.74-6.81-4.94-2.14-1.67,6.81-2.85,6.81-.87,0-5.75.07-5.71-.12v-18.07ZM887.68,131c1.88,1.87,7.25-2.9,2.84-4.53-3.94-1.46-3.33,4.04-2.84,4.53Z"/>
</svg>