<?xml version="1.0" encoding="UTF-8"?>
<svg id="Layer_1" xmlns="http://www.w3.org/2000/svg" version="1.1" viewBox="0 0 1000 327.9">
  <!-- Generator: Adobe Illustrator 29.7.1, SVG Export Plug-In . SVG Version: 2.1.1 Build 8)  -->
  <defs>
    <style>
      .st0 {
        fill: #262626;
        fill-rule: evenodd;
      }
    </style>
  </defs>
  <path class="st0" d="M542.5,133.17v-14.86h-52.96v76.4h52.96v-15.49h-31.51v-16.93h26.21v-14.83h-26.21v-14.28h31.51ZM635.92,179.64h-33.1v-61.33h-21.71v76.4h54.81v-15.07ZM810.76,147.44c-14.65-3.3-19.77-3.67-19.77-9.51,0-5.41,7.26-7.09,11.44-7.09,6.75,0,14.73,1.57,22.85,5.75l5.91-14.06c-8.33-4.54-19.02-6.43-29.3-6.43-20.21,0-33.75,8.19-34.33,24.17-.58,14.56,11.27,20.02,22.16,22.27,10.5,2.17,21.15,4.02,21.36,10.26.2,5.75-4.97,8.21-14.73,8.21-9.04,0-17.44-2.91-26.03-6.5l-5.02,15.27c9.86,4.2,19.89,6.52,30.23,6.52,14.35,0,24.82-2.24,32.54-9.48,5.34-4.97,7.09-10.98,7.09-16.69,0-12.08-7.53-18.89-24.41-22.7h0ZM458.74,133.4v-15.08h-66.63v15.08h22.51v61.32h21.58v-61.32h22.53ZM709.98,118.32v48.54c0,3.8,0,4.86-.22,6.33-.69,4.64-5.18,7.31-12.33,7.41-5.3-.09-9.18-1.65-10.98-4.42-.91-1.43-1.36-3.98-1.36-8.06v-49.8h-22.51v52.66c0,7.29.97,10.58,4.27,14.75,5.44,6.8,16.04,10.37,30.62,10.37h.79c19.53,0,29.62-7.62,32.54-14.74,1.46-3.45,1.56-5.1,1.56-12.07v-50.97h-22.38,0ZM402.28,97.4l-126.27,25.13v8.81l.41-.1c83.41-20.28,125.85-32.47,126.2-32.55.47-.12.64-.49.57-.8-.06-.33-.41-.59-.91-.49h0Z"/>
  <path class="st0" d="M296.32,104.43c1.95-1.26,2.5-.48,1.94.94-.93,2.27-5.21,15.93-36.99,42.02-8.29,6.8-14.19,10.62-26.14,17.69,19.56-27.41,48.11-52.16,61.19-60.65ZM299.62,94.99c-6.14.35-17.5,9.44-23.73,14.85-24.85,21.49-43.31,41.25-56.75,61.93-28,14.99-63.7,30.42-99.14,42.45l-.85.29-6.82,18.37,3.9-1.51c22.54-8.59,60.17-24.73,94.29-42.66-1.92,5.12-2.89,9.83-2.89,14.13,0,3.2.53,6.17,1.61,8.89,2.14,5.41,6.37,9.49,12.23,11.84,8.73,3.48,20.64,3.55,34.23-.56,34.72-10.53,75.9-42.84,84.86-49.26l.34-.25c.35-.26.38-.64.22-.9-.19-.3-.6-.37-.94-.18h0,0l-.45.27c-9.63,5.76-56.38,33.52-86.76,41.67-15.48,4.16-27.28,1.89-31.73-4.34-1.54-2.12-2.29-4.81-2.29-7.95,0-6.12,2.88-13.93,8.44-22.6,4.78-2.72,9.51-5.54,14.18-8.45,29.65-16.66,63.81-49.06,65.27-68.83,0-.14,0-.3,0-.44,0-1.7-.74-3.46-2.03-4.76-1.35-1.4-3.25-2.13-5.19-1.99h0ZM295.3,102.85h0s0,0,0,0Z"/>
  <path class="st0" d="M275.61,122.63l-132.84,28.55-5.12,13.81,138.38-33.65.22-.05v-8.79l-.63.13ZM861.16,132.81c0-6.89,5.19-12.06,11.83-12.06s11.75,5.17,11.75,12.06-5.19,12.12-11.75,12.12-11.83-5.12-11.83-12.12ZM872.99,147.35c7.89,0,14.67-6.15,14.67-14.54s-6.78-14.48-14.67-14.48-14.73,6.14-14.73,14.48,6.75,14.54,14.73,14.54ZM869.9,133.96h2.93l4.42,7.24h2.84l-4.76-7.36c2.46-.32,4.34-1.61,4.34-4.62,0-3.31-1.97-4.76-5.9-4.76h-6.38v16.74h2.51v-7.24ZM869.9,131.81v-5.2h3.45c1.79,0,3.68.4,3.68,2.47,0,2.56-1.93,2.72-4.09,2.72h-3.04Z"/>
</svg>