<?xml version="1.0" encoding="UTF-8"?>
<svg id="Layer_1" xmlns="http://www.w3.org/2000/svg" version="1.1" viewBox="0 0 1000 327.9">
  <!-- Generator: Adobe Illustrator 29.7.1, SVG Export Plug-In . SVG Version: 2.1.1 Build 8)  -->
  <defs>
    <style>
      .st0 {
        fill: #262626;
      }
    </style>
  </defs>
  <path class="st0" d="M312.66,220.35c3.14,1.86,4.85,4.65,4.85,7.76,0,3.9-2.31,6.94-6.49,8.55-2.34.88-4.84,1.28-8.58,1.32h-8.39l-.5-.13.07.54v9.21h-8.73l-.03-29.44h17.89c4.25,0,7.35.69,9.93,2.2M293.58,231.39l-.07.43.57-.09h6.51c3.71,0,5.65-.28,6.65-.82,1.01-.53,1.57-1.54,1.57-2.79s-.8-2.36-2.51-3.05c-1.23-.5-2.78-.66-5.88-.66h-6.42l-.57-.09.14.6v6.48Z"/>
  <path class="st0" d="M383.1,247.6l-4.58-5.78-.2-.63-.7.17h-18.15l-.8-.28-.34.75-4.45,5.78h-11.26l25.77-31.18,25.9,31.18h-11.2ZM360.85,236.26h15.08l-7.6-9.33-7.48,9.33Z"/>
  <path class="st0" d="M450.59,224.4c-2.04-.34-3.58-.5-5.04-.5-4.22,0-8.23.85-10.87,2.26-3.15,1.7-4.98,4.18-4.98,6.57s1.81,5.19,4.48,6.7c1.3.72,3.97,1.64,5.78,1.94,1.33.22,3.4.35,5.64.35,2.41,0,4.25-.26,6.75-1.01,1.71-.53,3.58-1.07,6.38-2.2l.84,7.03c-2.64,1.01-3.51,1.23-6.15,1.7-3.28.6-4.81.75-7.82.75-7.35,0-14.01-1.7-18.21-4.71-3.94-2.83-6.08-6.51-6.08-10.53,0-4.65,2.77-8.57,8.02-11.5,4.55-2.51,9.79-3.67,16.84-3.67,4.48,0,8.29.71,13.44,2.61l-.5,7.28c-3.64-1.97-5.01-2.45-8.52-3.08"/>
  <polygon class="st0" points="510.88 218.15 510.84 247.6 502.06 247.6 502.06 218.15 510.88 218.15"/>
  <polygon class="st0" points="563.49 224.21 562.62 223.99 562.76 224.97 562.76 231.04 562.55 231.92 563.55 231.7 582.41 231.7 582.44 237.8 563.62 237.8 562.65 237.63 562.79 238.49 562.79 247.6 554.16 247.6 554.16 218.15 583.27 218.15 583.31 224.21 563.49 224.21"/>
  <polygon class="st0" points="634.88 218.15 634.84 247.6 626.06 247.6 626.06 218.15 634.88 218.15"/>
  <path class="st0" d="M706.12,224.4c-2.04-.34-3.58-.5-5.05-.5-4.22,0-8.22.85-10.87,2.26-3.13,1.7-4.97,4.18-4.97,6.57s1.8,5.19,4.49,6.7c1.29.72,3.97,1.64,5.77,1.94,1.33.22,3.41.35,5.65.35,2.41,0,4.24-.26,6.75-1.01,1.7-.53,3.57-1.07,6.38-2.2l.83,7.03c-2.63,1.01-3.51,1.23-6.15,1.7-3.28.6-4.81.75-7.82.75-7.36,0-14.01-1.7-18.22-4.71-3.94-2.83-6.08-6.51-6.08-10.53,0-4.65,2.78-8.57,8.02-11.5,4.55-2.51,9.79-3.67,16.84-3.67,4.48,0,8.28.71,13.44,2.61l-.5,7.28c-3.64-1.97-5.01-2.45-8.52-3.08"/>
  <path class="st0" d="M240.4,134.18c0-14.06,4.94-25.94,14.82-35.62,9.89-9.69,22.06-14.54,36.51-14.54s26.33,4.83,36.22,14.46c9.89,9.65,14.83,21.5,14.83,35.55s-4.94,25.88-14.83,35.47c-9.88,9.6-22.05,14.39-36.51,14.39s-26.57-4.77-36.36-14.31c-9.79-9.55-14.68-21.35-14.68-35.41M259.76,134.03c0,8.73,3.11,16.19,9.34,22.4,6.23,6.22,13.72,9.32,22.47,9.32s16.24-3.1,22.46-9.32c6.23-6.21,9.34-13.72,9.34-22.55s-3.11-16.18-9.34-22.4c-6.23-6.22-13.77-9.32-22.61-9.32s-16.21,3.11-22.4,9.32c-6.18,6.21-9.27,13.73-9.27,22.55"/>
  <path class="st0" d="M546.38,90v21.82c-6.63-6.58-14.37-9.87-23.18-9.87s-16.19,3.1-22.12,9.27c-5.92,6.19-8.88,13.83-8.88,22.96s2.96,16.58,8.88,22.66c5.93,6.08,13.29,9.13,22.12,9.13s16.36-3.28,23.18-9.85v21.76c-9.02,3.6-16.86,5.39-23.5,5.39-13.87,0-25.64-4.74-35.33-14.23-9.69-9.5-14.53-21.08-14.53-34.76s4.86-25.62,14.6-35.31c9.74-9.68,21.63-14.53,35.69-14.53,7.69,0,15.38,1.85,23.08,5.56"/>
  <path class="st0" d="M224.26,90v21.82c-6.63-6.58-14.36-9.87-23.18-9.87s-16.19,3.1-22.11,9.27c-5.93,6.19-8.89,13.83-8.89,22.96s2.96,16.58,8.89,22.66c5.92,6.08,13.29,9.13,22.11,9.13s16.35-3.28,23.18-9.85v21.76c-9.03,3.6-16.86,5.39-23.51,5.39-13.87,0-25.64-4.74-35.32-14.23-9.69-9.5-14.53-21.08-14.53-34.76s4.87-25.62,14.6-35.31c9.74-9.68,21.63-14.53,35.69-14.53,7.69,0,15.38,1.85,23.08,5.56"/>
  <path class="st0" d="M724.69,141.16l29.77,40.02h-22.77l-25.62-38.15h-2.27v38.15h-18.56v-94.87h27.55c10.46,0,18.46,2.28,23.97,6.83,6.37,5.22,9.57,12.39,9.57,21.52,0,10.07-3.73,17.57-11.17,22.5-2.87,1.91-6.36,3.24-10.46,3.99M703.79,129.89h5.39c12.39,0,18.59-4.78,18.59-14.35s-6.1-14.21-18.3-14.21h-5.67v28.56Z"/>
  <path class="st0" d="M770.71,181.18v-94.87h29.08c13.97,0,25.68,4.53,35.13,13.6,9.47,9.08,14.19,20.3,14.19,33.69s-4.72,24.79-14.19,33.9c-9.45,9.11-21.21,13.67-35.27,13.67h-28.94ZM789.26,165.13h6.96c10.15,0,18.3-2.87,24.46-8.61,6.17-5.73,9.24-13.35,9.24-22.84s-3.07-17.08-9.24-22.77c-6.16-5.7-14.3-8.54-24.46-8.54h-6.96v62.76Z"/>
  <polygon class="st0" points="363.33 181.19 363.33 79.85 434.17 146.02 434.06 86.32 452.99 86.32 452.99 187.03 381.69 121 381.69 181.19 363.33 181.19"/>
  <path class="st0" d="M617.19,83.96c-28.33-2-52.99,19.12-55.11,47.44-1.31,17.56,5.45,32.71,20.35,44.79,0,0,2.75-2.64,5.97-6.42,3.29-3.87,6.23-8.08,6.23-8.08-7.66-4.98-14.36-15.57-13.36-28.86,1.32-17.72,16.78-31.22,34.53-30.05,2.33.15,2.74.27,4.28.53.71-3.24,2-9.89,2.49-18.65-1.63-.3-2.73-.51-5.38-.7"/>
  <path class="st0" d="M643.39,92.6c-.12-.08-.24-.17-.36-.25l.48-4.19c-8.91-6.36-16.55-7.25-16.55-7.25,0,0-.18,2.82-.37,5.37-.46,5.97-2.46,29.78-14.93,54.67-5.98,11.06-12.63,24.02-24.27,36.1-.05.06.05-.06,0,0-5.75,6.45-17.22,14.69-19.25,16.15h1.11s23.07,0,23.07,0c0,0,5.1-3.49,9.84-8.69,4.01,1,8.17,1.58,12.48,1.58,28.28,0,51.2-22.93,51.2-51.2,0-17.62-8.91-33.09-22.45-42.29M614.64,169.01c-.06,0-.12,0-.18,0,3.47-5.03,11.39-17.44,14.13-24.29,5.02-12.55,7.96-19.15,10.35-34.6,5.46,6.05,9.82,15.99,9.82,24.79,0,18.84-15.28,34.12-34.12,34.12"/>
</svg>