<?xml version="1.0" encoding="UTF-8"?>
<svg id="Layer_1" xmlns="http://www.w3.org/2000/svg" version="1.1" viewBox="0 0 1000 327.9">
  <!-- Generator: Adobe Illustrator 29.7.1, SVG Export Plug-In . SVG Version: 2.1.1 Build 8)  -->
  <defs>
    <style>
      .st0 {
        fill: #262626;
      }
    </style>
  </defs>
  <g>
    <path class="st0" d="M380.15,190.2h-35.62l-8.83,24.58h-26.42l41.07-113.7h24.07l41.07,113.7h-26.42l-8.83-24.58h-.07ZM362.27,134.27l-11.92,36.65h24.07l-12.07-36.65h-.07Z"/>
    <path class="st0" d="M484.36,125.21c0-18.55,12.29-25.24,30.03-25.24s4.78.15,8.02.66v16.71c-2.87-.37-5.96-.88-8.02-.88-3.75,0-6.48,2.72-6.48,9.86v4.42h16.04v16.85h-16.04v66.97h-23.55v-66.97h-30.17v66.97h-23.55v-66.97h-9.71v-16.85h9.71v-5.59c0-18.55,12.29-25.24,30.03-25.24s4.78.15,8.02.66v16.71c-2.87-.37-5.96-.88-8.02-.88-3.75,0-6.48,2.72-6.48,9.86v4.42h30.17v-5.59h0v.15ZM548.09,95.41c6.62,0,11.41,4.78,11.41,11.26s-4.78,11.26-11.41,11.26-11.26-4.78-11.26-11.26,4.78-11.26,11.26-11.26ZM560.16,214.71v-83.9h-23.33v83.9h23.33Z"/>
    <path class="st0" d="M605.2,138.39c5.59-5.45,13.32-9.05,20.31-9.05,26.94,0,43.49,19.06,43.49,43.49v41.95h-23.55v-41.95c0-14.13-7.14-25.24-19.94-25.24s-14.79,3.75-20.31,11.55v55.56h-23.33v-83.9h23.33v7.58Z"/>
    <path class="st0" d="M698.52,95.41c6.62,0,11.41,4.78,11.41,11.26s-4.78,11.26-11.41,11.26-11.26-4.78-11.26-11.26,4.78-11.26,11.26-11.26ZM710.59,214.71v-83.9h-23.33v83.9h23.33Z"/>
    <path class="st0" d="M732.6,101.37h23.55v29.51h16.04v16.85h-16.04v41.58c0,7.36,2.72,10.08,6.48,10.08s5.08-.37,8.02-.88v16.85c-3.75.37-6.99.52-10.74.52-16.19,0-27.3-6.99-27.3-26.57v-41.58h-9.71v-16.85h9.71v-29.51h0Z"/>
    <path class="st0" d="M821.79,182.54l19.94-51.66h25.39l-29.36,74.48-2.06,6.11c-5.15,14.5-17.88,37.02-41.58,36.5-1.91,0-4.78-.15-7.87-.66v-20.61c2.87.52,5.59.66,7.36.66,8.68,0,15.53-7.65,16.71-15.53l-33.56-80.95h25.24l19.8,51.66h0Z"/>
  </g>
  <path class="st0" d="M217.65,231.63c-33.12,0-60.05-26.94-60.05-60.05s26.94-60.05,60.05-60.05,60.05,26.94,60.05,60.05-26.94,60.05-60.05,60.05h0ZM217.65,121.83c-27.45,0-49.75,22.3-49.75,49.75s22.3,49.75,49.75,49.75,49.75-22.3,49.75-49.75-22.3-49.75-49.75-49.75h0Z"/>
  <path class="st0" d="M164.15,187.4c-17.29,0-31.28-14.06-31.28-31.28s14.06-31.28,31.28-31.28,31.28,14.06,31.28,31.28-14.06,31.28-31.28,31.28ZM164.15,135.15c-11.55,0-20.97,9.42-20.97,20.97s9.42,20.97,20.97,20.97,20.97-9.42,20.97-20.97-9.42-20.97-20.97-20.97Z"/>
  <path class="st0" d="M252.98,233.77c-24.58,0-44.52-20.02-44.52-44.52s20.02-44.52,44.52-44.52,44.52,20.02,44.52,44.52-20.02,44.52-44.52,44.52h0ZM252.98,154.95c-18.91,0-34.22,15.38-34.22,34.22s15.38,34.22,34.22,34.22,34.22-15.38,34.22-34.22-15.38-34.22-34.22-34.22h0Z"/>
  <path class="st0" d="M273.44,123.3c-11.92,0-21.71-9.71-21.71-21.71s9.71-21.71,21.71-21.71,21.71,9.71,21.71,21.71-9.71,21.71-21.71,21.71ZM273.44,90.26c-6.26,0-11.33,5.08-11.33,11.33s5.08,11.33,11.33,11.33,11.33-5.08,11.33-11.33-5.08-11.33-11.33-11.33Z"/>
</svg>