<?xml version="1.0" encoding="UTF-8"?>
<svg id="Layer_1" xmlns="http://www.w3.org/2000/svg" version="1.1" viewBox="0 0 1000 327.9">
  <!-- Generator: Adobe Illustrator 29.7.1, SVG Export Plug-In . SVG Version: 2.1.1 Build 8)  -->
  <defs>
    <style>
      .st0 {
        fill: #262626;
      }
    </style>
  </defs>
  <g>
    <path class="st0" d="M188.51,153.97V54.24s19.79,0,19.79,0v35.16c5.26-3.48,11.05-5.21,17.38-5.21,6.33,0,12.1,1.56,17.31,4.68,5.21,3.12,9.34,7.38,12.37,12.77,3.03,5.39,4.55,11.39,4.55,17.98,0,6.68-1.52,12.75-4.55,18.18-3.03,5.44-7.15,9.69-12.37,12.77s-10.99,4.61-17.31,4.61c-6.77,0-12.57-1.74-17.38-5.21v4.01h-19.79ZM209.63,128.23c1.51,2.63,3.59,4.7,6.22,6.22,2.63,1.52,5.46,2.27,8.49,2.27s5.99-.76,8.62-2.27c2.63-1.51,4.7-3.59,6.22-6.22,1.51-2.63,2.27-5.46,2.27-8.49,0-4.72-1.67-8.76-5.01-12.1-3.34-3.34-7.38-5.01-12.1-5.01-3.03,0-5.86.76-8.49,2.27-2.63,1.52-4.7,3.59-6.22,6.22-1.52,2.63-2.27,5.5-2.27,8.62s.76,5.86,2.27,8.49Z"/>
    <path class="st0" d="M284.03,150.49c-5.48-3.21-9.85-7.55-13.1-13.03-3.25-5.48-4.88-11.47-4.88-17.98,0-6.5,1.63-12.5,4.88-17.98,3.25-5.48,7.62-9.85,13.1-13.1,5.48-3.25,11.47-4.88,17.98-4.88,6.5,0,12.52,1.63,18.05,4.88,5.53,3.25,9.91,7.62,13.17,13.1,3.25,5.48,4.88,11.48,4.88,17.98s-1.63,12.5-4.88,17.98c-3.25,5.48-7.64,9.83-13.17,13.03-5.53,3.21-11.54,4.81-18.05,4.81s-12.5-1.6-17.98-4.81ZM287.3,127.97c1.51,2.63,3.59,4.7,6.22,6.22,2.63,1.52,5.46,2.27,8.49,2.27,3.12,0,5.99-.76,8.62-2.27,2.63-1.51,4.7-3.59,6.22-6.22,1.51-2.63,2.27-5.46,2.27-8.49,0-4.72-1.67-8.76-5.01-12.1-3.34-3.34-7.38-5.01-12.1-5.01-3.03,0-5.86.76-8.49,2.27-2.63,1.52-4.7,3.59-6.22,6.22-1.52,2.63-2.27,5.5-2.27,8.62,0,3.03.76,5.86,2.27,8.49Z"/>
    <path class="st0" d="M358.63,152.77c-4.32-1.78-7.75-4.46-10.29-8.02-2.54-3.56-3.81-7.84-3.81-12.83v-1.34h18.98s.13,1.6.13,1.6c.18,2.14,1.05,3.79,2.61,4.95,1.56,1.16,3.45,1.74,5.68,1.74,1.78,0,3.3-.44,4.55-1.34,1.25-.89,1.87-2.09,1.87-3.61,0-1.69-.87-3.19-2.61-4.48-1.74-1.29-4.17-2.56-7.29-3.81l-8.42-3.34c-4.19-1.69-7.55-4.21-10.09-7.55-2.54-3.34-3.81-6.93-3.81-10.76,0-4.37,1.16-8.09,3.48-11.16,2.32-3.07,5.39-5.41,9.22-7.02,3.83-1.6,8.02-2.41,12.57-2.41s8.51.91,12.43,2.74c3.92,1.83,7.11,4.39,9.56,7.69,2.45,3.3,3.68,7.09,3.68,11.36v1.2h-18.72v-1.2c0-1.96-.53-3.45-1.6-4.48-1.07-1.02-2.59-1.54-4.55-1.54-1.69,0-3.07.42-4.14,1.27-1.07.85-1.6,1.94-1.6,3.28,0,2.14,1.92,4.01,5.75,5.61l10.43,4.28c10.52,4.28,15.78,11.05,15.78,20.32,0,4.37-1.18,8.18-3.54,11.43-2.36,3.25-5.48,5.75-9.36,7.49s-8.09,2.61-12.63,2.61c-5.17,0-9.92-.89-14.24-2.67Z"/>
    <path class="st0" d="M410.1,101.43c3.16-5.44,7.42-9.69,12.77-12.77s11.14-4.61,17.38-4.61c7.13,0,13.15,1.87,18.05,5.61v-4.28s19.92,0,19.92,0v68.58s-19.92,0-19.92,0v-4.55c-5.08,3.83-11.1,5.75-18.05,5.75-6.42,0-12.28-1.58-17.58-4.75-5.3-3.16-9.51-7.49-12.63-12.97-3.12-5.48-4.68-11.43-4.68-17.85,0-6.68,1.58-12.74,4.75-18.18ZM427.27,128.23c1.51,2.63,3.59,4.7,6.22,6.22,2.63,1.52,5.46,2.27,8.49,2.27s5.99-.76,8.62-2.27c2.63-1.51,4.7-3.59,6.22-6.22,1.51-2.63,2.27-5.46,2.27-8.49,0-4.72-1.67-8.76-5.01-12.1-3.34-3.34-7.38-5.01-12.1-5.01-3.03,0-5.86.76-8.49,2.27-2.63,1.52-4.7,3.59-6.22,6.22-1.52,2.63-2.27,5.5-2.27,8.62,0,3.03.76,5.86,2.27,8.49Z"/>
  </g>
  <g>
    <path class="st0" d="M255.69,228.63c-3.07,5.39-7.27,9.65-12.57,12.77-5.3,3.12-11.12,4.68-17.45,4.68-6.77,0-12.57-1.74-17.38-5.21v32.75s-19.79,0-19.79,0v-97.33s19.79,0,19.79,0v4.01c5.08-3.56,10.87-5.35,17.38-5.35,6.42,0,12.28,1.63,17.58,4.88,5.3,3.25,9.47,7.6,12.5,13.03,3.03,5.44,4.55,11.32,4.55,17.65,0,6.68-1.54,12.72-4.61,18.11ZM209.76,219.14c1.51,2.63,3.59,4.7,6.22,6.22,2.63,1.52,5.46,2.27,8.49,2.27,3.12,0,5.99-.76,8.62-2.27,2.63-1.51,4.7-3.59,6.22-6.22,1.51-2.63,2.27-5.46,2.27-8.49,0-4.72-1.67-8.76-5.01-12.1-3.34-3.34-7.38-5.01-12.1-5.01-3.03,0-5.86.76-8.49,2.27-2.63,1.52-4.7,3.59-6.22,6.22-1.52,2.63-2.27,5.5-2.27,8.62,0,3.03.76,5.86,2.27,8.49Z"/>
    <path class="st0" d="M306.95,176.3v19.25s-19.79,0-19.79,0v49.33s-19.92,0-19.92,0v-68.58s39.71,0,39.71,0Z"/>
    <path class="st0" d="M328.95,241.4c-5.48-3.21-9.85-7.55-13.1-13.03-3.25-5.48-4.88-11.47-4.88-17.98,0-6.5,1.63-12.5,4.88-17.98,3.25-5.48,7.62-9.85,13.1-13.1,5.48-3.25,11.47-4.88,17.98-4.88,6.5,0,12.52,1.63,18.05,4.88,5.53,3.25,9.91,7.62,13.17,13.1,3.25,5.48,4.88,11.48,4.88,17.98,0,6.51-1.63,12.5-4.88,17.98-3.25,5.48-7.64,9.83-13.17,13.03-5.53,3.21-11.54,4.81-18.05,4.81s-12.5-1.6-17.98-4.81ZM332.22,218.88c1.51,2.63,3.59,4.7,6.22,6.22,2.63,1.52,5.46,2.27,8.49,2.27,3.12,0,5.99-.76,8.62-2.27,2.63-1.51,4.7-3.59,6.22-6.22,1.51-2.63,2.27-5.46,2.27-8.49,0-4.72-1.67-8.76-5.01-12.1-3.34-3.34-7.38-5.01-12.1-5.01-3.03,0-5.86.76-8.49,2.27-2.63,1.52-4.7,3.59-6.22,6.22-1.52,2.63-2.27,5.5-2.27,8.62,0,3.03.76,5.86,2.27,8.49Z"/>
    <path class="st0" d="M456.35,228.63c-3.07,5.39-7.27,9.65-12.57,12.77-5.3,3.12-11.12,4.68-17.45,4.68-6.77,0-12.57-1.74-17.38-5.21v32.75s-19.79,0-19.79,0v-97.33s19.79,0,19.79,0v4.01c5.08-3.56,10.87-5.35,17.38-5.35,6.42,0,12.28,1.63,17.58,4.88,5.3,3.25,9.47,7.6,12.5,13.03,3.03,5.44,4.55,11.32,4.55,17.65,0,6.68-1.54,12.72-4.61,18.11ZM410.43,219.14c1.51,2.63,3.59,4.7,6.22,6.22,2.63,1.52,5.46,2.27,8.49,2.27,3.12,0,5.99-.76,8.62-2.27,2.63-1.51,4.7-3.59,6.22-6.22,1.51-2.63,2.27-5.46,2.27-8.49,0-4.72-1.67-8.76-5.01-12.1-3.34-3.34-7.38-5.01-12.1-5.01-3.03,0-5.86.76-8.49,2.27-2.63,1.52-4.7,3.59-6.22,6.22-1.52,2.63-2.27,5.5-2.27,8.62,0,3.03.76,5.86,2.27,8.49Z"/>
    <path class="st0" d="M472.06,192.41c3.21-5.48,7.62-9.83,13.24-13.03,5.61-3.21,11.85-4.81,18.72-4.81,6.86,0,12.94,1.67,18.25,5.01,5.3,3.34,9.38,7.91,12.23,13.7,2.85,5.79,4.28,12.35,4.28,19.65v3.48s-50.13,0-50.13,0c.62,3.66,2.36,6.51,5.21,8.56,2.85,2.05,6.1,3.07,9.76,3.07,2.76,0,5.44-.67,8.02-2.01,2.58-1.34,4.72-3.03,6.42-5.08l14.3,11.23c-2.76,4.28-6.82,7.69-12.17,10.23-5.35,2.54-10.74,3.81-16.18,3.81-6.95,0-13.21-1.63-18.78-4.88-5.57-3.25-9.96-7.64-13.17-13.17-3.21-5.53-4.81-11.5-4.81-17.91,0-6.42,1.6-12.37,4.81-17.85ZM518.18,201.7c-.62-3.12-2.21-5.64-4.75-7.55-2.54-1.92-5.68-2.87-9.43-2.87-3.66,0-6.8.96-9.43,2.87-2.63,1.92-4.34,4.43-5.15,7.55h28.74Z"/>
    <path class="st0" d="M585.43,176.3v19.25s-19.79,0-19.79,0v49.33s-19.92,0-19.92,0v-68.58s39.71,0,39.71,0Z"/>
    <path class="st0" d="M604.94,195.55h-12.57s0-19.25,0-19.25h12.57s0-22.33,0-22.33h19.79s0,22.33,0,22.33h19.65s0,19.25,0,19.25h-19.65s0,49.33,0,49.33h-19.79s0-49.33,0-49.33Z"/>
    <path class="st0" d="M652.14,144.61c2.76-2.76,6.06-4.14,9.89-4.14s6.95,1.38,9.89,4.14c2.76,2.94,4.14,6.24,4.14,9.89,0,3.74-1.38,7.09-4.14,10.03-2.76,2.67-6.06,4.01-9.89,4.01-3.92,0-7.22-1.34-9.89-4.01-2.76-2.76-4.14-6.1-4.14-10.03,0-3.83,1.38-7.13,4.14-9.89ZM672.32,176.3v68.58s-20.59,0-20.59,0v-68.58s20.59,0,20.59,0Z"/>
    <path class="st0" d="M685.16,192.41c3.21-5.48,7.62-9.83,13.24-13.03,5.61-3.21,11.85-4.81,18.72-4.81,6.86,0,12.94,1.67,18.25,5.01,5.3,3.34,9.38,7.91,12.23,13.7,2.85,5.79,4.28,12.35,4.28,19.65v3.48s-50.13,0-50.13,0c.62,3.66,2.36,6.51,5.21,8.56,2.85,2.05,6.1,3.07,9.76,3.07,2.76,0,5.44-.67,8.02-2.01,2.58-1.34,4.72-3.03,6.42-5.08l14.3,11.23c-2.76,4.28-6.82,7.69-12.17,10.23-5.35,2.54-10.74,3.81-16.18,3.81-6.95,0-13.21-1.63-18.78-4.88-5.57-3.25-9.96-7.64-13.17-13.17-3.21-5.53-4.81-11.5-4.81-17.91,0-6.42,1.6-12.37,4.81-17.85ZM731.28,201.7c-.62-3.12-2.21-5.64-4.75-7.55-2.54-1.92-5.68-2.87-9.43-2.87s-6.8.96-9.43,2.87c-2.63,1.92-4.34,4.43-5.15,7.55h28.74Z"/>
    <path class="st0" d="M771.72,243.68c-4.32-1.78-7.75-4.46-10.29-8.02-2.54-3.56-3.81-7.84-3.81-12.83v-1.34h18.98s.13,1.6.13,1.6c.18,2.14,1.05,3.79,2.61,4.95,1.56,1.16,3.45,1.74,5.68,1.74,1.78,0,3.3-.44,4.55-1.34,1.25-.89,1.87-2.09,1.87-3.61,0-1.69-.87-3.19-2.61-4.48-1.74-1.29-4.17-2.56-7.29-3.81l-8.42-3.34c-4.19-1.69-7.55-4.21-10.09-7.55-2.54-3.34-3.81-6.93-3.81-10.76,0-4.37,1.16-8.09,3.48-11.16,2.32-3.07,5.39-5.41,9.22-7.02,3.83-1.6,8.02-2.41,12.57-2.41,4.37,0,8.51.91,12.43,2.74,3.92,1.83,7.11,4.39,9.56,7.69,2.45,3.3,3.68,7.09,3.68,11.36v1.2h-18.72v-1.2c0-1.96-.53-3.45-1.6-4.48-1.07-1.02-2.59-1.54-4.55-1.54-1.69,0-3.07.42-4.14,1.27-1.07.85-1.6,1.94-1.6,3.28,0,2.14,1.92,4.01,5.75,5.61l10.43,4.28c10.52,4.28,15.78,11.05,15.78,20.32,0,4.37-1.18,8.18-3.54,11.43-2.36,3.25-5.48,5.75-9.36,7.49-3.88,1.74-8.09,2.61-12.63,2.61-5.17,0-9.92-.89-14.24-2.67Z"/>
  </g>
</svg>