<?xml version="1.0" encoding="UTF-8"?>
<svg id="Layer_1" xmlns="http://www.w3.org/2000/svg" version="1.1" viewBox="0 0 1000 327.9">
  <!-- Generator: Adobe Illustrator 29.7.1, SVG Export Plug-In . SVG Version: 2.1.1 Build 8)  -->
  <defs>
    <style>
      .st0 {
        fill: #262626;
      }
    </style>
  </defs>
  <g>
    <path class="st0" d="M225.78,82.63h30.01c22.56,0,36.87,12.42,36.87,33.7s-12.97,34.8-37.35,34.8h-29.52v-68.5ZM256.79,136.54c10.52,0,17.49-6.35,17.49-19.76s-7.35-19.59-17.66-19.59h-13.04v39.32h13.24l-.03.03Z"/>
    <path class="st0" d="M304.46,116.88c0-20.49,16.76-35.53,36.97-35.53s36.97,13.69,36.97,34.97-15.04,36.42-37.42,36.42-36.53-15.42-36.53-35.9v.03ZM360.02,116.77c0-13.31-7.69-20.11-18.66-20.11s-18.49,6.79-18.49,20.11,7.45,20.31,18.66,20.31,18.49-7.17,18.49-20.31Z"/>
    <path class="st0" d="M393.75,122.95v-40.32h17.76v39.32c0,10.86,3.17,15.14,15.04,15.14s14.93-4.28,14.93-15.14v-39.32h17.76v40.32c0,20.83-12.8,29.8-32.8,29.8-21.38,0-32.73-9.97-32.73-29.8h.03Z"/>
    <path class="st0" d="M474.6,117.6c0-21.28,13.97-36.25,37.8-36.25,16.49,0,26.56,5.45,32.25,14.59l-14.31,9.07c-3.62-5.24-8.52-8.42-18.04-8.42-12.14,0-19.31,7.9-19.31,20.94s6.97,20.21,20.66,20.21c12.52,0,17.14-9.42,17.14-12.69v-.38h-14.69v-13.76h30.8v40.25h-8.97l-2.79-8.8c-5.17,6.35-11.97,10.42-23.83,10.42-22.21,0-36.7-15.04-36.7-35.15v-.03Z"/>
    <path class="st0" d="M564.86,82.63h17.76v54.39h36.25v14.14h-54.01v-68.53Z"/>
    <path class="st0" d="M644.91,151.13h-17.21l25.9-68.5h21.21l26.11,68.5h-18.76l-4.52-12.8h-28.18l-4.52,12.8h-.03ZM663.47,98.84l-9.35,26.28h18.66l-9.35-26.28h.03Z"/>
    <path class="st0" d="M708.27,139.54l11.69-10.42c4.79,5.62,12.52,9.52,23.21,9.52,9.69,0,13.52-2,13.52-6.45,0-4.9-3.52-5.73-15.93-7.45-13.52-1.9-29.9-4.79-29.9-21.94,0-14.69,11.8-21.49,29.56-21.49,15.42,0,24.66,4.17,31.8,11.8l-10.97,10.42c-3.07-4-9.42-8.42-20.21-8.42-9.42,0-13.14,1.83-13.14,6.17,0,4.62,3.72,5.62,16.76,7.17,14.14,1.72,29.56,5.45,29.56,22,0,14.97-9.69,22.28-30.73,22.28-17.21,0-27.73-5.17-35.18-13.24l-.03.03Z"/>
  </g>
  <g>
    <path class="st0" d="M225.78,211.6c0-20.21,12.52-35.15,30.8-35.15,13.59,0,22.56,5.9,27.28,19.66l-6.97,2.45c-3.07-10.14-9.42-15.59-20.11-15.59-13.97,0-22.94,11.42-22.94,28.56s8.97,28.28,23.21,28.28c10.42,0,17.49-5.24,20.56-16.14l7.07,2.62c-4.52,13.42-13.87,20.21-27.83,20.21-19.11,0-31.08-14.69-31.08-34.9h0Z"/>
    <path class="st0" d="M297.66,211.6c0-20.11,12.76-35.15,31.63-35.15s31.46,15.49,31.46,34.97-12.24,35.08-31.25,35.08-31.8-15.04-31.8-34.9h-.03ZM352.67,211.33c0-15.87-9.07-28.35-23.38-28.35s-23.56,11.8-23.56,28.56,9.86,28.28,23.73,28.28c14.87,0,23.21-11.14,23.21-28.45v-.03Z"/>
    <path class="st0" d="M378.06,177.46h7.9v61.63h34.9v6.62h-42.77v-68.26h-.03Z"/>
    <path class="st0" d="M435.8,177.46h7.9v61.63h34.9v6.62h-42.77v-68.26h-.03Z"/>
    <path class="st0" d="M493.53,177.46h43.6v6.62h-35.7v24.01h29.63v6.45h-29.63v24.56h37.42v6.62h-45.32v-68.26h0Z"/>
    <path class="st0" d="M549.72,211.6c0-19.94,12.14-35.15,30.73-35.15,13.31,0,22.21,5.62,27.28,18.76l-7.07,2.72c-3.45-10.14-9.35-14.93-20.04-14.93-14.49,0-22.83,11.86-22.83,28.56s8.17,28.35,22.94,28.35c12.14,0,21.49-9.42,21.49-23.21v-1h-18.49v-6.62h26.18v36.63h-5.07l-1.55-12.69c-4.79,8.69-12.24,13.52-22.73,13.52-19.31,0-30.8-14.93-30.8-34.9l-.03-.03Z"/>
    <path class="st0" d="M627.49,177.46h43.6v6.62h-35.7v24.01h29.63v6.45h-29.63v24.56h37.42v6.62h-45.32v-68.26h0Z"/>
  </g>
</svg>