<?xml version="1.0" encoding="UTF-8"?>
<svg id="Layer_1" xmlns="http://www.w3.org/2000/svg" version="1.1" viewBox="0 0 1000 327.9">
  <!-- Generator: Adobe Illustrator 29.7.1, SVG Export Plug-In . SVG Version: 2.1.1 Build 8)  -->
  <defs>
    <style>
      .st0 {
        fill: #262626;
      }
    </style>
  </defs>
  <path class="st0" d="M704.48,179.73c0-16.44-13.15-29.38-29.7-29.38-16.23-.26-29.6,12.68-29.86,28.9-.26,16.23,12.68,29.6,28.9,29.86.32,0,.64,0,.96,0,16.55,0,29.7-12.91,29.7-29.39M728.74,131.65v96.16h-24.71v-8.71c-8.81,7.26-19.89,11.2-31.31,11.13-29.25,0-52.15-22.49-52.15-50.53s22.9-50.53,52.15-50.53c11.42-.07,22.49,3.87,31.31,11.13v-8.65h24.71ZM810.92,206h-18.6c-5.67,0-9.3-2.45-9.3-7.57v-44.97h27.89v-21.81h-27.89v-27.39h-24.94v27.39h-18.78v21.81h18.78v51.2c0,12.91,9.3,23.15,26.08,23.15h26.76v-21.81ZM867.27,230.27c28.57,0,44.67-13.36,44.67-31.83,0-13.13-9.52-22.93-29.48-27.17l-21.08-4.23c-12.25-2.22-16.1-4.45-16.1-8.9,0-5.79,5.89-9.39,16.78-9.39,11.79,0,20.4,3.13,22.9,13.81h24.72c-1.36-20.04-16.1-33.39-46.03-33.39-25.83,0-44,10.46-44,30.72,0,14.02,9.99,23.15,31.52,27.6l23.58,5.35c9.3,1.78,11.79,4.23,11.79,8.01,0,6.01-7.04,9.79-18.37,9.79-14.28,0-22.45-3.13-25.62-13.81h-24.94c3.62,20.04,18.82,33.39,49.66,33.39M520.84,97.59h93.2v22.27h-68.03v31.82h66.22v21.6h-66.22v32.28h68.03v22.26h-93.2V97.59Z"/>
  <path class="st0" d="M476.52,149.63v-17.47h-6.62c-10.6,0-18.36,4.83-23.1,12.45v-11.74h-18.94v94.84h19.12v-53.92c0-14.68,9.09-24.16,21.58-24.16h7.95ZM339.09,171.54c3.41-14.49,15.34-24.16,29.54-24.16s26.12,9.67,29.34,24.16h-58.88ZM369,131.03c-27.17-.22-49.37,21.61-49.59,48.78,0,.16,0,.31,0,.47,0,28.25,22.34,49.43,51.3,49.43,17.61,0,31.99-7.62,41.64-20.25l-13.82-10.03c-7.18,9.48-16.65,13.94-27.82,13.94-15.84.11-29.41-11.32-31.99-26.95h78.55v-6.14c0-28.25-20.44-49.25-48.27-49.25M259.74,213.38c-18.22.18-33.13-14.44-33.32-32.66,0-.07,0-.14,0-.21,0-18.4,14.96-32.87,33.32-32.87s32.89,14.73,32.89,32.89-14.73,32.89-32.89,32.89M207.7,227.71h18.93v-11.9c9.15,9.09,21.54,14.17,34.44,14.13,28.4,0,50.74-22.12,50.74-49.43s-22.34-49.62-50.74-49.62c-12.84-.06-25.17,5.01-34.26,14.09v-47.39h-19.11v130.12ZM140.49,212.48c18.37,0,32.56-13.94,32.56-34.57v-80.31h19.89v130.12h-19.69v-12.12c-8.9,9.11-21.2,14.31-35.02,14.31-28.39,0-50.17-20.25-50.17-50.92v-81.39h19.85v80.27c0,21.01,14.01,34.57,32.56,34.57"/>
</svg>