<?xml version="1.0" encoding="UTF-8"?>
<svg id="Layer_1" xmlns="http://www.w3.org/2000/svg" version="1.1" viewBox="0 0 1200 214.8">
  <!-- Generator: Adobe Illustrator 29.5.0, SVG Export Plug-In . SVG Version: 2.1.0 Build 137)  -->
  <path d="M298.8,26.9c-16.3-11.2-35.7-17.3-55.5-17.3V0c-59.3.1-107.3,48.1-107.4,107.4,0,21-17.1,38.1-38.1,38.1v9.7c-26.4.1-47.8-21.3-47.9-47.7,0-26.4,21.3-47.8,47.7-47.9,11.2,0,22,3.9,30.6,11,5.2-16.1,13.7-31,25-43.6C108.7-3.6,47.9,7.5,17.2,52-13.4,96.4-2.3,157.3,42.2,187.8c16.3,11.3,35.7,17.3,55.6,17.3v9.7c59.3-.1,107.4-48.1,107.4-107.4s17.1-38.1,38.1-38.1v-9.7c26.4,0,47.8,21.3,47.9,47.7,0,26.4-21.3,47.8-47.7,47.9-11.2,0-22-3.9-30.6-11-5.2,16.1-13.7,31-25,43.6,44.4,30.6,105.3,19.4,135.9-25,30.6-44.5,19.4-105.4-25-136Z"/>
  <path d="M563.9,78.6c-27,0-47.6,19.9-47.6,47.5s20.5,47.8,47.6,47.8,47.6-21.6,47.6-47.8c0-27-19.7-47.5-47.6-47.5ZM563.9,155.3c-14.3,0-26.4-12.1-26.4-29.2s10.4-29,26.4-29,26.6,13.2,26.6,29-10.7,29.2-26.6,29.2Z"/>
  <path d="M734.4,78.6c-14.3,0-25.3,8.8-29.8,17.1-3.4-9.1-13.8-17.1-27.4-17.1s-20.4,6.2-26,14.2h-.4v-11.2h-20.7v89.1h20.9v-48.6c0-15.8,7.8-25.1,20.1-25.1s17.7,9.7,17.7,22.1v51.5h20.8v-48.6c0-17.3,9.7-25.1,19.9-25.1s17.9,10.4,17.9,22.1v51.5h20.6v-51.4c0-26.3-13.3-40.5-33.6-40.5Z"/>
  <path d="M893.8,78.6c-14.3,0-25.3,8.8-29.8,17.1-3.4-9.1-13.8-17.1-27.4-17.1s-20.5,6.2-26,14.2h-.4v-11.2h-20.7v89.1h20.8v-48.6c0-15.8,7.8-25.1,20.1-25.1s17.7,9.7,17.7,22.1v51.5h20.8v-48.6c0-17.3,9.7-25.1,19.9-25.1s17.9,10.4,17.9,22.1v51.5h20.6v-51.4c.2-26.3-13.2-40.5-33.5-40.5Z"/>
  <polygon points="933.9 62.9 951.9 62.9 951.9 170.7 973.1 170.7 973.1 43.8 933.9 43.8 933.9 62.9"/>
  <path d="M1043.5,39.7h0Z"/>
  <path d="M1043.5,39.7c-22.5,0-47.4,18.1-47.4,66.8s25.5,68.3,46.9,68.3,46.5-12.9,46.5-68.9-24.6-66.2-46-66.2ZM1043.3,156c-14.7,0-25.1-14-25.1-50.1s11.8-47.5,24.8-47.5h0c15.3,0,24.8,15.6,24.8,48-.1,36.6-12.2,49.6-24.5,49.6Z"/>
  <path d="M1154,39.7c-22.5,0-47.4,18.1-47.4,66.8s25.5,68.3,46.9,68.3,46.5-12.9,46.5-68.9-24.6-66.2-46-66.2ZM1153.8,156c-14.7,0-25.1-14-25.1-50.1s11.8-47.5,24.8-47.5h0c15.3,0,24.8,15.6,24.8,48-.1,36.6-12.2,49.6-24.5,49.6Z"/>
  <path d="M1154,39.7h0Z"/>
  <path d="M476.5,40c-38.3,0-67.6,28.2-67.6,67.3s29,67.8,67.6,67.8,20.8-2.3,30.2-6.8c-4.2-5.8-7.4-12.2-9.7-19h0c-6.4,3.1-13.4,4.7-20.5,4.7-26.5,0-46.5-20.1-46.5-46.7s19.5-46.2,46.4-46.2,27.6,5.9,35.9,15.7c4.9-5.1,10.6-9.4,16.8-12.8-12-14.7-30.4-24-52.6-24Z"/>
</svg>