<?xml version="1.0" encoding="UTF-8"?>
<svg id="Layer_1" xmlns="http://www.w3.org/2000/svg" version="1.1" viewBox="0 0 612 792">
  <!-- Generator: Adobe Illustrator 29.5.0, SVG Export Plug-In . SVG Version: 2.1.0 Build 137)  -->
  <defs>
    <style>
      .st0 {
        fill: #383838;
      }
    </style>
  </defs>
  <path class="st0" d="M335,185.6c1.7,9.4-4.1,18-13.2,16.3-2-7.1,3.3-16.2,13.2-16.3"/>
  <path class="st0" d="M281.4,158.3c3.3-1.9,6.7-2.6,9.9-2.6-.6-.8-1.2-1.6-1.8-2.4-.2-.3-.5-.6-.8-1-2.6-3.3-6.9-8.9-2.8-12.1,2.5-2,12.2,7.6,12.5,7.6.2-.2-9.9-14-5.8-23.4-10-7.2-21.7-8.6-31.5-8.7-.8,20,6.3,34.1,20.2,42.6"/>
  <path class="st0" d="M317,145c.5-.4,1.2-1,1.9-1.6,3.1-2.8,5.7-5.1,7.8-5.1.6,0,1.2.2,1.8.7,3.8,3.5-.8,8.8-3.6,11.9-.3.3-.6.7-.8.9-.6.7-1.1,1.3-1.7,2,3.4,0,7.1.6,10.7,2.8,13.7-7.8,21.4-22.1,21.9-41.6-10.8-.6-19.9-.9-31,7.8,2.3,4.1-4.3,18.1-6.8,22.1"/>
  <path class="st0" d="M294.5,158.7c-3.5-.5-6.5-.2-9.1.9-.8.3-1.6.7-2.3,1.2-.3.2-.6.4-.9.6-.4.3-.7.5-1,.8-3.7,3.2-6,7.5-7.3,14,17.4,6.9,24.5-11,24.8-11.6-.9.4-10.3,6-12.5,3.1-2.2-2.9,6.4-8.4,8.4-9.1"/>
  <path class="st0" d="M388.4,169.7c-1.6,3.5-5,14.9-5.5,16.1,0,0-4.6-7-6.2-8.8.6-6.1-5.6-17.6-16.2-17.4-4.4.1-8.7.9-13.6,1.5,3.6,6.9,6.1,12.7,13.4,16.3,4.8,2.4,9.9,2.2,13.4,2.5,1.8,1.9,6.5,8,7.2,9-8.5-5.3-18-2.2-22,3.6,4.5,6.4,16.9,6.8,24.2.1.9,1.5,1.7,3,2.4,4.6,1.4,3.4,6,14.2,6.5,17.8.4,2.9,4.9,1.9,4.5-1-.8-5.1-8.6-22.4-8.6-22.4-.7-2-.7-3.1-.4-4.5,1.2-4.9,3.1-9.6,4.8-14.6,0-.2.1-.3.2-.5,1.2-2.7-2.7-5-3.9-2.3"/>
  <path class="st0" d="M216.4,468.5c-.1,0-.4.1-.5.2-.5.3-1.5.3-2.9.4-1.4,0-21,0-22.2,0-2.1,0-4.4-.2-6.7-.2s-.9.1-.9.5.5.4,1,.4c.5,0,1.1,0,1.5.1,1.9.4,2.4,1.4,2.5,3.4.1,1.9.1,3.5.1,12.8v10.4c0,5.6,0,9.7-.2,12.2-.2,2.6-.6,3.5-1.8,3.8-.4.1-.9.2-1.5.2-.5,0-.6.2-.6.4,0,.4.3.5.9.5,1.4,0,4.1-.1,5.3-.2h.5c.3,0,4,.2,7.3.2s.9-.1.9-.4-.2-.4-.7-.4c-.7,0-1.7-.1-2.4-.2-1.6-.2-2.2-1.5-2.4-4.1-.2-2.7-.2-6.9-.2-11.9v-5c0-.4.1-.5.4-.5,1,0,7.4,0,8.9.2,3.1.4,3.2,2.5,3.4,3.8,0,.6.1,1,.5,1s.4-.4.4-1c0-.9,0-2.3.2-4.1.2-1.9.5-3,.5-3.3s0-.5-.3-.5-.4.2-.6.6c-.8,1-1.6,1.1-4.7,1.1-2.4,0-5.8,0-8.2,0s-.4-.2-.4-.5v-16.3c0-.5.2-.6.5-.6,3,0,13.7.1,16.7.2,1.7,0,2.8.5,3.5,1.1.8.7,1.1,2.1,1.1,3,0,.5.1.8.4.8s.5-.5.5-1.2c.1-1.7.1-2.6.4-4.3.1-.7.4-1.5.4-1.8s-.1-.5-.4-.5"/>
  <path class="st0" d="M248.3,494.1h-11.3c-.2,0-.3-.1-.2-.4l5.2-15.9c.3-.9.6-.9.9,0l5.6,15.9c0,.2,0,.4-.2.4M265.9,512.8c-.5,0-1.4,0-2.3-.4-1.2-.4-3-1.3-5.1-6.6-3.6-9-12.9-33.4-13.8-35.6-.7-1.8-.9-2.1-1.3-2.1s-.6.4-1.3,2.3l-13.4,36.7c-1.1,2.9-2.2,5.2-5,5.6-.5,0-1,.1-1.4.1s-.8.1-.8.4c0,.4.4.5,1.1.5,2.8,0,6-.2,6.7-.2s3,.2,4.4.2,1.1-.1,1.1-.5-.2-.4-.8-.4h-.5c-1,0-2.1-.5-2.1-1.7s.3-2.5.8-4l3.5-10.5c.1-.3.3-.5.6-.5h12.7c.3,0,.4.1.5.4l5.5,14.5c.4.9,0,1.5-.4,1.6-.2,0-.4.2-.4.4,0,.4.6.4,1.8.4,4.1.1,8.4.1,9.3.1s1.2-.1,1.2-.5-.3-.4-.7-.4"/>
  <path class="st0" d="M316,510.3c3.1,3.1,3.8,3.8,4.3,3.8s.5-.3.5-4.2v-34.5c.1-4.1.5-5,2.2-5.3.7-.1,1.1-.2,1.5-.2.4,0,.6-.2.6-.4,0-.4-.4-.4-1.1-.4-2.4,0-4.4.2-5,.2s-3.5-.2-6.1-.2-1.2,0-1.2.4c0,.2.2.4.8.4s1.5,0,2.5.3c1.8.5,2.2,1.8,2.3,5.6l.7,30c-1.9-2-8.3-9.2-14.2-15.4-9.1-9.7-17.9-19.2-18.8-20.3-.6-.6-1.6-1.9-2.1-1.9s-.6.6-.6,3c0,11.5,0,3.8,0,25.1v8.7c0,5.4-.3,7.1-1.8,7.5-.9.3-1.9.4-2.4.4s-.5.1-.5.4c0,.4.4.5.9.5,2.7,0,5.1-.2,5.7-.2s2.9.2,6.3.2,1.1-.1,1.1-.5-.2-.4-.5-.4c-.5,0-1.8,0-3-.4-1.6-.5-2.2-2-2.3-6.9l-.8-28.3c1.9,2.1,8.6,9.6,15.4,16.9,6.3,6.7,14.8,15.4,15.4,16"/>
  <path class="st0" d="M376.1,468.6c-.2,0-.8.2-1.7.3-.9.2-2.3.3-4.2.3h-22.1c-.7,0-3-.1-4.7-.3-1.6-.1-2.2-.7-2.6-.7s-.5.8-.6,1.1c-.1.5-1.3,5.6-1.3,6.1s.1.5.3.5.4-.1.6-.6c.2-.4.4-.8,1-1.8.9-1.4,2.4-1.8,6-1.9,2.9,0,5.8,0,8.7-.1v25c0,5.7,0,10.3-.3,12.8-.2,1.7-.5,3-1.7,3.2-.5.1-1.2.2-1.8.2s-.5.2-.5.4c0,.4.3.5.9.5,1.8,0,5.5-.2,5.8-.2s4,.2,7.3.2.9-.2.9-.5-.1-.4-.5-.4c-.5,0-1.8-.1-2.7-.2-1.8-.2-2.1-1.5-2.3-3.2-.3-2.5-.3-7.1-.3-12.8v-25c2.5,0,5,0,7.4.1,5.7.1,7.1,1.5,7.3,3.2,0,.2,0,.4,0,.7,0,.8.2,1,.5,1s.4-.2.4-.8.2-4.7.2-6.5,0-.7-.3-.7"/>
  <path class="st0" d="M409.7,494.1h-11.3c-.2,0-.3-.1-.2-.4l5.2-15.9c.3-.9.6-.9.9,0l5.6,15.9c0,.2,0,.4-.2.4M427.3,512.8c-.5,0-1.4,0-2.3-.4-1.2-.4-3-1.3-5.1-6.6-3.6-9-12.9-33.4-13.8-35.6-.7-1.8-.9-2.1-1.3-2.1s-.6.4-1.3,2.3l-13.4,36.7c-1.1,3-2.2,5.2-5,5.6-.5,0-1,.1-1.4.1s-.8.1-.8.4c0,.4.4.5,1.1.5,2.8,0,6-.2,6.7-.2s3,.2,4.4.2,1.1-.1,1.1-.5-.2-.4-.8-.4h-.5c-1,0-2.1-.5-2.1-1.7s.3-2.5.8-4l3.5-10.5c.1-.3.3-.5.6-.5h12.7c.3,0,.4.1.5.4l5.5,14.5c.4.9,0,1.5-.4,1.6-.2,0-.4.2-.4.4,0,.4.6.4,1.8.4,4.1.1,8.4.1,9.3.1s1.2-.1,1.2-.5-.3-.4-.7-.4"/>
  <path class="st0" d="M415.8,338.6c-10.1-8.5-19.4-8.1-29,.9-1.6,1.5-9.7,5-11.9,5.3,1-4,2.5-7.4,3.2-12.5.4-2.5.3-4.3-.6-4.6-2.1-.6-3.4,4-3.6,4.6-2.1,5.7-2.2,7.7-4.6,13-.8,1.7-11.3,6.5-14.4,8.4-.3.1-.5.3-.8.4,0,0,0,0,0,0-.5.3-1.1.7-1.6,1-2.4,1.6,0,6.3,2.4,4.7.8-.5,1.5-1,2.3-1.4,0,0,0,0,0,0,4.7-2.8,9.6-5,14.5-6.7-.7,6.9,3.2,12,12.2,11.1.5-7.9-2.9-11.9-8.1-12.4.7-.2,8.9-4.4,12.5-4.8.7.6,7.8,9.8,14,10.3,8.7.6,16.7-1.5,25.5-5.4-4.3-4.3-7.8-8.4-11.9-11.9"/>
  <path class="st0" d="M371.9,264.8c.3-.5.5-1.1.7-1.6h0c-.2.5-.4,1.1-.7,1.6.2.3.4.5.6.8-.2-.3-.4-.5-.6-.8M242.4,391.9c1.2-.4,3.4-1.6,4.2-1.9,13.2-.5,44.6,22.4,48.9,25.6.5,14.2,2.2,36,2.7,43.3h4.3s4.2,0,4.2,0c.3-12-.3-25.5,0-34.8,1.7-.9,53.3-42.6,84.7-48,7.6,7.1,18.6,6,25.9-3.2-8.5-9.5-20.1-10-27.1-1.7-24.3,3.7-45.9,21.8-55.5,27.6,8.1-11.2,12.1-22.7,12.9-29.6,5-8.6,1.9-18.7-8.2-24.2-7.8,10-6.4,21.4,2.9,26.9-.6,12.2-21.3,33.5-23.9,35.7,1.8-12.7,5.2-23.1,14.8-32.2,2.4-2.2-1.2-5.8-3.6-3.6-11.8,11-14.7,23.3-16.6,38.6-1,.6-6.3,4.2-7.3,4.7-1.4-15.1-.5-30.3-.5-32.7-.3-18.6,20.3-35.7,26.4-42.7,12.4-5.8,25-10,35-15.6,23.4-13.1,40.1-45.8,42.1-60.8,13.5-11.4,16.7-32.3,4-49.1-19.5,14.2-20.6,33.2-8.5,49-1.8,8.5-11.1,29.2-16.7,34.8-1-6.6-12-31.7-7.9-48.3,1.7-6.9,2-16.8,1.3-26.9-.2-3.3-5.7-1.8-4.9,1.4,2.6,10.4-.5,25.3-3.5,37,1-9.8-6.4-20.3-16.3-19.9-4.1,12.1,2.1,22.6,14.1,22.6,4.8,7.7,7.1,16,9.6,24.1,8.3,27.2-34.7,38.3-43.3,44.8,7.7-8,26.7-30.5,25.6-41.8-.3-3.2-5.5-3.6-5.1-.4,1,8.1-8.6,18.8-12.7,26.4-1-10.4-1.8-16-2.5-27.5,8-7.6,7.2-19.1-2.3-26.7-9.5,8.5-10.1,20.1-1.8,27.1.4,9.1,1.6,18.5,1.5,27,0,4.5-1,5.3-1.9,7.6,1.1-9.6-5.4-18.7-16.5-20-3.6,12.5,2.3,22.7,13.4,23.9,0,0-.1.2-.2.3-1.2,1.2-28.5,30.6-27.8,28.2,2.9-36.4-4.6-57.6,12.6-99.7.5-.5.8-1.1.8-1.8,2.5-5.7,10.9-17.1,14.5-22.3,1.3-.4,2.7-.5,4-.8,1.3-.4,2.8-.2,4-.7,2.9-1.2,6.1-2.2,8.3-4.2,6.4-6,9.5-13.9,12.1-23.1-6,.6-11.5.7-16.8,1.6-13,2.3-18.6,9.8-17.8,22.9,0,1.3.1,2.7.2,4.1-1.5,2.7-8.5,11.3-9.8,14.1-2.4-17.7-1.4-33.1,9.9-48,2-2.6-2.4-5.1-4.4-2.6-13.7,18.1-12.6,38.2-9.3,59.2-2.7,6.6-5.1,13.4-7.3,20-2.9-8.6-6.6-16.7-10.7-24.3,1.3-9.3,2.9-20,4.3-29.7,5.9-6.8,5.7-15.6-4.2-23.6-11.3,9.9-10,19.9-1.3,26.5l-2.5,17.7c-2.3-4-4.8-7.9-7.4-11.7.8-16.6-11.5-30.1-32-33.1-3,20.7,9.8,37.7,29.8,39,4.8,8.8,9.3,18.4,14.9,29.5,10.6,20.8-.6,65.1-1.9,94.1-3.9-5.7-19.9-14.6-22.8-40-.3-15.9,5.2-21.9,11.8-32.7.5-.2,3.9-7.5,3.5-7.8,2.3-8.1,2.4-16.4.2-24.8-.8-3.2-5.7-1.8-4.9,1.4,2.4,9.2,1.8,18.6-2.1,27.4-3.1,5.2-7.5,12.8-9.8,16.6-1.3-2.4-1.4-7.9-3-10.8,9.6-24.8-2.3-44.8-22.4-54.7-8.4,17.1-2.5,46.7,16.9,53.8,2.1,5.4,3.1,9.8,4.1,15.2.2,1.4.4,5.4.4,7.4-3-7.8-9.1-14.2-18.3-12.7-2.4,7.8,7.1,20.6,17.9,17.4,0,0,0,0,0,0-.8,5.6,0,10.8,1.8,15.8-5.2-2.7-10.3-5.8-14.8-9.6-8-6.9-11.3-16.1-16.4-25-6-18.1-7.6-36.5-6.3-55.4,8.4-7.6,7.7-19.3-2-27.1-9,8.1-10,18.9-3,26-.6,5.1-.8,10.1-.8,15.1-9.6-6.4-16.2-16-18.9-27.3-.2-.8-.9-7.7-.4-10.6h0s0,0,0-.1c.4-2.3,9.3-11.2,10.3-12.9,3-4.9,3.7-10.5,3.8-16.9-3.8,1.4-7.4,2-10.5,3.9-13.2,8.3-8.4,21.6-7.6,25.4-3.5-2.8-7.2-5.4-11.2-7.7-2.5-1.5-5.2,2.2-2.7,3.7,3.7,2.2,7.3,4.7,10.7,7.4.4.4.8.8,1.2,1.3,1.1,1.2,1.4,3.2,1.6,4.9,0,.3,3.4,24.8,23.5,34.8,0,0,.2,0,.2.1.3,7.1,1.2,14.2,2.5,21.5-6.7-4.7-13-8.2-20.6-9.6-.8-2,.3-4.3.6-6.5.2-1.3,1-2.7,1-4,0-3.1.4-6.5-.6-9.3-3-8.2-9-14.2-16.4-20.2-1.9,5.7-3.9,10.8-5.2,16.1-3,12.8,1.7,20.9,14,25.4,1.8.7,5.5,2.5,5.4,2.6,13,5.2,24.6,13.2,29.2,26.2,4.2,7.8,7.8,15.6,14.8,21.7,6.5,5.6,14.1,9.6,21.8,13.4.4.7.8,1.3,1.2,2,5.7,9.4,20.4,27.1,20.7,27.2.5,8.4-.4,24.9.2,40.7-3.8-2.8-12.6-9.1-13.1-9-10.9-9.5-16.5-22.1-20.8-35.3,6.8-8.9,4.1-20.3-6.8-26.2-7.4,9.4-6.6,20,1.3,25.8,2.5,9.5,6.5,19.1,11.3,27.5-1.3-.3-2.8-1.6-4.1-1.9-6.9-8.7-20.3-34.4-21.3-34.4-8.7-10.8-17.4-26.1-20.5-39.7,7.1-5.6,7.1-15.9,1.2-22.9-9.5,5.1-7.5,14.9-4.2,22.2-3.9-3.5-15.1-12.1-19.7-14.7-9.1-5.3-18.2-11.7-20.4-22.9-.7-3.2-5.6-1.8-4.9,1.4,4.6,22.6,27.6,24,43,42.3,1.2,1.4,8.4,15.7,10.8,23-2.7-.9-5.5-1.8-8.3-2.7-4.2-18.6-18.3-26.5-37.9-20.4,3.8,21.9,16.3,32.6,38.4,25.7,8.3,3.1,15.7,7.6,20.9,15.5.8,1.2,1.5,2.5,2.5,4.2,0,0,0,0,0,0,3.6,7.7,7.8,14.9,12.7,21.8-1.6-.4-5.1-1.4-6.7-1.7-.1-1.2-.5-2.8-1.1-4.8-1.1-4.3-3.6-8.5-8.4-10.7-7.2-3.4-14.9-2.9-22.6-2.1-2.6.3,4.6,14.8,8.8,19.4,4.5,5,10.7,5.7,17.1,3.8"/>
  <path class="st0" d="M308.3,160.5c3.6-.2,6.5-3.2,6.3-6.9-.2-3.6-3.2-6.5-6.9-6.3-3.6.2-6.5,3.2-6.3,6.9.2,3.6,3.2,6.5,6.9,6.3"/>
  <path class="st0" d="M423.7,311.1c-.3,0-11.6-.3-16.9-.9.9-1.5,1.8-3.1,2.7-4.6,1.7-.8,3.2-1.5,4.8-2.2,9.4-4,12.7-10.6,9.8-20.5-1.2-4.1-3-7.9-4.8-12.3-5.5,5.1-9.8,10.1-11.9,16.6-1.5,4.9.7,9.3.9,10.3.1.7.4,1.3.6,2-1.4,2.4-3,4.7-4.7,6.9,0,0-.1,0-.2,0h0c-2.5,3.2-5.4,6.2-8.6,9-3.6,2.6-7,5.4-10.3,8.5-1.9,1.8.7,5,2.6,3.2,1.8-1.7,5.7-4.9,5.7-4.8.9-.7,3.7-3.1,4.3-3.5,0,0,5.4-3.8,7.3-3.8.2,0,.3,0,.5,0h0c5.3.8,10.6,1.1,16,1.1,4.9,5.4,11.6,5.9,17.4-1.6-5.6-6.1-11.1-6.5-15.2-3.3"/>
  <path class="st0" d="M234.2,169.7c.1.2,2.9,7.2,4.8,11,.9-1.1,1.9-2.1,2.8-3.2.2-1.5.3-2.8.4-4.2.6-8.2,4.8-12.3,13-12.7,3.4-.1,6.8.3,10.6.5-1.7,26.1-22.5,21.4-22.5,21.4-1.8,2.8-5,9.5-6.2,12.7-1,3.4-2,5.2-3.5,8.4-.9,1.9-5.2,1.7-2.5-4.2.8-1.8,2.2-5.5,2.2-5.5.3-.9,1.4-3.6,1.6-4.2,0,0,1.5-5.1,1-6.5,0-.1-2.9-8-4.2-12.1-5.3-2.3-8.2-7.3-4-13.7,6.1,2.7,9.4,6.8,6.7,12.2"/>
  <path class="st0" d="M316.2,163.8c.3.5,8.4,18.1,25.2,9.8-1.9-6.3-4.5-10.5-8.4-13.3-.3-.3-.7-.5-1.1-.7-.3-.2-.6-.4-1-.5-.8-.4-1.6-.8-2.4-1-2.7-.9-5.7-.9-9.1-.2,2.1.5,11,5.4,9.1,8.4-1.9,3-11.3-2-12.2-2.4"/>
  <path class="st0" d="M308.1,196.5c5.5-5.8,8.1-11,8.7-16.8,0-.5,0-1,.1-1.6,0-.4,0-.9,0-1.3,0-1.1-.2-2.1-.4-3.2-.7-3.4-2.1-6.9-4.9-10,.7,2.5.7,15.1-3.6,15-4.3-.1-5.3-12.9-5.5-14.1-.3.6-13.1,19.5,5.6,32"/>
  <path class="st0" d="M302.2,144.1c0-3.8-2.1-16.2,4.6-16.8,7-.7,6.1,14.4,6.3,15.8.4-.8,15.8-23.4-6.7-38.4-6.6,6.9-9.8,13.1-10.5,20.1,0,.6-.1,1.2-.1,1.9,0,.5,0,1.1,0,1.6,0,1.3.2,2.6.5,3.8.9,4,2.5,8.3,5.9,12.1"/>
  <path class="st0" d="M306,634.8c-.7-.5-4.5-4.3-4.3-10.3,0-1.3.9-38.8,1-40.4,0-2,2.9-1.9,3,0,0,2.1,1.3,33.1,1.3,38,0,.9.3,13.8.3,13.8M344.3,642.2c.7-.2,4.2-.8,5.7-1.5,1.2-.6.8-1.1-.1-1.1-1.5-.1-4.4,1.3-5.8.9-9.2-2.4-11.1-11.8-20.4-13.8,0,0-2.3-1-4.4-3.3-2.2-2.4-1.1-19.9-1.1-28.3,0-3.4.4-7,.4-10.2,0-15.4-3.2-20.2-4.6-21.6-2.6-2.5-4.2-2.5-4.5-3.7-1.4-4.5-1.8-22.2-2-28.6,0-2.6,0-5.3,0-7.9h-6.5c0,2.6,0,5.3,0,7.9-.2,6.4-.6,24-2,28.6-.3,1.1-2.1,1.1-4.5,3.7-1.2,1.3-4.3,6.5-4.3,21.8s4.2,37.1-3,41.4c-4.3,2.7-4.4,2.9-10.4,5.8-6.1,3-10.3,4.8-12.6,5.2-2.3.4-5.3,0-6.5.2-.9.2-.7.9-.6,1.3,0,.5,5.5.3,6.9.1-.4,1.9-2.8,7.1-1.2,6.9,1.7-.2,1.4-6,3.9-7.4,2.2-1.3,8-3.6,10.8-4.9,3.8-1.9,10.1-5.5,10.1-5.5,0,0-8.4,7.6-11.6,11-1.5,1.6-3.1,4.6-1.9,5,1.2.4,2-2.8,3.8-4.3,2.1-1.8,3.5-3.6,3.7-3.8l.4,5.2s.6,1.8,1.1,1.5c1.1-.7,0-7.2.6-8,3.7-5.2,7.7-6.1,7.4-5.5,0,.2-.9,3.5-1.1,4.7-.6,2.9-2,5.5-4.3,8.1-.8.9-1.6,1.8-2.5,2.7-1,1-21.1,6-21.7,5.9-1.4-.3-5.6-1.7-5.8-1.3-.6.9,3.7,2.1,5,2.7-1.2,1.3-3.1,2.3-4.5,3.6-1,.9,0,1.5.6,1.1.8-.6,3.9-2.8,7.5-4.4,4.2-1.9,13.9-3.2,15.2-3.6,0,.3-10.2,10.8-10.7,10.7-.9,0-2.8-.3-4-.4-1.3,0-1.1.5-.4.7,1.1.4,3,.8,3.9,1.1-.8,1.1-4.4,4.9-3,5.2.8.1,11.6-11.9,14.9-14.3,0,.2-3.9,13.8-3.7,14,0,0,.2.1.3.1.2,0,.4-.2.5-.2,1-.8,1.9-5.2,1.9-5.2,0,0,1.1,4.3,2.6,4.7.2,0,1.1.1.9-.2-4.2-6.5-1.3-12.3,1.1-16.3.2,1.9,2.6,10.4,3.2,10.5,1.1-.3-1.1-7.5-1.1-7.5l3.2,2.4c.3.1.6,0,.7-.1.1-.2-.3-.7-1.7-1.9-2.7-2.2-2.2-4.1-.7-6.8,1.2-2.2,5.7-5.6,6.4-17.7-.2-4.5.6-13.5.7-19.5.2-11.9.8-21.5.8-23.5,0-1.6,2.7-2.5,2.8.1,1.1,10.8,2.1,33.5.5,41.4l-2.9,6.9h0c-1.2,4.8.2,15.5,4.7,16.6,1.4.3-1.5-3.6-2-4.4-.4-.7-1.7-7.8-1.4-9.9,0,0,2.5,4.1,4.4,6,.8.9,1.5,1.3,1.7.9.4-.6.2-.6-.3-1.4-.6-1.2-5.2-6.5-4.7-8.7.1-1,.6-1.8,1.9-4.2.5,1.8,2.2,5,3,6.3.9,1.2,4.5,4.3,4.5,4.3l-.4,5.5c0,6.5-7.9,7.7-12.1,10.5-4.2,2.8-13.2,14-18.4,18.6-.4.4-1.2.6-1.7.5-1.5-.1-5.9-.9-6.1-.8-2,1.1,4.7,2.2,5.8,2.5-.8,1.1-5.2,4.8-4.2,6.1.4.6,2.9-2.5,5.9-5.4,5.2-5.1,12.2-11.7,12-11.9-.2-.3-1.7,4.9-1,7.3.2.9,1.3,1.5,1.3-.2,0-2.3,1.5-8.3,2.3-9.5,1.6-2.2,3.9-4.3,5-4.9,0,0-4.7,7.4-4,9,.7,1.5,5-9.4,6.9-10.6,2.3-1.4,5.2-2.5,5.2-2.5-.9,2.1-2.3,4-4,6-1,1.1-5.6,10.2-6.3,11.5-1.9,3.4-4.3,14.5-4.1,14.7,0,0,.2.1.3.1.2,0,.4-.2.5-.3,1.2-1,1.9-7.3,1.9-7.3,0,0,.8,9.6,2.6,10,.3,0,.8.2,1-.2,0-.2-5.3-10.3,1.8-21.3.1,1.1,1.1,3.4,2,6,.6,1.9,1.7,5.4,2,6.9.2,1.2,1.4.5,1.4-.5,0-1.2-2.2-8.3-2.2-8.3,0,0,3.8,2.8,4,2.6,1.2-.8,0-1.1-.7-1.7-1.7-1.3-3.9-3.7-4.1-4.8-.4-1.6-.5-3,.6-4.4.4-.5.9-1,1.3-1.5h.1c.8-1.1,1.7-2.1,2.5-3.2,1.9-2.4,3.2-4.7,3.9-7,1.1,2.7,6.9,8.5,6.5,11.2-.5,2.7-8.8,8.5-7.3,9.1,1,.4,7.9-6.3,8-6.4,0,.6-1.1,6.9-4.8,13.1-.8,1.3-3.1,4-2.2,4.9,1.3,1.2,5-5.1,6.2-7.7.4,1.9-.8,13.6.3,13.6,1.5,0,1.4-6.3,1.3-9.5,0-2.9-.1-9.7.6-12.6.2,1.1,3.1,5.5,2.8,10.2,0,1.2.9,1.3,1,.5,1.2-7-3.9-15.5-4.6-17.8,4.9,2.7,8.9,6.3,9,6.4l-.5,3.4c-.1,3,0,3.5.3,3.6.4,0,.5-.4.7-1.3.3-1.8.9-3.8,1-4.6,0,0,1.6,5.7,2.4,8.1.2.7,2.1,1.8,1-1.6-.8-2.5-1-4.8-1.2-5.4.3.3,4,3.7,4.2,4.1.3.5,1.4,1.6,1.4,2.1,0,1.5-1.1,4.1-1.3,5.7-.7,1.9,1.1,4.6,2.8-4.6,1.6,1,5.8,4.5,6.4,3.6.2-.3-1.3-1.9-3.3-3.6-3-2.7-15.8-14-19.3-15.9-5.5-2.9-9.4-8.6-9.9-15.1,0-.5,0-2.1.1-4,1.3,1.5,2.9,10.5,4.1,10.5,1.2,0-1.1-9.2-1.1-9.2,2.2,0,6.2,9.7,6.2,13.6,0,1,1.3,2.2,1.3.8.6-14.5-10.6-18.1-10.6-18.1-.8-39.5.5-48.9.7-51.7,0-1.1,0-2.4,1.4-2.4,1.4,0,1.4.9,1.5,2.4.1,4.9,1.9,27.2,1.7,37.4-.3,10.9,10.3,19.1,9.5,22.1,0,0-.5,5.8-.5,7.1,0,2.2.8,3.6,1.4,1,.2-.8.3-1.6.5-2.4.5-3.2.6-5.1.6-5.1,1.2,1.4,6.1,4.4,5.9,8,0,.7-.3,11.6.7,11.7.9.1.8-2,.8-2,0-.5.6-8.5.7-8.8,1.2,1.3,8,7.5,11.4,11.4,4.1,4.6,5.4,2.5,1.8-1.2-1.6-1.7-2.8-2.8-3.4-3.7.7-.2,2.9-.7,4.3-1.1,1.4-.4,3.3-1.3,2.2-2-.2-.1-5.9,1.8-6.7,1.3-8.2-5.8-13.4-12.6-17.5-17.5-5.3-6.2-6.5-8.3-7.9-13.3.8.4,4.2,1.6,5.3,5.9,1.1,4.4,1.7,5.6,2.9,5.6s-2-9.5-2-9.5c1.8,1.1,3.7,2.4,4.3,4.2.4,1.1,2.5,16.9,13.9,18.2,2.7.3.7-1.3.7-1.4-3.1-1.4-5.9-2.3-7.5-4.5-3-3.9-3.5-9.5-3.6-10.2,3.5,3.7,11.3,8.7,14.2,10.6,1.3.8,5.6,4.5,6.9,3.9,1.8-.7-6.2-5.6-9.7-8.3"/>
</svg>