<?xml version="1.0" encoding="UTF-8"?>
<svg id="Layer_1" xmlns="http://www.w3.org/2000/svg" version="1.1" viewBox="0 0 150 27">
  <!-- Generator: Adobe Illustrator 29.5.0, SVG Export Plug-In . SVG Version: 2.1.0 Build 137)  -->
  <path d="M27.7,1.5c0,0-.2,0-.3.1-.3.2-.8.2-1.5.2-.7,0-11.2,0-11.8,0-1.1,0-2.3,0-3.5,0s-.5,0-.5.2.3.2.5.2c.3,0,.6,0,.8,0,1,.2,1.3.7,1.3,1.8,0,1,0,1.9,0,6.8v5.5c0,2.9,0,5.1-.1,6.5,0,1.4-.3,1.9-1,2-.2,0-.5,0-.8.1-.3,0-.3,0-.3.2,0,.2.2.3.5.3.8,0,2.2,0,2.8,0h.3c.2,0,2.1,0,3.9,0s.5,0,.5-.2,0-.2-.4-.2c-.3,0-.9,0-1.3-.1-.8,0-1.2-.8-1.3-2.2,0-1.4,0-3.7,0-6.3v-2.7c0-.2,0-.3.2-.3.5,0,4,0,4.7,0,1.6.2,1.7,1.3,1.8,2,0,.3,0,.5.3.5s.2-.2.2-.5c0-.5,0-1.2.1-2.2,0-1,.3-1.6.3-1.8s0-.3-.2-.3-.2.1-.3.3c-.4.5-.8.6-2.5.6-1.3,0-3.1,0-4.4,0s-.2,0-.2-.3V3.4c0-.3,0-.3.3-.3,1.6,0,7.3,0,8.9,0,.9,0,1.5.3,1.9.6.4.4.6,1.1.6,1.6,0,.3,0,.4.2.4s.3-.3.3-.6c0-.9,0-1.4.2-2.3,0-.4.2-.8.2-1s0-.3-.2-.3"/>
  <path d="M44.6,15.1h-6c0,0-.2,0,0-.2l2.8-8.5c.2-.5.3-.5.5,0l3,8.5c0,.1,0,.2-.1.2M53.9,25c-.3,0-.8,0-1.2-.2-.7-.2-1.6-.7-2.7-3.5-1.9-4.8-6.8-17.7-7.3-18.9-.4-1-.5-1.1-.7-1.1s-.3.2-.7,1.2l-7.1,19.5c-.6,1.6-1.2,2.8-2.6,2.9-.3,0-.5,0-.8,0s-.4,0-.4.2c0,.2.2.3.6.3,1.5,0,3.2,0,3.5,0s1.6,0,2.4,0,.6,0,.6-.3,0-.2-.4-.2h-.3c-.5,0-1.1-.3-1.1-.9s.2-1.3.4-2.1l1.9-5.6c0-.2.2-.3.3-.3h6.7c.2,0,.2,0,.3.2l2.9,7.7c.2.5,0,.8-.2.8-.1,0-.2,0-.2.2,0,.2.3.2.9.2,2.2,0,4.5,0,4.9,0s.6,0,.6-.3-.2-.2-.3-.2"/>
  <path d="M80.6,23.7c1.7,1.7,2,2,2.3,2s.3-.2.3-2.2V5.1c0-2.2.3-2.6,1.2-2.8.4,0,.6,0,.8-.1.2,0,.3,0,.3-.2,0-.2-.2-.2-.6-.2-1.3,0-2.3,0-2.7,0s-1.9,0-3.3,0-.6,0-.6.2c0,.1,0,.2.4.2s.8,0,1.3.2c1,.3,1.2.9,1.2,3l.3,15.9c-1-1-4.4-4.9-7.5-8.2-4.8-5.2-9.5-10.2-10-10.8-.3-.3-.8-1-1.1-1s-.3.3-.3,1.6c0,6.1,0,2,0,13.3v4.6c0,2.9-.2,3.8-.9,4-.5.2-1,.2-1.3.2s-.3,0-.3.2c0,.2.2.3.5.3,1.4,0,2.7,0,3,0s1.5,0,3.3,0,.6,0,.6-.3,0-.2-.3-.2c-.3,0-1,0-1.6-.2-.8-.3-1.2-1.1-1.2-3.6l-.4-15c1,1.1,4.5,5.1,8.2,9,3.3,3.6,7.8,8.2,8.2,8.5"/>
  <path d="M112.5,1.5c-.1,0-.4,0-.9.2-.5,0-1.2.2-2.2.2h-11.8c-.4,0-1.6,0-2.5-.2-.8,0-1.2-.4-1.4-.4s-.3.4-.3.6c0,.3-.7,2.9-.7,3.3s0,.3.2.3.2,0,.3-.3c0-.2.2-.4.5-1,.5-.8,1.3-1,3.2-1,1.5,0,3.1,0,4.6,0v13.3c0,3,0,5.5-.2,6.8-.1.9-.3,1.6-.9,1.7-.3,0-.7.1-.9.1s-.3,0-.3.2c0,.2.2.3.5.3.9,0,2.9,0,3.1,0s2.1,0,3.9,0,.5,0,.5-.3,0-.2-.3-.2c-.3,0-1,0-1.4-.1-.9-.1-1.1-.8-1.2-1.7-.2-1.3-.2-3.8-.2-6.8V3.1c1.3,0,2.6,0,4,0,3,0,3.8.8,3.9,1.7,0,.1,0,.2,0,.3,0,.4,0,.5.3.5s.2-.1.2-.4,0-2.5,0-3.4,0-.4-.2-.4"/>
  <path d="M130.3,15.1h-6c0,0-.2,0,0-.2l2.8-8.5c.2-.5.3-.5.5,0l3,8.5c0,.1,0,.2-.1.2M139.7,25c-.3,0-.8,0-1.2-.2-.7-.2-1.6-.7-2.7-3.5-1.9-4.8-6.8-17.7-7.3-18.9-.4-1-.5-1.1-.7-1.1s-.3.2-.7,1.2l-7.1,19.5c-.6,1.6-1.2,2.8-2.6,2.9-.3,0-.5,0-.8,0s-.4,0-.4.2c0,.2.2.3.6.3,1.5,0,3.2,0,3.5,0s1.6,0,2.4,0,.6,0,.6-.3,0-.2-.4-.2h-.3c-.5,0-1.1-.3-1.1-.9s.2-1.3.4-2.1l1.9-5.6c0-.2.2-.3.3-.3h6.7c.2,0,.2,0,.3.2l2.9,7.7c.2.5,0,.8-.2.8-.1,0-.2,0-.2.2,0,.2.3.2.9.2,2.2,0,4.5,0,4.9,0s.6,0,.6-.3-.2-.2-.3-.2"/>
</svg>