<?xml version="1.0" encoding="UTF-8"?>
<svg id="Layer_1" xmlns="http://www.w3.org/2000/svg" version="1.1" viewBox="0 0 637.3 169.8">
  <!-- Generator: Adobe Illustrator 29.5.0, SVG Export Plug-In . SVG Version: 2.1.0 Build 137)  -->
  <g>
    <path d="M125.7,79h.2v.7h-2.3c-2.2,0-4.1-.2-6.6-.2s-4.4.2-6.6.2h-2.3v-.7h.2c3.2,0,4.4-1.4,4.4-5.1V27.5l-18.1,44.7,3.2,7.6h-9.4l-21.3-48.8v37.7c0,5.1,2.3,10.3,7.6,10.4h.2v.7h-1.5c-1.7,0-4.1-.2-6.5-.2s-4.9.2-6.6.2h-1.5v-.7h.2c5.3,0,7.4-5.3,7.4-10.4V29.8c-1.3-3-3.2-4.1-5.4-4.1h-.6v-.7h13.9l20.1,46,18.6-46c1.3,0,3.6.2,5.8.2s2.9-.2,5.1-.2h2.3v.7h-.2c-3.2,0-4.4,1.4-4.4,5.1v43.1c0,3.8,1.2,5.1,4.4,5.1"/>
    <path d="M185.3,79.7c-1.8,0-4.3-.2-6.7-.2s-5.2.2-6.9.2h-2.6v-.7c2.5,0,3.9-1.2,3.9-2.9s-.2-1.8-.7-2.9l-3.5-8.6h-24.5l-1.4,3.6c-.6,1.5-1.1,3.8-1.1,5.2,0,3.3,2.3,5.5,6.2,5.5v.7h-1c-2.2,0-5.1-.2-7.4-.2s-4.9.2-6.6.2h-1.5v-.7c4.1,0,7.6-3.4,10.8-11.5l13.8-34.8-3.1-7.7h9.5l19.7,48.8c1.4,3.5,3,5.3,5.9,5.3v.7h-2.8ZM144.6,63.7h23.8l-12.1-30-11.7,30Z"/>
    <path d="M236.4,79.5c-2,0-3.5.2-5.8.2l-13.4-26h-9.5v20.1c0,3.8,1.1,5.1,4.3,5.1h.2v.7h-2.4c-2.1,0-4-.2-6.5-.2s-4.4.2-6.6.2h-2.4v-.7h.2c3.2,0,4.3-1.4,4.3-5.1V30.7c0-3.7-1.1-5.1-4.3-5.1h-.2v-.7h24.7c11.3,0,19,5.1,19,14.2s-6.7,14.6-18.9,14.6h-.8c2,3.3,3.6,4.4,10.9,4.4l7,13.8c3.1,6,4.6,7,8.1,7.1v.7c-4.3,0-5-.2-8-.2M218.5,25.8h-10.7v27h10.7c7.7,0,10.3-4.5,10.3-13.6s-2.3-13.4-10.3-13.4"/>
    <path d="M251.1,52.1c0-18.5,13.6-28,24.2-28s8.8,1.5,11.2,1.5,2.8-1,2.8-2.5l.6-.2,6.4,19.8-.6.2c-8-14.7-14.5-18.1-20.4-18.1-8.7,0-16.6,7.5-16.6,20.8s10.1,28.9,21.3,28.9,12.6-3.6,15.9-11l.6.2c-3.5,9-11.5,16.6-22.1,16.6s-23.4-11.7-23.4-28.2"/>
    <path d="M306.6,52.3c0-16.7,11.2-28.2,24.9-28.2s24.9,11.4,24.9,28.2-11.2,28.2-24.9,28.2-24.9-11.5-24.9-28.2M346.5,52.3c0-14.8-3.4-27.4-15-27.4s-15,12.6-15,27.4,3.4,27.4,15,27.4,15-12.6,15-27.4"/>
    <path d="M379.5,24.6h19.8c10.1,0,17.1,5.6,17.1,15.4s-6.9,15.8-17.6,15.8h-14.7v24h-4.5V24.6h0ZM384,51.7h15.1c8.8,0,12.5-4.7,12.5-11.6s-4.9-11.5-12.2-11.5h-15.4v23.1Z"/>
    <path d="M476.4,51.8c0,15.1-8.1,28.8-25.1,28.8s-24.6-12.5-24.6-28.4,8.8-28.4,25.2-28.4,24.6,11.9,24.6,28M431.4,51.9c0,12.6,7,24.5,20.1,24.5s20.1-11.6,20.1-24.6-6.7-24-20-24-20.3,11.7-20.3,24.1"/>
    <polygon points="490 24.6 494.4 24.6 494.4 75.7 524 75.7 523.2 79.7 490 79.7 490 24.6"/>
    <path d="M578.9,51.8c0,15.1-8.1,28.8-25.1,28.8s-24.6-12.5-24.6-28.4,8.8-28.4,25.2-28.4,24.6,11.9,24.6,28M533.9,51.9c0,12.6,7,24.5,20.1,24.5s20.1-11.6,20.1-24.6-6.7-24-20-24-20.3,11.7-20.3,24.1"/>
  </g>
  <path d="M247.3,131h5.4c3,0,4.6,1.6,4.6,3.8s-1.1,3-2.4,3.4c1.1.3,2.9,1.4,2.9,3.8s-2.3,4.5-5,4.5h-5.5v-15.5h0ZM252.3,137.7c2.7,0,3.7-1,3.7-2.8s-1.1-2.7-3.2-2.7h-4.3v5.5h3.8ZM248.5,145.4h4.3c2,0,3.7-1,3.7-3.3s-1.3-3.3-4.3-3.3h-3.7v6.6ZM266.3,140.7v-.4l-5.5-9.3h1.4c1.5,2.6,4.2,7.2,4.9,8.3.7-1.2,3.4-5.7,5-8.3h1.4l-5.8,9.4v6.1h-1.3v-5.8h-.1ZM296.9,146.5h-1c0-.2-.1-1-.2-2.5-.6,1.1-1.8,2.6-5,2.6s-6.7-3.4-6.7-7.8,2.4-8.1,7-8.1,5.6,1.8,6.1,4.6h-1.2c-.7-2.2-2.2-3.5-4.9-3.5-3.9,0-5.6,3-5.6,6.9s1.7,6.7,5.5,6.7,4.9-2.5,4.9-5.9v-.2h-5v-1.1h6.2v8.2h0ZM303.9,139.3v7.2h-1.3v-15.5h5.6c3.1,0,4.7,1.6,4.7,4.1s-1.2,3.3-2.9,3.6c1.6.4,2.6,1.4,2.6,4v.6c0,1.1,0,2.5.2,3.1h-1.3c-.3-.7-.2-1.9-.2-3.2v-.4c0-2.5-.7-3.6-3.7-3.6h-3.8,0ZM303.9,138.2h3.7c2.7,0,4-1,4-3s-1.2-3-3.6-3h-4v6h-.1ZM322,140.7v-.4l-5.5-9.3h1.4c1.5,2.6,4.2,7.2,4.9,8.3.7-1.2,3.4-5.7,5-8.3h1.4l-5.8,9.4v6.1h-1.3v-5.8h-.1ZM338.6,131c2.8,0,4.8,1.6,4.8,4.3s-1.9,4.4-5,4.4h-4.1v6.7h-1.3v-15.5h5.6ZM334.3,138.7h4.2c2.5,0,3.5-1.3,3.5-3.3s-1.4-3.2-3.4-3.2h-4.3v6.5h0ZM348.3,131h1.2v6.7h9.2v-6.7h1.2v15.5h-1.2v-7.6h-9.2v7.6h-1.2v-15.5ZM379.2,138.7c0,4.2-2.3,8.1-7.1,8.1s-6.9-3.5-6.9-8,2.5-8,7.1-8,6.9,3.3,6.9,7.9ZM366.5,138.7c0,3.6,2,6.9,5.7,6.9s5.7-3.3,5.7-6.9-1.9-6.7-5.6-6.7-5.7,3.3-5.7,6.8h-.1ZM384.3,146.5v-15.5h1.8c2.4,3.7,8,12.3,9,14h0c-.1-2.2-.1-4.5-.1-7v-7h1.3v15.5h-1.7c-2.3-3.6-8-12.6-9.1-14.3h0c.1,2,0,4.3,0,7.1v7.1h-1.3.1Z"/>
</svg>