<?xml version="1.0" encoding="UTF-8"?>
<svg id="Layer_1" data-name="Layer 1" xmlns="http://www.w3.org/2000/svg" viewBox="0 0 274.9 113.07">
  <defs>
    <style>
      .cls-1 {
        isolation: isolate;
        opacity: .3;
      }
    </style>
  </defs>
  <path d="m6.45,6.53h12.56l8.67,26.81h.11l8.73-26.81h12.5v41.08h-8.3v-31.5h-.11l-9.9,31.5h-6.33l-9.52-31.5h-.11v31.5H6.45V6.53Z"/>
  <path class="cls-1" d="m77.75,42.73c-1.28,1.78-2.89,3.15-4.84,4.12-1.95.96-3.97,1.45-6.06,1.45s-3.86-.35-5.62-1.04c-1.75-.7-3.28-1.69-4.58-2.99-1.3-1.29-2.31-2.85-3.06-4.67-.74-1.82-1.12-3.85-1.12-6.09s.37-4.27,1.12-6.09c.74-1.82,1.76-3.38,3.06-4.67,1.3-1.29,2.82-2.29,4.58-2.99,1.75-.7,3.62-1.04,5.62-1.04,1.84,0,3.52.35,5.03,1.04,1.51.7,2.79,1.69,3.83,2.99,1.05,1.3,1.85,2.85,2.42,4.67.57,1.82.85,3.85.85,6.09v2.73h-18.52c.32,1.66,1.01,2.99,2.08,3.97,1.06.99,2.38,1.48,3.94,1.48,1.31,0,2.42-.32,3.32-.96.91-.64,1.69-1.46,2.37-2.46l5.58,4.47h0Zm-6.76-12.41c.04-1.47-.41-2.73-1.33-3.77-.92-1.04-2.11-1.57-3.57-1.57-.89,0-1.67.16-2.34.47-.67.31-1.25.71-1.73,1.19-.48.48-.85,1.04-1.12,1.68-.26.64-.42,1.31-.45,2h10.54,0Z"/>
  <path class="cls-1" d="m99.35,26.38h-7.02v9.4c0,.78.04,1.48.11,2.12.07.64.23,1.19.48,1.65.25.47.63.82,1.14,1.07.51.25,1.2.38,2.05.38.43,0,.99-.05,1.68-.15.69-.09,1.22-.32,1.57-.67v7.25c-.89.35-1.81.58-2.77.7-.96.12-1.9.17-2.82.17-1.35,0-2.59-.16-3.72-.47-1.14-.31-2.13-.8-2.98-1.48s-1.52-1.56-2-2.64c-.48-1.08-.72-2.4-.72-3.95v-13.4h-5.11v-6.96h5.11v-8.35h7.98v8.36h7.02v6.96Z"/>
  <path class="cls-1" d="m102.23,19.41h7.98v4.52h.11c.85-1.74,1.86-3.05,3.03-3.92,1.17-.87,2.64-1.31,4.42-1.31.46,0,.92.02,1.39.06.46.04.88.12,1.27.23v7.95c-.57-.19-1.13-.34-1.67-.44-.55-.09-1.13-.15-1.73-.15-1.53,0-2.74.23-3.62.7-.89.47-1.57,1.11-2.05,1.94-.48.83-.79,1.83-.93,2.99-.14,1.16-.21,2.44-.21,3.83v11.78h-7.98v-28.19Z"/>
  <path class="cls-1" d="m120.73,33.51c0-2.24.37-4.27,1.12-6.09.74-1.82,1.76-3.38,3.06-4.67,1.3-1.29,2.82-2.29,4.58-2.99,1.75-.7,3.62-1.04,5.62-1.04s3.86.35,5.62,1.04c1.75.7,3.28,1.69,4.58,2.99,1.3,1.3,2.31,2.85,3.06,4.67.74,1.82,1.12,3.85,1.12,6.09s-.37,4.27-1.12,6.09c-.74,1.82-1.76,3.38-3.06,4.67-1.3,1.29-2.82,2.29-4.58,2.99-1.75.7-3.63,1.04-5.62,1.04s-3.86-.35-5.62-1.04c-1.75-.7-3.28-1.69-4.58-2.99-1.3-1.29-2.31-2.85-3.06-4.67-.74-1.82-1.12-3.85-1.12-6.09Zm7.98,0c0,2.13.56,3.85,1.68,5.16,1.12,1.32,2.69,1.97,4.71,1.97s3.59-.66,4.71-1.97c1.12-1.32,1.68-3.04,1.68-5.16s-.56-3.85-1.68-5.16c-1.12-1.32-2.69-1.97-4.71-1.97s-3.59.66-4.71,1.97c-1.12,1.32-1.68,3.04-1.68,5.16Z"/>
  <path class="cls-1" d="m169.62,26.38h-7.02v9.4c0,.78.04,1.48.11,2.12.07.64.23,1.19.48,1.65.25.47.63.82,1.14,1.07.51.25,1.2.38,2.05.38.43,0,.99-.05,1.68-.15.69-.09,1.22-.32,1.57-.67v7.25c-.89.35-1.81.58-2.77.7-.96.12-1.9.17-2.82.17-1.35,0-2.59-.16-3.73-.47-1.14-.31-2.13-.8-2.98-1.48-.85-.68-1.52-1.56-2-2.64-.48-1.08-.72-2.4-.72-3.95v-13.4h-5.11v-6.96h5.11v-8.35h7.98v8.36h7.02v6.96Z"/>
  <path class="cls-1" d="m170.53,33.51c0-2.24.37-4.27,1.12-6.09.74-1.82,1.76-3.38,3.06-4.67,1.3-1.29,2.82-2.29,4.58-2.99,1.75-.7,3.62-1.04,5.62-1.04s3.86.35,5.62,1.04c1.76.7,3.28,1.69,4.58,2.99,1.3,1.3,2.31,2.85,3.06,4.67.74,1.82,1.12,3.85,1.12,6.09s-.37,4.27-1.12,6.09c-.74,1.82-1.76,3.38-3.06,4.67-1.3,1.29-2.82,2.29-4.58,2.99-1.75.7-3.63,1.04-5.62,1.04s-3.86-.35-5.62-1.04c-1.76-.7-3.28-1.69-4.58-2.99-1.3-1.29-2.31-2.85-3.06-4.67-.74-1.82-1.12-3.85-1.12-6.09Zm7.98,0c0,2.13.56,3.85,1.68,5.16,1.12,1.32,2.69,1.97,4.71,1.97s3.59-.66,4.71-1.97c1.12-1.32,1.68-3.04,1.68-5.16s-.56-3.85-1.68-5.16c-1.12-1.32-2.69-1.97-4.71-1.97s-3.59.66-4.71,1.97c-1.12,1.32-1.68,3.04-1.68,5.16Z"/>
  <path class="cls-1" d="m197.84,19.41h8.51l5.27,17.69h.1l4.41-17.69h8.73l4.79,17.69h.11l4.84-17.69h8.09l-9.2,28.2h-7.88l-5.37-18.74h-.1l-4.79,18.74h-8.04l-9.47-28.2h0Z"/>
  <path class="cls-1" d="m243.55,19.41h7.66v3.83h.11c.25-.54.6-1.08,1.06-1.63.46-.54,1.01-1.02,1.65-1.45.64-.42,1.37-.78,2.18-1.04.82-.27,1.7-.4,2.66-.4,2.02,0,3.65.34,4.9,1.02,1.24.68,2.21,1.61,2.9,2.82.69,1.2,1.16,2.61,1.41,4.24.25,1.63.37,3.39.37,5.28v15.55h-7.98v-13.81c0-.81-.03-1.65-.08-2.52-.05-.87-.21-1.67-.48-2.41-.27-.73-.68-1.34-1.22-1.8-.55-.47-1.34-.7-2.37-.7s-1.86.2-2.5.61c-.64.41-1.13.95-1.46,1.63-.34.68-.56,1.44-.66,2.29-.11.85-.16,1.74-.16,2.67v14.04h-7.98v-28.2Z"/>
  <path d="m6.85,51.53h11.28l16.02,28.55h.11v-28.55h8.3v41.08h-10.85l-16.44-29.24h-.11v29.24H6.85v-41.08Z"/>
  <path d="m45.91,78.51c0-2.24.37-4.27,1.12-6.09.74-1.82,1.76-3.38,3.06-4.67,1.3-1.29,2.82-2.29,4.58-2.99,1.75-.7,3.62-1.04,5.62-1.04s3.86.35,5.62,1.04c1.75.7,3.28,1.69,4.58,2.99,1.3,1.29,2.31,2.85,3.06,4.67.74,1.82,1.12,3.85,1.12,6.09s-.37,4.27-1.12,6.09c-.74,1.82-1.76,3.38-3.06,4.67-1.3,1.29-2.82,2.29-4.58,2.99-1.75.7-3.63,1.04-5.62,1.04s-3.86-.35-5.62-1.04c-1.75-.7-3.28-1.69-4.58-2.99-1.3-1.29-2.31-2.85-3.06-4.67-.74-1.82-1.12-3.85-1.12-6.09Zm7.98,0c0,2.13.56,3.85,1.68,5.16,1.12,1.32,2.69,1.97,4.71,1.97s3.59-.66,4.71-1.97c1.12-1.32,1.68-3.04,1.68-5.16s-.56-3.85-1.68-5.16c-1.12-1.32-2.69-1.97-4.71-1.97s-3.59.66-4.71,1.97c-1.12,1.32-1.68,3.04-1.68,5.16Z"/>
  <path d="m94.79,71.37h-7.02v9.4c0,.78.04,1.48.11,2.12.07.64.23,1.19.48,1.65.25.47.63.82,1.14,1.07.51.25,1.2.38,2.05.38.43,0,.99-.05,1.68-.15.69-.09,1.22-.32,1.57-.67v7.25c-.89.35-1.81.58-2.77.7-.96.12-1.9.17-2.82.17-1.35,0-2.59-.16-3.72-.47-1.14-.31-2.13-.8-2.98-1.48s-1.52-1.56-2-2.64c-.48-1.08-.72-2.4-.72-3.95v-13.4h-5.11v-6.96h5.11v-8.36h7.98v8.36h7.02v6.96h0Z"/>
  <path d="m113.36,89.07h-.11c-.89,1.51-2.07,2.59-3.54,3.25-1.47.66-3.03.99-4.66.99-1.21,0-2.37-.18-3.49-.55-1.12-.37-2.1-.92-2.96-1.65s-1.53-1.64-2.02-2.73c-.5-1.08-.74-2.34-.74-3.77,0-1.63.27-3,.83-4.12.55-1.12,1.3-2.05,2.23-2.78.94-.73,2.01-1.31,3.22-1.71,1.21-.4,2.46-.71,3.75-.9,1.3-.19,2.59-.31,3.88-.35,1.3-.04,2.49-.06,3.59-.06,0-1.55-.51-2.77-1.52-3.69-1.01-.91-2.21-1.36-3.59-1.36s-2.51.3-3.59.9c-1.08.6-2.05,1.42-2.9,2.46l-4.26-4.76c1.49-1.51,3.23-2.64,5.22-3.39,1.99-.75,4.05-1.13,6.18-1.13,2.34,0,4.26.32,5.77.96,1.51.64,2.71,1.58,3.62,2.82.91,1.24,1.53,2.76,1.89,4.56.35,1.8.53,3.88.53,6.24v14.33h-7.34v-3.55Zm-1.97-8.82c-.61,0-1.36.03-2.26.09-.91.06-1.78.23-2.61.49-.83.27-1.54.68-2.13,1.22-.58.54-.88,1.29-.88,2.26,0,1.04.41,1.82,1.22,2.32.82.5,1.66.75,2.56.75.78,0,1.53-.12,2.26-.35.73-.23,1.38-.56,1.94-.99.57-.42,1.02-.96,1.36-1.63.34-.66.51-1.43.51-2.32v-1.86h-1.97Z"/>
  <path d="m124.23,64.41h7.98v4.52h.11c.85-1.74,1.86-3.05,3.03-3.92,1.17-.87,2.65-1.31,4.42-1.31.46,0,.92.02,1.38.06.46.04.89.12,1.28.23v7.95c-.57-.19-1.13-.34-1.68-.44-.55-.09-1.13-.15-1.73-.15-1.53,0-2.74.23-3.62.7-.88.47-1.57,1.11-2.05,1.95-.48.83-.79,1.83-.93,2.99-.14,1.16-.21,2.44-.21,3.83v11.78h-7.98v-28.2h0Z"/>
  <path d="m160.02,97.2c-.53,1.51-1.05,2.84-1.54,4.01-.49,1.16-1.13,2.14-1.89,2.93-.76.79-1.73,1.39-2.9,1.8-1.17.41-2.71.61-4.63.61-2.06,0-4.05-.35-5.96-1.04l1.07-7.14c1.21.58,2.45.87,3.72.87.89,0,1.61-.1,2.18-.32.57-.21,1.04-.52,1.41-.93.37-.4.68-.9.93-1.48.25-.58.52-1.26.8-2.03l.59-1.63-11.33-28.43h8.62l6.65,18.62h.11l5.69-18.62h8.19l-11.71,32.78h0Z"/>
</svg>