<?xml version="1.0" encoding="UTF-8"?>
<svg id="Layer_1" xmlns="http://www.w3.org/2000/svg" version="1.1" viewBox="0 0 1366 768">
  <!-- Generator: Adobe Illustrator 29.5.0, SVG Export Plug-In . SVG Version: 2.1.0 Build 137)  -->
  <circle cx="512.9" cy="246.6" r="53.5"/>
  <path d="M273.8,458.3v-128.7c0-54.2,18.2-80.7,36-80.7s33.5,24.4,33.5,71.2v138.2c0,2.7,2.2,4.9,4.9,4.9h86.2c2.7,0,4.9-2.2,4.9-4.9v-152.7c0-63.7-39.3-94.8-81.9-94.8s-54.1,11.4-75.1,34.5c-3,3.3-8.5,1.1-8.5-3.4v-25.2c0-3.1-2.8-5.4-5.8-4.8-25.2,4.7-51.8,7.2-80.7,7.2h-3.8c-2.7,0-4.9,2.2-4.9,4.9v234.3c0,2.7,2.2,4.9,4.9,4.9h85.3c2.7,0,4.9-2.2,4.9-4.9Z"/>
  <path d="M554.9,314.2c-24.7,4.6-50.9,7.1-79.2,7.1h-5.3c-2.8,0-5.1,2.3-5.1,5.1v131.7c0,2.8,2.3,5.1,5.1,5.1h85.4c2.8,0,5.1-2.3,5.1-5.1v-138.9c0-3.2-2.9-5.6-6-5Z"/>
  <path d="M811.4,358.9c-.7-5.3-7.3-7.3-11-3.4-17.7,19.3-42.9,29.9-67,29.9-48.8,0-70.3-72.4-70.3-118.3s5.4-36,13.2-36c17.6,0,46.6,47.2,53.4,73.5.9,3.3,4.2,5.3,7.6,4.5,39.2-9.2,58.6-30.7,58.6-50.4s-30.6-48-91.9-48c-87.3,0-123.3,70.3-123.3,134.5s33.9,122.1,118.3,122.1,113.4-43.9,113.4-91.4-.4-11.3-1.1-17Z"/>
  <path d="M947.6,467.4c65,0,113.4-43.9,113.4-91.4s-.3-10.5-1-15.7c-.7-5.8-8-8-12-3.7-17.6,18.7-42.4,29-66.1,29s-28.5-7.7-38.8-19.5c-3-3.4-2-8.7,2.1-10.7,37.2-19,99.2-56.4,99.2-94.3s-30.6-50.1-91.9-50.1c-87.3,0-123.3,70.3-123.3,134.5s33.9,122.1,118.3,122.1ZM931,231.1c18.2,0,31.9,16.1,31.9,37.7s-14.1,47.9-26.7,66c-3.2,4.6-10.1,3.7-12.2-1.4-8.5-21.7-12.4-46.5-12.4-66.2s5.4-36,19.4-36Z"/>
  <path d="M1186.7,338.1c-3.3-4.9-9.6-6.9-15.2-4.7-6.5,2.5-13.3,3.8-20,3.8h-.2c-6.7,0-13.2-1.4-20-4.1-5.8-2.3-12.4-.3-15.6,4.9-2,3.2-2.4,7-1.3,10.6,1.2,3.6,3.9,6.5,7.4,7.9,3,1.2,6.1,2.3,9.2,3.1,4.2,1.2,7.1,5,7.1,9.4-.1,69-38.6,131-100.3,161.8-61.4,30.6-133.8,24.1-188.9-17-3.8-2.9-5-8.2-2.7-12.5,1.5-2.7,2.8-5.6,4-8.5,1.4-3.5,1.2-7.4-.6-10.7-1.8-3.3-5-5.6-8.8-6.2h-.4c-5.8-1.1-11.4,2-13.6,7.5-2.7,6.7-6.5,12.6-11.3,17.5-4.6,4.8-10.1,8.6-16.7,11.7-5.7,2.6-8.7,8.8-7.2,14.8.9,3.6,3.4,6.6,6.8,8.2,3.4,1.6,7.4,1.6,10.9,0,3.3-1.5,6.5-3.3,9.5-5.1,1.5-1,3.3-1.4,5-1.4s4.3.7,6.1,2.1c36.1,28.3,81.3,43.9,127.2,43.9s63.4-7.5,91.8-21.6c70.2-34.9,114-105.3,114.3-183.8,0-4.5,3.1-8.5,7.4-9.5,3.3-.8,6.7-1.9,10-3.2,3.6-1.4,6.3-4.3,7.5-8,1.2-3.7.6-7.6-1.5-10.8Z"/>
  <g>
    <path d="M180.1,537.6v-27h3.2v27h-3.2ZM182.7,525.2v-2.7h15.4v2.7h-15.4ZM197.4,537.6v-27h3.2v27h-3.2Z"/>
    <path d="M214.7,538.1c-1.9,0-3.5-.4-5-1.3-1.4-.9-2.6-2.1-3.4-3.7-.8-1.6-1.2-3.5-1.2-5.6s.4-4,1.2-5.6c.8-1.6,1.9-2.8,3.4-3.7,1.5-.9,3.1-1.3,5-1.3s3.6.4,5,1.3c1.4.9,2.5,2.1,3.3,3.7.8,1.6,1.2,3.5,1.2,5.6s-.4,4-1.2,5.6c-.8,1.6-1.9,2.8-3.4,3.7-1.4.9-3.1,1.3-5,1.3ZM214.7,535.3c1.2,0,2.3-.3,3.2-.9s1.7-1.5,2.3-2.6c.6-1.2.8-2.6.8-4.3s-.3-3.2-.8-4.4c-.5-1.2-1.3-2-2.2-2.6-.9-.6-2-.9-3.2-.9s-2.2.3-3.2.9-1.7,1.4-2.3,2.6c-.6,1.2-.8,2.6-.8,4.4s.3,3.2.8,4.3c.6,1.2,1.3,2,2.2,2.6.9.6,2,.9,3.1.9Z"/>
    <path d="M228.6,537.6v-20.3h2.9l.2,2.8c.6-1,1.5-1.8,2.5-2.4,1.1-.6,2.2-.9,3.3-.9s1.9.1,2.6.4c.8.3,1.5.7,2.1,1.2.6.6,1.1,1.2,1.4,2.1.7-1.2,1.6-2.1,2.7-2.8,1.1-.6,2.3-.9,3.6-.9s2.8.3,3.8.9c1.1.6,1.9,1.5,2.5,2.6s.9,2.6.9,4.4v12.9h-3.2v-12.5c0-1.8-.4-3.2-1.2-4.1-.8-.9-1.9-1.4-3.2-1.4s-1.8.2-2.5.7c-.8.5-1.4,1.2-1.8,2.2-.5,1-.7,2.1-.7,3.5v11.6h-3.2v-12.5c0-1.8-.4-3.2-1.2-4.1-.8-.9-1.9-1.4-3.2-1.4s-1.7.2-2.5.7c-.8.5-1.4,1.2-1.8,2.2-.5,1-.7,2.1-.7,3.5v11.6h-3.2Z"/>
    <path d="M270.6,538.1c-1.8,0-3.4-.4-4.8-1.3-1.4-.9-2.5-2.1-3.3-3.7-.8-1.6-1.2-3.5-1.2-5.6s.4-4,1.2-5.6c.8-1.6,1.9-2.8,3.3-3.7,1.4-.9,3-1.3,4.8-1.3s3.6.4,4.9,1.3c1.3.9,2.3,2,3,3.5.7,1.5,1,3.1,1,4.8v.8c0,.3,0,.6,0,.9h-15.7v-2.5h12.6c0-2-.6-3.5-1.7-4.5-1.1-1-2.5-1.6-4.1-1.6s-2.1.3-3,.8c-.9.5-1.7,1.3-2.2,2.3-.6,1-.8,2.3-.8,3.9v1.1c0,1.7.3,3.1.8,4.3.6,1.1,1.3,2,2.2,2.6.9.6,1.9.8,3,.8s2.6-.3,3.4-.8c.8-.6,1.4-1.3,1.8-2.4h3.2c-.3,1.1-.8,2.1-1.6,3-.8.9-1.7,1.6-2.9,2.1-1.1.5-2.5.8-4,.8Z"/>
    <path d="M305.2,538.1c-2.5,0-4.8-.6-6.6-1.8-1.9-1.2-3.3-2.8-4.3-4.9-1-2.1-1.5-4.5-1.5-7.3s.5-5.2,1.5-7.3c1-2.1,2.5-3.7,4.3-4.9,1.9-1.2,4.1-1.8,6.6-1.8s5.5.7,7.5,2.2c1.9,1.5,3.1,3.5,3.7,6.2h-3.5c-.4-1.7-1.3-3-2.5-4-1.2-1-2.9-1.5-5.1-1.5s-3.5.4-4.8,1.3c-1.4.9-2.4,2.2-3.2,3.8-.7,1.7-1.1,3.6-1.1,6s.4,4.3,1.1,6c.7,1.7,1.8,2.9,3.2,3.8,1.4.9,3,1.3,4.8,1.3s3.8-.5,5.1-1.5c1.2-1,2.1-2.3,2.5-4h3.5c-.5,2.6-1.8,4.6-3.7,6.1-1.9,1.5-4.4,2.2-7.5,2.2Z"/>
    <path d="M320.6,537.6v-27.8h3.2v27.8h-3.2Z"/>
    <path d="M337.4,538.1c-1.8,0-3.4-.4-4.8-1.3-1.4-.9-2.5-2.1-3.3-3.7-.8-1.6-1.2-3.5-1.2-5.6s.4-4,1.2-5.6c.8-1.6,1.9-2.8,3.3-3.7,1.4-.9,3-1.3,4.8-1.3s3.6.4,4.9,1.3c1.3.9,2.3,2,3,3.5.7,1.5,1,3.1,1,4.8v.8c0,.3,0,.6,0,.9h-15.7v-2.5h12.6c0-2-.6-3.5-1.7-4.5-1.1-1-2.5-1.6-4.1-1.6s-2.1.3-3,.8c-.9.5-1.7,1.3-2.2,2.3-.6,1-.8,2.3-.8,3.9v1.1c0,1.7.3,3.1.8,4.3.6,1.1,1.3,2,2.2,2.6.9.6,1.9.8,3,.8s2.6-.3,3.4-.8c.8-.6,1.4-1.3,1.8-2.4h3.2c-.3,1.1-.8,2.1-1.6,3-.8.9-1.7,1.6-2.9,2.1-1.1.5-2.5.8-4,.8Z"/>
    <path d="M356.7,538.1c-1.5,0-2.8-.3-3.9-.9s-1.8-1.4-2.3-2.3c-.5-1-.8-2-.8-3.1s.3-2.5,1-3.4c.7-.9,1.6-1.7,2.9-2.1,1.2-.5,2.7-.7,4.3-.7h5.1c0-1.3-.2-2.4-.5-3.3-.3-.9-.8-1.5-1.5-2-.7-.4-1.6-.7-2.8-.7s-2.1.3-3,.9c-.8.6-1.3,1.4-1.5,2.6h-3.3c.2-1.3.6-2.5,1.4-3.4.7-.9,1.7-1.6,2.8-2.1,1.1-.5,2.4-.7,3.6-.7,1.8,0,3.3.3,4.5,1,1.2.7,2.1,1.6,2.6,2.7.6,1.2.8,2.6.8,4.2v12.9h-2.9l-.2-3.5c-.3.5-.6,1-1,1.5-.4.5-.9.9-1.4,1.3-.5.4-1.2.6-1.8.8-.7.2-1.4.3-2.3.3ZM357.2,535.4c.8,0,1.6-.2,2.4-.6.7-.4,1.3-.9,1.9-1.6s.9-1.4,1.2-2.2c.3-.8.4-1.7.4-2.6v-.4h-4.8c-1.2,0-2.2.2-3,.5-.8.3-1.3.7-1.6,1.3-.3.6-.5,1.2-.5,1.9s.2,1.4.5,1.9c.3.6.8,1,1.4,1.3.6.3,1.3.5,2.2.5Z"/>
    <path d="M371.3,537.6v-20.3h2.9l.2,3.2c.6-1.2,1.4-2.1,2.6-2.7s2.4-1,3.9-1,2.8.3,3.9.8c1.1.6,2,1.4,2.6,2.6s.9,2.6.9,4.4v12.9h-3.2v-12.6c0-1.8-.4-3.2-1.3-4.1-.9-.9-2.1-1.4-3.6-1.4s-1.9.2-2.8.7c-.8.5-1.5,1.2-2,2.1-.5.9-.8,2.1-.8,3.4v11.8h-3.2Z"/>
    <path d="M395.1,513.5c-.6,0-1.2-.2-1.6-.6-.4-.4-.6-1-.6-1.6s.2-1.2.6-1.6c.4-.4,1-.6,1.6-.6s1.1.2,1.6.6c.4.4.7.9.7,1.6s-.2,1.2-.7,1.6c-.4.4-1,.6-1.6.6ZM393.5,537.6v-20.3h3.2v20.3h-3.2Z"/>
    <path d="M402.1,537.6v-20.3h2.9l.2,3.2c.6-1.2,1.4-2.1,2.6-2.7s2.4-1,3.9-1,2.8.3,3.9.8c1.1.6,2,1.4,2.6,2.6s.9,2.6.9,4.4v12.9h-3.2v-12.6c0-1.8-.4-3.2-1.3-4.1-.9-.9-2.1-1.4-3.6-1.4s-1.9.2-2.8.7c-.8.5-1.5,1.2-2,2.1-.5.9-.8,2.1-.8,3.4v11.8h-3.2Z"/>
    <path d="M432,546.6c-1.8,0-3.4-.2-4.8-.7-1.4-.5-2.4-1.1-3.2-2.1-.8-.9-1.1-2.1-1.1-3.4s.1-1.3.4-2c.2-.7.7-1.4,1.3-2,.6-.6,1.5-1.2,2.6-1.7l2.5,1.3c-1.5.6-2.4,1.2-2.9,2-.4.7-.7,1.5-.7,2.2s.3,1.6.8,2.1,1.2,1,2.1,1.3c.9.3,1.9.4,3.1.4s2.2-.1,3-.4,1.5-.7,1.9-1.3.7-1.2.7-1.9c0-1.1-.3-1.9-1-2.5s-2-1-4.1-1.1c-1.6-.1-2.9-.2-3.9-.4-1.1-.2-1.9-.4-2.6-.6-.7-.2-1.2-.5-1.7-.8-.5-.3-.9-.6-1.2-1v-.9l3.8-3.7,3,1-4.2,3.4.5-1.5c.3.2.6.4.8.6.3.2.6.3,1.1.5s1.1.3,1.9.4c.8.1,1.9.2,3.2.3,1.9.1,3.3.4,4.4.9,1.1.5,1.9,1.2,2.4,2,.5.9.7,1.9.7,3.1s-.3,2.1-.9,3.1c-.6,1-1.6,1.8-2.9,2.4-1.3.6-3,.9-5,.9ZM432,531.3c-1.6,0-3-.3-4.2-.9-1.1-.6-2-1.5-2.6-2.6-.6-1.1-.9-2.3-.9-3.7s.3-2.6.9-3.7c.6-1.1,1.5-1.9,2.6-2.6,1.1-.6,2.5-1,4.1-1s3.1.3,4.2,1c1.1.6,2,1.5,2.6,2.6.6,1.1.9,2.3.9,3.7s-.3,2.6-.9,3.7c-.6,1.1-1.5,2-2.6,2.6-1.1.6-2.5.9-4.2.9ZM432,528.6c1.4,0,2.6-.4,3.4-1.1.8-.8,1.2-1.9,1.2-3.4s-.4-2.7-1.2-3.4c-.8-.7-1.9-1.1-3.4-1.1s-2.5.4-3.3,1.1c-.9.7-1.3,1.9-1.3,3.4s.4,2.7,1.3,3.4c.8.8,2,1.1,3.4,1.1ZM435.4,520.1l-1-2.7h8v2.4l-7,.3Z"/>
    <path d="M454.9,527.8v-2.7h17.6v2.7h-17.6ZM462.2,534.9v-16.8h2.9v16.8h-2.9Z"/>
    <path d="M486.9,537.6v-27h3.8l9.2,19,9.1-19h3.8v27h-3.2v-21.2l-8.5,17.6h-2.4l-8.5-17.5v21h-3.2Z"/>
    <path d="M524.5,538.1c-1.5,0-2.8-.3-3.9-.9s-1.8-1.4-2.3-2.3c-.5-1-.8-2-.8-3.1s.3-2.5,1-3.4c.7-.9,1.6-1.7,2.9-2.1,1.2-.5,2.7-.7,4.3-.7h5.1c0-1.3-.2-2.4-.5-3.3-.3-.9-.8-1.5-1.5-2-.7-.4-1.6-.7-2.8-.7s-2.1.3-3,.9c-.8.6-1.3,1.4-1.5,2.6h-3.3c.2-1.3.6-2.5,1.4-3.4.7-.9,1.7-1.6,2.8-2.1,1.1-.5,2.4-.7,3.6-.7,1.8,0,3.3.3,4.5,1,1.2.7,2.1,1.6,2.6,2.7.6,1.2.8,2.6.8,4.2v12.9h-2.9l-.2-3.5c-.3.5-.6,1-1,1.5-.4.5-.9.9-1.4,1.3-.5.4-1.2.6-1.8.8-.7.2-1.4.3-2.3.3ZM525,535.4c.8,0,1.6-.2,2.4-.6.7-.4,1.3-.9,1.9-1.6s.9-1.4,1.2-2.2c.3-.8.4-1.7.4-2.6v-.4h-4.8c-1.2,0-2.2.2-3,.5-.8.3-1.3.7-1.6,1.3-.3.6-.5,1.2-.5,1.9s.2,1.4.5,1.9c.3.6.8,1,1.4,1.3.6.3,1.3.5,2.2.5Z"/>
    <path d="M541,513.5c-.6,0-1.2-.2-1.6-.6-.4-.4-.6-1-.6-1.6s.2-1.2.6-1.6c.4-.4,1-.6,1.6-.6s1.1.2,1.6.6c.4.4.7.9.7,1.6s-.2,1.2-.7,1.6c-.4.4-1,.6-1.6.6ZM539.4,537.6v-20.3h3.2v20.3h-3.2Z"/>
    <path d="M548,537.6v-20.3h2.9l.2,3.2c.6-1.2,1.4-2.1,2.6-2.7s2.4-1,3.9-1,2.8.3,3.9.8c1.1.6,2,1.4,2.6,2.6s.9,2.6.9,4.4v12.9h-3.2v-12.6c0-1.8-.4-3.2-1.3-4.1-.9-.9-2.1-1.4-3.6-1.4s-1.9.2-2.8.7c-.8.5-1.5,1.2-2,2.1-.5.9-.8,2.1-.8,3.4v11.8h-3.2Z"/>
    <path d="M577.8,537.6c-1.2,0-2.2-.2-3-.5s-1.5-1-1.9-1.8c-.5-.9-.7-2-.7-3.5v-11.7h-3.6v-2.7h3.6l.4-5.1h2.8v5.1h5.8v2.7h-5.8v11.7c0,1.2.2,2,.7,2.5.5.4,1.4.6,2.6.6h2.4v2.8h-3.3Z"/>
    <path d="M593.1,538.1c-1.8,0-3.4-.4-4.8-1.3-1.4-.9-2.5-2.1-3.3-3.7-.8-1.6-1.2-3.5-1.2-5.6s.4-4,1.2-5.6c.8-1.6,1.9-2.8,3.3-3.7,1.4-.9,3-1.3,4.8-1.3s3.6.4,4.9,1.3c1.3.9,2.3,2,3,3.5.7,1.5,1,3.1,1,4.8v.8c0,.3,0,.6,0,.9h-15.7v-2.5h12.6c0-2-.6-3.5-1.7-4.5-1.1-1-2.5-1.6-4.1-1.6s-2.1.3-3,.8c-.9.5-1.7,1.3-2.2,2.3-.6,1-.8,2.3-.8,3.9v1.1c0,1.7.3,3.1.8,4.3.6,1.1,1.3,2,2.2,2.6.9.6,1.9.8,3,.8s2.6-.3,3.4-.8c.8-.6,1.4-1.3,1.8-2.4h3.2c-.3,1.1-.8,2.1-1.6,3-.8.9-1.7,1.6-2.9,2.1-1.1.5-2.5.8-4,.8Z"/>
    <path d="M606.1,537.6v-20.3h2.9l.2,3.2c.6-1.2,1.4-2.1,2.6-2.7s2.4-1,3.9-1,2.8.3,3.9.8c1.1.6,2,1.4,2.6,2.6s.9,2.6.9,4.4v12.9h-3.2v-12.6c0-1.8-.4-3.2-1.3-4.1-.9-.9-2.1-1.4-3.6-1.4s-1.9.2-2.8.7c-.8.5-1.5,1.2-2,2.1-.5.9-.8,2.1-.8,3.4v11.8h-3.2Z"/>
    <path d="M634.4,538.1c-1.5,0-2.8-.3-3.9-.9s-1.8-1.4-2.3-2.3c-.5-1-.8-2-.8-3.1s.3-2.5,1-3.4c.7-.9,1.6-1.7,2.9-2.1,1.2-.5,2.7-.7,4.3-.7h5.1c0-1.3-.2-2.4-.5-3.3-.3-.9-.8-1.5-1.5-2-.7-.4-1.6-.7-2.8-.7s-2.1.3-3,.9c-.8.6-1.3,1.4-1.5,2.6h-3.3c.2-1.3.6-2.5,1.4-3.4.7-.9,1.7-1.6,2.8-2.1,1.1-.5,2.4-.7,3.6-.7,1.8,0,3.3.3,4.5,1,1.2.7,2.1,1.6,2.6,2.7.6,1.2.8,2.6.8,4.2v12.9h-2.9l-.2-3.5c-.3.5-.6,1-1,1.5-.4.5-.9.9-1.4,1.3-.5.4-1.2.6-1.8.8-.7.2-1.4.3-2.3.3ZM634.8,535.4c.8,0,1.6-.2,2.4-.6.7-.4,1.3-.9,1.9-1.6.5-.7.9-1.4,1.2-2.2s.4-1.7.4-2.6v-.4h-4.8c-1.2,0-2.2.2-3,.5-.8.3-1.3.7-1.6,1.3-.3.6-.5,1.2-.5,1.9s.2,1.4.5,1.9c.3.6.8,1,1.4,1.3.6.3,1.3.5,2.2.5Z"/>
    <path d="M648.9,537.6v-20.3h2.9l.2,3.2c.6-1.2,1.4-2.1,2.6-2.7s2.4-1,3.9-1,2.8.3,3.9.8c1.1.6,2,1.4,2.6,2.6.6,1.2.9,2.6.9,4.4v12.9h-3.2v-12.6c0-1.8-.4-3.2-1.3-4.1-.9-.9-2.1-1.4-3.6-1.4s-1.9.2-2.8.7c-.8.5-1.5,1.2-2,2.1-.5.9-.8,2.1-.8,3.4v11.8h-3.2Z"/>
    <path d="M679.6,538.1c-1.9,0-3.5-.4-4.9-1.3-1.4-.9-2.6-2.1-3.4-3.7-.8-1.6-1.2-3.4-1.2-5.6s.4-4,1.2-5.6c.8-1.6,2-2.8,3.4-3.7s3.1-1.3,4.9-1.3,4.3.6,5.8,1.9c1.6,1.2,2.6,2.9,3,5h-3.3c-.3-1.3-.9-2.3-1.9-3-1-.7-2.2-1.1-3.6-1.1s-2.2.3-3.2.9-1.7,1.5-2.2,2.6c-.5,1.2-.8,2.6-.8,4.3s.2,2.4.5,3.4c.3,1,.7,1.8,1.3,2.5.6.7,1.2,1.2,2,1.5.8.3,1.6.5,2.5.5s1.8-.2,2.5-.5c.8-.3,1.4-.8,1.9-1.4.5-.6.9-1.4,1.1-2.2h3.3c-.4,2-1.4,3.7-3,4.9-1.6,1.3-3.5,1.9-5.8,1.9Z"/>
    <path d="M701.2,538.1c-1.8,0-3.4-.4-4.8-1.3-1.4-.9-2.5-2.1-3.3-3.7-.8-1.6-1.2-3.5-1.2-5.6s.4-4,1.2-5.6c.8-1.6,1.9-2.8,3.3-3.7,1.4-.9,3-1.3,4.8-1.3s3.6.4,4.9,1.3c1.3.9,2.3,2,3,3.5.7,1.5,1,3.1,1,4.8v.8c0,.3,0,.6,0,.9h-15.7v-2.5h12.6c0-2-.6-3.5-1.7-4.5-1.1-1-2.5-1.6-4.1-1.6s-2.1.3-3,.8c-.9.5-1.7,1.3-2.2,2.3-.6,1-.8,2.3-.8,3.9v1.1c0,1.7.3,3.1.8,4.3.6,1.1,1.3,2,2.2,2.6.9.6,1.9.8,3,.8s2.6-.3,3.4-.8c.8-.6,1.4-1.3,1.8-2.4h3.2c-.3,1.1-.8,2.1-1.6,3-.8.9-1.7,1.6-2.9,2.1s-2.5.8-4,.8Z"/>
  </g>
</svg>